<svg xmlns="http://www.w3.org/2000/svg" width="144.083" height="144" id="fox"><path d="m118.878 24.026-.196-7.259-26.505 28.08H52.084L25.611 16.805l-.23 7.207c-.259 8.091-1.471 48.75.101 54.615 2.005 7.479 14.161 20.097 25.397 31.335l.933.934c3.378 3.385 5.037 6.078 6.619 9.326.692 1.421 1.738 3.569 4.15 5.037l.351.206c2.387 1.336 7.168 1.768 9.109 1.768 2.028 0 7.018-.487 9.494-1.995l.759-.502c1.582-1.143 2.435-2.604 3.058-3.672l.363-.625c1.904-3.277 3.549-6.107 6.951-9.555 11.654-11.808 23.837-24.858 25.829-32.123 1.612-5.884.602-46.627.383-54.735zm-5.527 26.918c.101 12.683-.026 23.978-.645 26.23-1.846 6.732-18.755 23.865-24.312 29.495-3.938 3.989-5.937 7.429-7.869 10.756l-.358.616c-.491.842-.854 1.428-1.348 1.801l-.439.29c-.51.288-1.904.63-3.425.855v-12.984h1.584a3 3 0 1 0 0-6h-9a3 3 0 1 0 0 6h1.417v12.977c-1.396-.202-2.628-.488-3.034-.715l-.255-.15c-.815-.496-1.259-1.319-1.843-2.52-1.801-3.699-3.811-6.976-7.767-10.938l-.937-.938c-6.61-6.611-22.088-22.093-23.844-28.646-.601-2.242-.668-13.493-.504-26.134l82.579.005z"></path><path d="M56.903 87.887 41.737 77.221l3.452-4.908L60.354 82.98zM87.351 87.896l-3.45-4.909 15.166-10.664 3.451 4.908z"></path></svg>