<svg xmlns="http://www.w3.org/2000/svg" enable-background="new 0 0 66 66" viewBox="0 0 66 66" id="hulk"><circle cx="32.998" cy="32.999" r="31" fill="#3590CE"></circle><path fill="#27B14B" d="M57.3275,52.20796c-5.67999,7.17999-14.46002,11.78998-24.33002,11.78998
				S14.34746,59.38795,8.66747,52.20796c7.5-3.10999,15.71002-4.82001,24.33002-4.82001S49.8275,49.09797,57.3275,52.20796z"></path><path fill="#27B14B" d="M52.10593,32.51789c-0.16836,0.87894-1.55219,2.37502-1.45865,3.26326
				c0.0654,0.56106,1.11264,1.50545,0.9537,2.04773c-0.14958,0.52362-1.77653,1.17815-1.87007,1.22489
				c0.20574,1.77659,0.54234,5.30169,0.1122,6.7229c-0.68256,2.23475-3.58114,5.01183-5.00241,6.85382
				c-1.29035,1.67369-3.1324,5.47929-5.10531,6.26474c-1.69241,0.68256-6.16184-1.07531-6.69482-1.29035
				c-0.53298,0.21504-5.00247,1.97291-6.69488,1.29035c-1.96355-0.78545-3.8149-4.59105-5.10525-6.26474
				c-1.42127-1.84199-4.31985-4.61907-4.99311-6.85382c-0.43008-1.42121-0.09348-4.94631,0.1122-6.7229
				c0,0-1.72043-0.68256-1.87943-1.22489c-0.14958-0.54228,0.89765-1.48667,0.95375-2.04773
				c0.09348-0.88824-1.29035-2.38432-1.45865-3.26326c-0.24312-1.29971-0.2805-5.25489,1.04723-5.19879
				c0.6078,0.02808,0.97242,0.95375,1.18751,2.08517c0.34596-1.21559,0.57036-2.48722,0.65454-3.7963
				c3.03886-2.07575,5.42319-5.03043,6.8351-8.49943c3.45028,3.6934,8.36851,5.99355,13.82914,5.99355
				c3.51574,0,6.82574-0.9537,9.64956-2.62745c0.04674,3.42226,1.00049,6.6107,2.62745,9.36906
				c0.19638-1.31837,0.561-2.49653,1.26227-2.5246C52.38643,27.263,52.35835,31.21818,52.10593,32.51789z"></path><path fill="#FFF" d="M35.13275 31.6794c-.6578-1.22056.34113-2.43961 1.24852-3.37022.98111-1.00623 1.98255-2.01952 3.1943-2.73138 1.9296-1.13357 4.47558-1.24065 5.53725.15773.36004.47423.48207 1.15323.20266 1.67901-.24926.46904-.75105.7372-1.22439.9782-1.15011.58559-2.30022 1.17118-3.45033 1.75677-.55798.2841-1.12333.57322-1.5866.99445-.34826.31665-.63454.70432-1.02317.96988-.49691.33955-1.01133.2021-1.54865.25048C35.93575 32.41352 35.40218 32.17933 35.13275 31.6794zM30.95278 31.6794c.6578-1.22056-.34113-2.43961-1.24852-3.37022-.98111-1.00623-1.98255-2.01952-3.1943-2.73138-1.92961-1.13357-4.47558-1.24065-5.53725.15773-.36004.47423-.48208 1.15323-.20266 1.67901.24926.46904.75105.7372 1.22439.9782 1.15011.58559 2.30022 1.17118 3.45033 1.75677.55798.2841 1.12332.57322 1.5866.99445.34826.31665.63454.70432 1.02316.96988.49691.33955 1.01133.2021 1.54865.25048C30.14979 32.41352 30.68335 32.17933 30.95278 31.6794z" opacity=".2"></path><path fill="#172540" d="M44.24829 43.72571c-.29443 0-.57373-.17432-.69336-.46289-.64355-1.55469-1.54297-2.96582-2.67334-4.19434-.28027-.30518-.26025-.7793.04443-1.06006.30469-.27881.77979-.25977 1.06006.04443 1.24951 1.35889 2.24365 2.91846 2.95459 4.63574.15869.38281-.02344.82178-.40576.97998C44.44116 43.70764 44.34351 43.72571 44.24829 43.72571zM21.83716 43.72571c-.09521 0-.19238-.01807-.28662-.05713-.38232-.1582-.56445-.59717-.40576-.97998.71094-1.71729 1.70508-3.27686 2.95459-4.63574.28125-.3042.75635-.32324 1.06006-.04443.30469.28076.32471.75488.04443 1.06006-1.13037 1.22852-2.02979 2.63965-2.67334 4.19434C22.41089 43.55139 22.13159 43.72571 21.83716 43.72571zM32.99243 39.69543c-.62305 0-1.24609-.27393-1.82715-.82227-.30078-.28467-.31445-.75928-.03027-1.06055.28467-.30176.75928-.31396 1.06006-.03027.58887.55566 1.00635.55664 1.59424 0 .30127-.28369.7749-.27148 1.06055.03027.28418.30127.27051.77588-.03027 1.06055C34.23901 39.42102 33.61597 39.69543 32.99243 39.69543zM36.17847 39.75354c-.20508 0-.40918-.0835-.55713-.24805-.27734-.30713-.25293-.78125.0542-1.05908.33643-.30322.69727-.70215.78223-.8623-.01953-.0083-.06396-.27344-.34473-.88672-.17285-.37646-.00732-.82178.36914-.99414.37646-.17139.82227-.00732.99414.36914.48877 1.06592.49902 1.52295.45361 1.80225-.08887.54297-.729 1.2168-1.25 1.68604C36.53687 39.69006 36.35718 39.75354 36.17847 39.75354zM29.90454 39.75354c-.17871 0-.3584-.06348-.50146-.19287-.521-.46924-1.16113-1.14307-1.25-1.68555-.04688-.2876-.03271-.76123.49072-1.8833.17529-.37549.62061-.53711.99707-.3623.375.17529.5376.62158.3623.99707-.36328.77783-.3667 1.02393-.3667 1.03418.04346.0498.4209.46973.771.78564.30713.27783.33154.75195.0542 1.05908C30.31372 39.67004 30.10962 39.75354 29.90454 39.75354z"></path><path fill="#FFF" d="M32.67101,50.21965c-3.93444,0-6.52165,0.9951-8.84679-2.03681
				c1.68756-0.0235,2.80271-1.75306,3.69801-2.03681c1.30448-0.41344,3.81146,1.30901,5.14878,1.30901
				c1.33731,0,3.8443-1.72245,5.14877-1.30901c0.8953,0.28376,2.01045,2.01331,3.69801,2.03681
				C39.19265,51.21475,36.60544,50.21965,32.67101,50.21965z"></path><path fill="#172540" d="M36.78101,51.1261c-0.57617,0-1.18506-0.03467-1.83301-0.07178
				c-1.41309-0.08105-3.14014-0.08105-4.5542,0c-0.64795,0.03711-1.25684,0.07178-1.83301,0.07178
				c-1.77881,0-3.65576-0.30127-5.33203-2.48682c-0.17236-0.2251-0.20361-0.52832-0.07959-0.78369
				c0.12354-0.25537,0.38086-0.41895,0.66455-0.42285c0.80371-0.01123,1.5127-0.60205,2.13818-1.12354
				c0.4502-0.375,0.875-0.72949,1.34375-0.87793c0.92627-0.29492,2.24512,0.18506,3.46484,0.67725
				c0.72754,0.29346,1.47949,0.59668,1.91064,0.59668s1.18311-0.30322,1.91113-0.59668
				c1.21973-0.49219,2.54053-0.9707,3.46387-0.67725c0.46875,0.14844,0.89355,0.50293,1.34375,0.87793
				c0.62598,0.52148,1.33496,1.1123,2.13818,1.12354c0.28369,0.00391,0.54102,0.16748,0.66455,0.42285
				c0.12402,0.25537,0.09277,0.55859-0.07959,0.78369C40.43677,50.82483,38.55981,51.1261,36.78101,51.1261z M32.67114,49.46985
				c0.85156,0,1.62012,0.04395,2.36279,0.08691c2.10449,0.12158,3.70264,0.22559,5.07275-0.95166
				c-0.67041-0.30469-1.2251-0.76709-1.67676-1.14355c-0.3042-0.25342-0.64941-0.54102-0.83691-0.60059
				c-0.06104-0.01904-0.13867-0.02881-0.23145-0.02881c-0.56299,0-1.44238,0.35449-2.21875,0.66748
				c-0.8999,0.36279-1.74951,0.70557-2.47168,0.70557s-1.57178-0.34277-2.47168-0.70557
				c-0.77637-0.31299-1.65576-0.66748-2.21924-0.66748c-0.09277,0-0.17041,0.00977-0.23145,0.02881
				c-0.1875,0.05957-0.53223,0.34668-0.83643,0.60059c-0.45215,0.37646-1.00684,0.83887-1.67725,1.14355
				c1.36963,1.17822,2.96631,1.07324,5.07275,0.95166C31.05103,49.51379,31.81958,49.46985,32.67114,49.46985z"></path><path fill="#444A88" d="M52.10593,28.63766c-0.159-0.92567-0.47688-1.63631-1.03793-1.60823
				c-0.69192,0.02802-1.0659,1.20617-1.26227,2.53391c-1.62695-2.75836-2.58071-5.95616-2.62745-9.37836
				c-2.82382,1.67369-6.13382,2.62744-9.64956,2.62744c-5.46063,0-10.37886-2.30021-13.82914-5.9936
				c-1.41191,3.469-3.79624,6.42368-6.8351,8.49949c-0.08418,1.30901-0.30858,2.5807-0.65454,3.79624
				c-0.2151-1.13141-0.57972-2.05709-1.18751-2.08511c-0.6171-0.02808-0.93503,0.80412-1.08461,1.83263
				c-0.17766-0.54234-0.33666-1.10333-0.46752-1.67369c-0.95876-4.09425-0.63523-8.47742,1.05659-12.44531
				C17.54966,7.53684,24.70622,2.51279,32.98446,2.51279c6.779,0,12.78191,3.3661,16.40048,8.51815
				C53.17929,16.36889,53.91895,23.00612,52.10593,28.63766z"></path><path fill="#FFF" d="M44.76347 30.81086c-1.49793 1.17582-3.38246 1.87647-5.43608 1.87647-.41073 0-.82142-.03225-1.22409-.08858 1.055-1.18388 2.42405-2.09393 3.98642-2.57711h.00806C43.04007 30.14241 43.93399 30.41625 44.76347 30.81086zM21.32207 30.81086c1.49793 1.17582 3.38246 1.87647 5.43608 1.87647.41073 0 .82142-.03225 1.22409-.08858-1.055-1.18388-2.42405-2.09393-3.98642-2.57711h-.00806C23.04547 30.14241 22.15155 30.41625 21.32207 30.81086z"></path><path fill="#172540" d="M46.38501 26.97668c-2.20215-.35889-4.08252 1.10254-5.90332 2.51709-2.29834 1.78613-3.79053 2.81787-5.43701 1.59668-.33252-.24707-.80127-.17676-1.04932.15576-.24658.33252-.17676.80225.15576 1.04932.79932.59277 1.58057.83252 2.34131.83252.33722 0 .66901-.05902.99792-.14349.1167.18359.289.32623.5094.35687.45508.06348.90137.0957 1.32764.0957 2.16162 0 4.20166-.7041 5.89893-2.03662.20459-.16016.31104-.41455.28271-.67285-.02881-.25781-.18896-.48291-.42334-.59424-.64832-.30841-1.32013-.53705-2.00464-.69312 1.03839-.69067 2.05225-1.15021 3.06079-.98315.41162.06592.79443-.20947.86182-.61865C47.07056 27.42981 46.7937 27.04407 46.38501 26.97668zM39.97192 31.91223c.66846-.48535 1.40527-.86572 2.18652-1.125.32373.04785.64502.1167.9624.20508C42.14868 31.51379 41.08472 31.82532 39.97192 31.91223zM31.03833 31.09045c-1.646 1.22217-3.13818.18896-5.43701-1.59668-1.82129-1.41504-3.70264-2.87939-5.90332-2.51709-.40869.06738-.68555.45313-.61865.86182.06787.40918.45752.68506.86182.61865 1.0155-.16705 2.02753.29242 3.0636.98303-.68463.15607-1.35657.38477-2.005.69324-.23438.11133-.39453.33643-.42334.59424-.02832.2583.07813.5127.28271.67285 1.69727 1.33252 3.7373 2.03662 5.89893 2.03662.42627 0 .87256-.03223 1.32764-.0957.22021-.03064.39233-.17316.50903-.35638.32825.08417.65936.14301.99585.14301.76074 0 1.54199-.23975 2.34131-.83252.33252-.24707.40234-.7168.15576-1.04932C31.84058 30.9137 31.37134 30.84338 31.03833 31.09045zM22.96069 30.99036c.32471-.09229.64502-.16162.9541-.20752.78564.25928 1.52686.64111 2.19873 1.12939C24.99976 31.82532 23.93384 31.51282 22.96069 30.99036z"></path><path fill="#FFF" d="M42.29551 37.05567c.32365-.04262 2.83022 1.63321 4.22323 6.25054 0 0-.63532-4.68169 2.2569-8.93583C46.88222 36.53904 44.80769 37.84262 42.29551 37.05567zM23.79003 37.05567c-.32365-.04262-2.83022 1.63321-4.22323 6.25054 0 0 .63532-4.68169-2.25691-8.93583C19.20332 36.53904 21.27785 37.84262 23.79003 37.05567z" opacity=".2"></path><path fill="#010101" d="M48.86015 37.634c-.50395 9.07284-6.01924 7.16813-6.1644 16.89591C49.58955 49.17755 51.4596 43.5349 48.86015 37.634zM16.67457 37.634c.50395 9.07284 6.01925 7.16813 6.1644 16.89591C15.94517 49.17755 14.07513 43.5349 16.67457 37.634z" opacity=".1"></path><path fill="#172540" d="M33,1.25C15.49005,1.25,1.25,15.48999,1.25,33c0,17.31,14.02002,31.75,31.75,31.75
				c17.66003,0,31.75-14.37006,31.75-31.75C64.75,15.48999,50.5,1.25,33,1.25z M50.49097,36.80676
				c0.10155,0.1499,0.25488,0.37744,0.33154,0.53027c-0.10571,0.08502-0.28259,0.19324-0.48511,0.30469
				c-0.0022-0.01514-0.00568-0.0401-0.00739-0.05176c-0.06-0.40997-0.45001-0.70001-0.84998-0.64001
				c-0.41003,0.06-0.69,0.44-0.64001,0.85004c0.22998,1.57996,0.72003,6.01001,0.28003,7.46997
				c-0.70435,2.32166-3.73474,4.74408-6.13,8.48004c-1.04004,1.63995-2.34003,3.68994-3.53003,4.15997
				c-1.58997,0.64001-6.12-1.37-6.41998-1.34998c-0.27002-0.02002-4.87,1.96997-6.41998,1.34998
				C25.44,57.43994,24.13,55.38995,23.09003,53.75c-2.35724-3.71045-5.41217-6.11389-6.13-8.48004
				c-0.44-1.45996,0.04999-5.89001,0.28003-7.46997c0.06-0.41003-0.23004-0.79004-0.64001-0.85004
				c-0.41003-0.06-0.78998,0.23004-0.85004,0.64001c-0.00195,0.01337-0.00586,0.04138-0.00842,0.05927
				c-0.22583-0.11792-0.41132-0.22418-0.49524-0.28241c0.06982-0.15186,0.23779-0.40039,0.3457-0.56055
				c0.27832-0.41211,0.5415-0.80176,0.58789-1.2334c0.08105-0.75732-0.40771-1.56836-0.88086-2.35303
				c-0.25098-0.4165-0.53564-0.88867-0.5835-1.13574c-0.18872-0.97803-0.15448-2.4386,0.0152-3.39685
				c0.0882-0.45667,0.19489-0.72394,0.26947-0.84583c0.10052,0.1366,0.28967,0.49884,0.45752,1.34607
				c0.20093,1.06207,0.32324,2.56915,0.29541,4.06409c-0.00732,0.41406,0.32178,0.75635,0.73584,0.76416
				c0.38916-0.00195,0.75635-0.32178,0.76416-0.73584c0.02271-1.21069-0.01703-2.80664-0.27307-4.17096
				c0.30109-1.10529,0.51056-2.23792,0.60608-3.37933c2.73389-1.94336,4.91162-4.5498,6.35596-7.6001
				c3.63574,3.46582,8.52588,5.43311,13.58643,5.43311c3.13135,0,6.20215-0.73633,8.95508-2.13965
				c0.22113,2.89771,1.08789,5.7204,2.52673,8.24994c-0.17267,1.22479-0.2002,2.56012-0.18054,3.60699
				c0.00781,0.41406,0.35547,0.73193,0.76416,0.73584c0.41406-0.00781,0.74365-0.3501,0.73584-0.76416
				c-0.02393-1.27228,0.06195-2.54956,0.21155-3.55865c0.00122-0.00702,0.00519-0.01288,0.00623-0.01996
				c0.17871-1.20752,0.41846-1.66797,0.53662-1.82959c0.07623,0.12738,0.18744,0.39929,0.2738,0.88031
				c0.16425,0.9588,0.19598,2.39447,0.00989,3.36041c-0.04785,0.24658-0.33203,0.71875-0.5835,1.13477
				c-0.47314,0.78516-0.9624,1.59668-0.88086,2.35352C49.94946,36.00452,50.21265,36.39417,50.49097,36.80676z M51.06433,26.28259
				c-0.00824,0.00085-0.01837-0.00385-0.02649-0.00269c-0.00055,0-0.00098,0.00031-0.00153,0.00031
				c-0.00134,0-0.0025-0.00031-0.00385-0.00031c-0.66559,0.02863-1.18439,0.58301-1.46338,1.20752
				c-1.04346-2.29053-1.60645-4.78516-1.64063-7.3125c-0.00391-0.26758-0.1499-0.5127-0.3833-0.64404
				c-0.22803-0.12823-0.51422-0.13007-0.74902,0.00928c-2.78564,1.6499-5.99023,2.52246-9.26758,2.52246
				c-5.02344,0-9.86426-2.09766-13.28125-5.75586c-0.1748-0.18701-0.43506-0.27197-0.68408-0.22559
				c-0.25146,0.04688-0.46191,0.21826-0.55859,0.45508c-1.35645,3.3335-3.62598,6.15625-6.56299,8.16309
				c-0.19092,0.12988-0.31104,0.34082-0.32568,0.57129c-0.03076,0.47729-0.08118,0.95361-0.15131,1.42749
				c-0.26868-0.26245-0.5813-0.41492-0.95392-0.41492c-0.00671-0.00037-0.01154-0.00397-0.01831-0.00427
				c-0.30988,0-0.69855,0.15863-0.88574,0.31592c-0.81445-3.87061-0.42432-7.95801,1.11182-11.56152
				c2.99902-7.15039,9.97266-11.77051,17.76611-11.77051c6.27881,0,12.18066,3.06494,15.78906,8.20264
				c3.10449,4.36719,4.21826,9.87939,3.11523,15.07568c-0.00659-0.00476-0.01404-0.0058-0.02069-0.01044
				C51.65942,26.3877,51.37573,26.28241,51.06433,26.28259z M2.75,33c0-12.91364,8.13635-23.9574,19.54968-28.289
				c-3.71204,2.21674-6.71631,5.57458-8.46252,9.73834c-1.71533,4.02197-2.10449,8.60742-1.09766,12.90723
				c0.11768,0.51318,0.26978,1.039,0.4364,1.56372c-0.17029,1.38428-0.03644,2.91229,0.06702,3.44751
				c0.09766,0.50928,0.42529,1.05225,0.77148,1.62695c0.2627,0.43506,0.70166,1.16309,0.67725,1.39844
				c-0.02734,0.10693-0.22461,0.39893-0.34277,0.57373c-0.36084,0.53467-0.77002,1.14063-0.58594,1.78223
				c0.17322,0.60083,0.98077,1.1076,1.78314,1.47742c-0.21246,1.94556-0.45044,5.05402-0.01605,6.4834
				c0.28003,0.94,0.89001,1.92999,1.63,2.90002c-2.78998,0.70001-5.53998,1.59998-8.22998,2.69C5.06006,46.21997,2.75,39.87,2.75,33
				z M33,63.25c-9.04999,0-17.39996-4.02002-23.08997-10.74005c2.70001-1.07001,5.46997-1.94,8.27997-2.62
				c2.16858,2.60229,2.04193,2.17096,3.63,4.66003c1.23004,1.91998,2.61005,4.09998,4.25,4.76001
				c1.70001,0.67999,5.25-0.51001,6.97003-1.19c1.71997,0.67999,5.27002,1.87,6.97998,1.19
				c1.64001-0.66003,3.02002-2.84003,4.23999-4.76001c1.61011-2.52344,1.69482-2.32971,3.62-4.64001
				c2.78003,0.66998,5.52002,1.53998,8.20001,2.59998C50.5,59.10999,42.21002,63.25,33,63.25z M48.91003,48.62994
				c0.73999-0.97998,1.35999-1.97998,1.65002-2.91998c0.43439-1.42926,0.19153-4.53741-0.02386-6.48303
				c0.80261-0.36987,1.6106-0.87683,1.78387-1.47827c0.18408-0.64111-0.22461-1.24707-0.58545-1.78125
				c-0.11816-0.1748-0.31543-0.4668-0.33984-0.55469c-0.02734-0.25537,0.41211-0.98389,0.67432-1.41895
				c0.34619-0.57422,0.67334-1.1167,0.77148-1.62598c0.10907-0.56628,0.25049-2.24146,0.03217-3.68365
				c1.9054-6.11456,0.83856-12.86157-2.87396-18.08441c-1.72314-2.45313-3.93402-4.46533-6.44946-5.94836
				C55.04242,8.9422,63.25,20.02905,63.25,33c0,6.87-2.31,13.21997-6.18994,18.29999
				C54.40002,50.21997,51.68005,49.32996,48.91003,48.62994z"></path></svg>