<svg xmlns="http://www.w3.org/2000/svg" data-name="Layer 2" viewBox="0 0 1200 600" id="professional-web-developer"><defs><clipPath id="a"><path fill="none" d="M0 0h1200v600H0z"></path></clipPath><clipPath id="b"><path fill="none" d="M420.18 426.94H309.97L348.36.01h110.21l-38.39 426.93z"></path></clipPath><clipPath id="c"><path fill="none" d="M678.39 9.04H516.44l-42.75 362.94h161.94L678.39 9.04z"></path></clipPath><clipPath id="d"><path fill="none" d="m539.01 204.58 24.69 2.71-2 15.38-24.95-3.16 2.26-14.93z"></path></clipPath><clipPath id="e"><path fill="none" d="M103.71 84.53h464.97V600H103.71z"></path></clipPath><clipPath id="f"><path fill="#a7735d" d="M27.29 550.18a34.2 34.2 0 0 0-2.2 9.06c-2 19.71 14.37 35.69 36.47 35.69s41.62-16 43.58-35.69a31.33 31.33 0 0 0-.4-9.06Z"></path></clipPath></defs><g clip-path="url(#a)"><path fill="#cfc5c0" d="M189.88 117.7 86.79 105.04l5.34-94.25 102.9 24.41-5.15 82.5z"></path><path fill="#fff" d="M192.8 114.91 88.95 101.68 94.29 7l103.68 25.08-5.17 82.83z"></path><path fill="#fd957b" d="m163.28 58.43 17.42 1.92-.15-17.25-17.45-2.18.18 17.51z"></path><path fill="#8c443c" d="M166.55 45.78h.15a10.47 10.47 0 0 1 3.62.22 17.73 17.73 0 0 0 2.71.32c.44 0 .88 0 1.3-.06a10.54 10.54 0 0 1 1.68 0 3.28 3.28 0 0 1 2.44 1.26.41.41 0 0 0 .42.14c.16 0 .22-.16.15-.27a4 4 0 0 0-3-1.56 11 11 0 0 0-1.82 0h-1.23a16.25 16.25 0 0 1-2.56-.31 11.59 11.59 0 0 0-3.93-.22c-.16 0-.24.15-.18.26a.37.37 0 0 0 .25.22ZM178.24 52.9h.14c.16 0 .25-.14.19-.26a4 4 0 0 0-1.65-2 3.82 3.82 0 0 0-1.52-.27 4.88 4.88 0 0 1-.88-.08 4.61 4.61 0 0 1-1-.45 3.83 3.83 0 0 0-1.71-.58 3.72 3.72 0 0 0-.84.1l-.36.07a5.91 5.91 0 0 1-1.94-.16l-2.74-.51a.29.29 0 0 0-.35.15c0 .11.09.23.27.27l2.74.51a6.9 6.9 0 0 0 2.23.17l.41-.08a2.54 2.54 0 0 1 .65-.09 3.29 3.29 0 0 1 1.31.48 5.91 5.91 0 0 0 1.24.52 5.05 5.05 0 0 0 1.07.11 3 3 0 0 1 1.15.19 3.66 3.66 0 0 1 1.35 1.75.35.35 0 0 0 .24.16Z"></path><path fill="#d1e7ef" d="m137.62 55.09 18.18 2.01-.19-17.62-18.2-2.28.21 17.89z"></path><path fill="#8c443c" d="M141.64 43.23a.44.44 0 0 0 .2 0 20.29 20.29 0 0 1 5.89-.62 5.84 5.84 0 0 1 2.23.29 7.23 7.23 0 0 1 1.21.67 5.42 5.42 0 0 0 1.94.92c.17 0 .32 0 .34-.16s-.09-.23-.26-.26a4.89 4.89 0 0 1-1.63-.79 7.74 7.74 0 0 0-1.35-.75 6.88 6.88 0 0 0-2.57-.35 20.72 20.72 0 0 0-6.13.66c-.15 0-.2.17-.11.28a.44.44 0 0 0 .24.11ZM150.93 47.05h.12c.17 0 .26-.13.22-.24-.44-1.11-1.82-1.51-2.83-1.72-2.12-.43-4.28-.83-6.42-1.17-.17 0-.32 0-.34.17s.1.23.28.25c2.12.34 4.27.73 6.37 1.16.91.19 2 .51 2.33 1.37a.36.36 0 0 0 .27.18ZM152.14 51.17h.05c.17 0 .31-.08.3-.2a2.45 2.45 0 0 0-1.76-1.84 7 7 0 0 0-1.46-.3 7.68 7.68 0 0 1-.88-.15 10 10 0 0 1-1.46-.49 7.66 7.66 0 0 0-2.41-.63 7.09 7.09 0 0 0-.8 0 2.4 2.4 0 0 1-1.6-.24.42.42 0 0 0-.44 0c-.12.08-.11.21 0 .3a3.16 3.16 0 0 0 2.16.4h.71a6.93 6.93 0 0 1 2.11.57 11.4 11.4 0 0 0 1.59.53c.33.07.65.12 1 .16a6.6 6.6 0 0 1 1.28.26 1.89 1.89 0 0 1 1.35 1.43c-.01.08.12.17.26.2ZM152.76 55.09A.34.34 0 0 0 153 55c.12-.08.09-.22 0-.3a6.89 6.89 0 0 0-2.91-1.28 6 6 0 0 0-1 0 5.3 5.3 0 0 1-.69 0 4.2 4.2 0 0 1-3.53-2.42.42.42 0 0 0-.4-.17c-.16 0-.26.13-.2.25a4.9 4.9 0 0 0 4.13 2.82 6.49 6.49 0 0 0 .77 0 4.41 4.41 0 0 1 .89 0 6.34 6.34 0 0 1 2.53 1.1.35.35 0 0 0 .17.09Z"></path><path fill="#f8e8e2" d="m109.96 47.17 18.88 4.62 2.33-17.53-18.82-4.89-2.39 17.8z"></path><path fill="#8c443c" d="M129.13 38.6a.37.37 0 0 0 .26 0c.12-.08.12-.21 0-.31a19.27 19.27 0 0 0-10.81-3.77c-1.69 0-2.8.43-3.12 1.33 0 .12.06.24.23.28s.34 0 .38-.12c.33-.92 1.58-1.08 2.57-1.06A18.4 18.4 0 0 1 129 38.53a.4.4 0 0 0 .13.07ZM127.35 41.15a.36.36 0 0 0 .3-.07c.09-.1 0-.23-.1-.31A29.74 29.74 0 0 0 119.3 38c-.69-.12-2.81-.5-3.84.65-.09.09 0 .23.12.3a.41.41 0 0 0 .43 0c.55-.63 1.58-.78 3.21-.49a29.05 29.05 0 0 1 8 2.65.28.28 0 0 0 .13.04ZM125.73 45.67a.3.3 0 0 0 .34-.13c0-.12-.07-.24-.24-.28a74.19 74.19 0 0 1-14.45-5.14.41.41 0 0 0-.43 0c-.09.1 0 .23.12.31a75 75 0 0 0 14.62 5.19Z"></path><path fill="#d5a48e" d="m135.13 79.66 18.19 3.02 1.22-17.4L136.37 62l-1.24 17.66z"></path><path fill="#8c443c" d="M150.61 68.47c.17 0 .32 0 .34-.16s-.09-.23-.27-.26l-11.05-2c-.18 0-.33 0-.35.15s.1.23.27.26l11 2ZM141.1 70.72l10.36 1.39c.18 0 .33-.06.34-.17s-.11-.23-.28-.26l-10.37-1.38c-.17 0-.32 0-.33.17s.11.22.28.25ZM151.73 76.07a.33.33 0 0 0 .33-.11c.06-.1 0-.24-.18-.29a57.11 57.11 0 0 0-10.65-2.54c-.17 0-.32.05-.33.17s.11.23.28.25a56.94 56.94 0 0 1 10.47 2.49ZM146 78.39c.79.13 1.58.24 2.37.34.17 0 .32 0 .33-.17s-.13-.22-.29-.25a84.92 84.92 0 0 1-11-2.19.33.33 0 0 0-.39.12c0 .11.06.23.23.28a83.66 83.66 0 0 0 8.75 1.87Z"></path><path fill="#f8e8e2" d="m105.89 71.82 18.73 5.64 3.82-17.18-18.63-5.9-3.92 17.44z"></path><path fill="#8c443c" d="M125.07 63.25a.31.31 0 0 0 .33-.11c.06-.11 0-.24-.19-.29-3.81-1.22-7.72-2.3-11.63-3.22-.19 0-.34 0-.38.13s.07.24.24.28c3.89.91 7.78 2 11.56 3.2ZM122 66.53a.33.33 0 0 0 .31-.09c.08-.1 0-.23-.14-.3-2.75-1.21-5.59-2.35-8.41-3.4a.36.36 0 0 0-.42.08c-.06.1 0 .23.17.29 2.82 1 5.63 2.19 8.38 3.39Z"></path><path fill="#d1e7ef" d="m164.03 84.36 17.26-.31-1.99-17.29-17.34.06 2.07 17.54z"></path><path fill="#8c443c" d="M164.85 69.92h.15a83.43 83.43 0 0 1 10.13-.08c.19 0 .35-.08.34-.21s-.15-.25-.35-.26a81.59 81.59 0 0 0-10.26.08c-.18 0-.31.12-.27.25a.35.35 0 0 0 .26.22ZM166.47 74.32a43.59 43.59 0 0 0 10.13.22c.19 0 .3-.14.25-.27a.43.43 0 0 0-.43-.2 42.17 42.17 0 0 1-9.9-.22c-.19 0-.35.06-.37.19s.13.25.32.28ZM165.9 80.24a.37.37 0 0 0 .18 0 23.93 23.93 0 0 1 7.28-.45c.2 0 .35-.07.35-.2s-.14-.24-.34-.27a24.24 24.24 0 0 0-7.57.47c-.18 0-.25.17-.18.3a.46.46 0 0 0 .28.15Z"></path><path fill="#d1e7ef" d="m106.89 98.93 19.02 2.79 1.25-17.78-19-3.06-1.27 18.05z"></path><path fill="#8c443c" d="M112.74 85.19c3.38.33 6.78.71 10.12 1.12.18 0 .33 0 .34-.17s-.13-.22-.3-.25c-3.35-.42-6.77-.8-10.15-1.12-.17 0-.32.06-.32.18s.15.21.31.24ZM112.41 87.8c3.32.16 6.67.47 10 .93.17 0 .32 0 .34-.17s-.11-.23-.29-.26c-3.33-.46-6.71-.77-10-.93-.18 0-.31.08-.3.2a.31.31 0 0 0 .25.23ZM112.81 90.42c3.33.26 6.7.54 10 .84.18 0 .32-.07.32-.18s-.14-.23-.31-.25c-3.31-.3-6.68-.58-10-.83-.17 0-.31.07-.31.19s.14.21.3.23ZM109.51 93.46a.45.45 0 0 0 .26 0 4 4 0 0 1 2.57-.27 99 99 0 0 1 12.3 2.4.32.32 0 0 0 .38-.13c0-.11-.07-.23-.24-.27a99.87 99.87 0 0 0-12.42-2.43 4.84 4.84 0 0 0-3 .36c-.12.08-.12.21 0 .31a.48.48 0 0 0 .15.03ZM123.63 98.22a.29.29 0 0 0 .35-.15c0-.11-.1-.23-.27-.26l-8.46-1.57c-.18 0-.33 0-.36.15s.1.23.27.27l8.46 1.56Z"></path><path fill="#cfc5c0" d="m146.47 136.48-15 118.69-75.76-4.34 16.85-130.87 73.91 16.52z"></path><path fill="#fff" d="m150.1 131.18-15.06 119.07-76.23-4.65 16.91-131.32 74.38 16.9z"></path><path fill="#9cc1cd" d="m119.36 178.42 14.14 3.94 2.67-18.52-14.08-4.25-2.73 18.83z"></path><path fill="#8c443c" d="M124.3 165.57a32.67 32.67 0 0 0 9-.07.21.21 0 1 0-.06-.42 32.66 32.66 0 0 1-8.89.07.21.21 0 0 0-.24.18.23.23 0 0 0 .19.24ZM125.25 169.5a29.74 29.74 0 0 1 6.81 1 .21.21 0 0 0 .11-.41 30.13 30.13 0 0 0-6.9-1 .21.21 0 0 0-.22.2.22.22 0 0 0 .2.21ZM131.61 175.43a.21.21 0 0 0 .24-.16.22.22 0 0 0-.15-.26l-7.61-1.82a.2.2 0 0 0-.25.15.21.21 0 0 0 .15.26l7.61 1.83Z"></path><path fill="#f8e8e2" d="m123 209.72 14.11 2.32 1.83-18.59-14.08-2.63-1.86 18.9z"></path><path fill="#8c443c" d="M132.76 195.73q2.07.33 4.14.54a.22.22 0 0 0 .23-.19.22.22 0 0 0-.19-.24 72 72 0 0 1-8.65-1.39.19.19 0 0 0-.25.16.21.21 0 0 0 .16.25c1.51.34 3.04.63 4.56.87ZM126.57 201.17h.05a19.92 19.92 0 0 1 8.8 1.2.21.21 0 0 0 .27-.13.21.21 0 0 0-.12-.27 20.63 20.63 0 0 0-9-1.23.22.22 0 0 0-.2.23.23.23 0 0 0 .2.2Z"></path><path fill="#f8e8e2" d="m97.96 205.6 14.92 2.46 1.89-19.12-14.89-2.78-1.92 19.44z"></path><path fill="#8c443c" d="M111 192.46a.22.22 0 0 0 .23-.12.21.21 0 0 0-.1-.28 14.59 14.59 0 0 0-8.11-1.5.21.21 0 0 0 0 .42 14.13 14.13 0 0 1 7.88 1.46ZM110.1 198a.2.2 0 0 0 .19-.07.22.22 0 0 0 0-.3 8.13 8.13 0 0 0-6.91-2.09.22.22 0 0 0-.17.25.23.23 0 0 0 .25.17 7.67 7.67 0 0 1 6.54 2 .22.22 0 0 0 .1.04ZM111.28 201.56a.2.2 0 0 0 .22-.12.21.21 0 0 0-.1-.28 25.63 25.63 0 0 0-7.6-2.21.21.21 0 1 0-.06.42 25.23 25.23 0 0 1 7.48 2.17ZM110.4 205.19a.21.21 0 1 0 .07-.42l-8.32-1.39a.21.21 0 1 0-.07.42l8.32 1.39Z"></path><path fill="#d1e7ef" d="m100.76 178.05 14.88 2.92 1.89-19.12-14.85-3.24-1.92 19.44z"></path><path fill="#8c443c" d="M105.7 163.43a62.72 62.72 0 0 1 9.3.19.21.21 0 0 0 .23-.19.19.19 0 0 0-.19-.23 62.21 62.21 0 0 0-9.36-.2.21.21 0 0 0-.2.22.2.2 0 0 0 .22.21ZM113.5 168.59a.21.21 0 0 0 .22-.1.21.21 0 0 0-.08-.29 12.76 12.76 0 0 0-8.09-1.72.21.21 0 1 0 .06.42 12.35 12.35 0 0 1 7.82 1.67ZM113.42 176.39a.22.22 0 0 0 .24-.17.2.2 0 0 0-.16-.25c-3.64-.73-7.33-1.63-11-2.67a.21.21 0 1 0-.11.41c3.65 1 7.36 1.94 11 2.67Z"></path><path fill="#d5a48e" d="m78.03 168.63 14.98 6.87 4.85-18.59-14.85-7.17-4.98 18.89z"></path><path fill="#8c443c" d="M93.45 163a.21.21 0 0 0 .24-.18 2.16 2.16 0 0 0-1.21-2.33 2.49 2.49 0 0 0-1.38.08c-.54.13-1 .24-1.38-.1a3 3 0 0 1-.4-.58 3.55 3.55 0 0 0-.35-.54 2.77 2.77 0 0 0-1.19-.75l-3.87-1.6a.22.22 0 0 0-.28.12.22.22 0 0 0 .12.28l3.87 1.6a2.48 2.48 0 0 1 1 .63 3.6 3.6 0 0 1 .3.48 3 3 0 0 0 .48.68 1.77 1.77 0 0 0 1.77.2 2.31 2.31 0 0 1 1.15-.09 1.78 1.78 0 0 1 .92 1.87.21.21 0 0 0 .21.23ZM91.4 167.54a.21.21 0 0 0 .22-.12 1.7 1.7 0 0 0-.45-2 1.76 1.76 0 0 0-1.15-.21 1.52 1.52 0 0 1-.83-.1 2.27 2.27 0 0 1-.53-.47l-.16-.18a3.5 3.5 0 0 0-3.11-1.15.21.21 0 0 0-.18.24.22.22 0 0 0 .25.18 3.06 3.06 0 0 1 2.73 1l.16.17a2.5 2.5 0 0 0 .64.57 2 2 0 0 0 1.06.15 1.39 1.39 0 0 1 .89.13 1.31 1.31 0 0 1 .3 1.48.22.22 0 0 0 .1.29Z"></path><path fill="#f8e8e2" d="m69.12 202.1 16.01-.01-.12-19.93-16.04-.34.15 20.28z"></path><path fill="#8c443c" d="M72.58 186.48a.14.14 0 0 0 .09 0 12.63 12.63 0 0 1 8.13.54.22.22 0 0 0 .28-.12.22.22 0 0 0-.12-.28 13.18 13.18 0 0 0-8.4-.55.22.22 0 0 0-.15.26.2.2 0 0 0 .17.15ZM73.54 190.19a.2.2 0 0 0 .23-.19c0-.33.47-.36.66-.36a18.08 18.08 0 0 1 5.84 1.06.22.22 0 0 0 .28-.13.21.21 0 0 0-.13-.27 18.2 18.2 0 0 0-6-1.08c-.62 0-1 .28-1.08.74a.21.21 0 0 0 .2.23ZM71.37 196.93h.08l5.55-1.38c.24-.06.36-.05.43 0a1 1 0 0 1 .12.63 1.37 1.37 0 0 0 .22.91c.3.34.7.18 1 .07s.41-.15.53-.08a1 1 0 0 1 .2.26c.07.09.13.19.2.27.53.56 1.19.11 1.72-.25s.91-.59 1.2-.36.34 1 .3 1.53a.22.22 0 0 0 .43 0 2.25 2.25 0 0 0-.47-1.89c-.55-.45-1.19 0-1.7.34s-.91.57-1.17.3a1.49 1.49 0 0 1-.15-.2 1.1 1.1 0 0 0-.33-.38 1 1 0 0 0-.92 0c-.31.13-.42.15-.51.05a1.1 1.1 0 0 1-.11-.64 1.31 1.31 0 0 0-.25-.92.82.82 0 0 0-.83-.13l-5.57 1.38a.21.21 0 0 0-.16.25.22.22 0 0 0 .19.24Z"></path><path fill="#9cc1cd" d="m73.94 224.27 15.69 2.2 1.94-19.58-15.66-2.53-1.97 19.91z"></path><path fill="#8c443c" d="M88.55 213.17a.22.22 0 0 0 .24-.14 1.89 1.89 0 0 0-.66-1.84c-.37-.39-1.47-1.58-2.45-.93a2.17 2.17 0 0 0-.36.31 2.39 2.39 0 0 1-.23.22c-.74.58-1.74-.1-2-.32l-.61-.51a4.8 4.8 0 0 0-1.56-1.06 1.74 1.74 0 0 0-1.49.15 1.62 1.62 0 0 0-.77 1.17.21.21 0 0 0 .18.24.24.24 0 0 0 .24-.18 1.17 1.17 0 0 1 .57-.86 1.33 1.33 0 0 1 1.13-.12 4.55 4.55 0 0 1 1.42 1 7.81 7.81 0 0 0 .64.53 1.81 1.81 0 0 0 2.82.07 2.26 2.26 0 0 1 .29-.26c.46-.3 1.08 0 1.9.87.51.55.71 1 .58 1.42a.2.2 0 0 0 .13.26ZM90 218.09a.21.21 0 0 0 .16-.25 3.16 3.16 0 0 0-1.65-2c-2.31-1.39-5-1.64-7.39-1.87a12.12 12.12 0 0 0-2.26-.07.21.21 0 1 0 0 .42 12.2 12.2 0 0 1 2.18.08c2.45.23 5 .47 7.22 1.8a2.78 2.78 0 0 1 1.44 1.74.23.23 0 0 0 .3.15ZM85.31 220.82a3.53 3.53 0 0 0 2.52-.41.22.22 0 0 0 .07-.3.22.22 0 0 0-.3-.06c-1.18.74-2.6.35-4.06-.14l-5.48-1.86a.21.21 0 1 0-.13.4l5.47 1.86a11.07 11.07 0 0 0 1.91.51Z"></path><path fill="#cfc5c0" d="m268.91 149.85-11.73 92.78-59.21-3.4 13.16-102.28 57.78 12.9z"></path><path fill="#fff" d="m271.75 145.72-11.78 93.06-59.58-3.64L213.6 132.5l58.15 13.22z"></path><path fill="#f8e8e2" d="m212.89 218.64 12.53 2.54 1.45-14.61-12.51-2.82-1.47 14.89z"></path><path fill="#8c443c" d="M218.56 211.13a1.67 1.67 0 0 0 .59 0 2.81 2.81 0 0 0 1.34-1 3.51 3.51 0 0 1 .95-.79c1-.48 2.19.3 3.11 1a.15.15 0 0 0 .21 0 .14.14 0 0 0 0-.2c-1-.79-2.27-1.63-3.42-1.08a3.85 3.85 0 0 0-1 .86 2.53 2.53 0 0 1-1.18.87 2.65 2.65 0 0 1-1.85-.62 7.8 7.8 0 0 0-.79-.44.15.15 0 1 0-.13.26c.25.12.51.28.76.43a4.35 4.35 0 0 0 1.41.71ZM224.09 214.11a1 1 0 0 0 .67-.11.15.15 0 0 0 .05-.2.15.15 0 0 0-.2-.06c-.46.25-1-.09-1.52-.45a3.08 3.08 0 0 0-1.45-.64 2.37 2.37 0 0 0-.75.14l-.32.09a2.55 2.55 0 0 1-2.49-1 .16.16 0 0 0-.21 0 .14.14 0 0 0 0 .2 2.88 2.88 0 0 0 2.79 1.15l.35-.1a1.91 1.91 0 0 1 .65-.12 2.63 2.63 0 0 1 1.29.59 3.33 3.33 0 0 0 1.14.51ZM221.63 217.19a.14.14 0 0 0 .16-.09.14.14 0 0 0-.07-.19 13.2 13.2 0 0 0-5.78-1.21.15.15 0 0 0-.15.15.14.14 0 0 0 .15.14 13.09 13.09 0 0 1 5.66 1.19Z"></path><path fill="#fd957b" d="m241.02 185.08 14.3-.94-1.57-16.59-14.39.64 1.66 16.89z"></path><path fill="#8c443c" d="M242.09 172.85a.18.18 0 0 0 .14 0c.45-.43 1.1-.28 1.79-.13a5.86 5.86 0 0 0 .82.14 5.3 5.3 0 0 0 2.13-.38c.19-.06.38-.13.58-.18a2.66 2.66 0 0 1 2.49.24.17.17 0 0 0 .23 0 .16.16 0 0 0 0-.23 3 3 0 0 0-2.78-.29l-.59.18a4.89 4.89 0 0 1-2 .37 5.57 5.57 0 0 1-.78-.14c-.74-.16-1.51-.33-2.09.21a.17.17 0 0 0 0 .23.13.13 0 0 0 .06-.02ZM244.61 178.2a.14.14 0 0 0 .09 0 4.83 4.83 0 0 1 4.53.2.16.16 0 0 0 .23-.06.17.17 0 0 0-.06-.22 5.17 5.17 0 0 0-4.84-.21.16.16 0 0 0-.07.22.15.15 0 0 0 .12.07ZM244.07 182h.06a67.4 67.4 0 0 1 8.89-1.33.16.16 0 0 0 .15-.17.16.16 0 0 0-.17-.15 66.29 66.29 0 0 0-8.94 1.34.15.15 0 0 0-.12.19.15.15 0 0 0 .13.12ZM242.64 175.85a36 36 0 0 0 7.22-1.58.16.16 0 0 0 .1-.2.17.17 0 0 0-.2-.11 36.21 36.21 0 0 1-7.15 1.57.17.17 0 0 0-.15.18.16.16 0 0 0 .18.14Z"></path><path fill="#f8e8e2" d="m217.03 175.07 15.29 1.72.49-17.02-15.31-2.06-.47 17.36z"></path><path fill="#8c443c" d="M221.09 161.51a53.07 53.07 0 0 0 10.44.35.16.16 0 0 0 .15-.17.15.15 0 0 0-.17-.15 52.49 52.49 0 0 1-10.38-.35.15.15 0 0 0-.18.13.18.18 0 0 0 .14.19ZM220.12 163.94a24 24 0 0 1 9 .58.15.15 0 0 0 .19-.12.17.17 0 0 0-.12-.2 24.6 24.6 0 0 0-9.07-.58.17.17 0 0 0-.14.18.17.17 0 0 0 .14.14ZM220.51 167.5a52 52 0 0 1 8.46.24.16.16 0 0 0 .18-.14.16.16 0 0 0-.14-.18 52.47 52.47 0 0 0-8.5-.24.17.17 0 0 0-.16.17.18.18 0 0 0 .16.15ZM222.13 171.74a27.45 27.45 0 0 0 7.4.17.17.17 0 0 0 .15-.18.16.16 0 0 0-.18-.14 27.06 27.06 0 0 1-8.26-.34.16.16 0 0 0-.19.13.16.16 0 0 0 .13.19Z"></path><path fill="#d1e7ef" d="m231.69 200.68 14.25 4.74 3.58-15.92-14.15-5.04-3.68 16.22z"></path><path fill="#8c443c" d="M246.87 192.44h.12a.16.16 0 0 0 0-.23 5.75 5.75 0 0 0-3.42-1.79 61.32 61.32 0 0 1-7.53-2.47.15.15 0 0 0-.21.09.17.17 0 0 0 .09.21 62.37 62.37 0 0 0 7.56 2.48 5.39 5.39 0 0 1 3.25 1.67.19.19 0 0 0 .14.04ZM244.78 194.56l.54.08a.16.16 0 0 0 .05-.32 49.66 49.66 0 0 1-9.05-2.24.16.16 0 0 0-.1.31 50.44 50.44 0 0 0 8.56 2.17Z"></path><path fill="#f8e8e2" d="m231.82 231.94 12.7 2.15 1.45-14.69-12.67-2.42-1.48 14.96z"></path><path fill="#8c443c" d="M234.54 226.33a.2.2 0 0 0 .11 0c.47-.39 1.09-.14 1.73.12a5.53 5.53 0 0 0 1 .34 4.19 4.19 0 0 0 1.23 0h.27a15.63 15.63 0 0 1 3.42.11.15.15 0 0 0 .16-.14.14.14 0 0 0-.13-.16 15.56 15.56 0 0 0-3.48-.1h-.28a3.31 3.31 0 0 1-1.13 0 4.41 4.41 0 0 1-.93-.31c-.7-.29-1.43-.58-2-.08a.14.14 0 0 0 0 .21.19.19 0 0 0 .03.01ZM238.91 225.71a6.41 6.41 0 0 0 3.28-.31.14.14 0 0 0 .09-.19.15.15 0 0 0-.19-.08 6.43 6.43 0 0 1-5.14-.37.15.15 0 0 0-.2.07.15.15 0 0 0 .07.19 6.76 6.76 0 0 0 2.09.69Z"></path><path fill="#d1e7ef" d="m214.03 198.94 15.27 2.59 1.66-16.82-15.24-2.92-1.69 17.15z"></path><path fill="#8c443c" d="M218.81 190.21a.14.14 0 0 0 .15-.06c.71-.86 2-.77 3.22-.54l7 1.28a.16.16 0 0 0 .19-.13.16.16 0 0 0-.13-.18l-7-1.29c-1.34-.24-2.71-.34-3.53.66a.17.17 0 0 0 0 .23ZM217.89 194a31.56 31.56 0 0 1 10.82.8.17.17 0 0 0 .2-.12.16.16 0 0 0-.12-.2 32.22 32.22 0 0 0-10.93-.8.16.16 0 0 0-.14.17.15.15 0 0 0 .17.15ZM218 192.66l7.28-.07a.16.16 0 0 0 .16-.16.16.16 0 0 0-.16-.16l-7.28.07a.16.16 0 0 0-.16.16.16.16 0 0 0 .16.16Z"></path><g clip-path="url(#b)" data-name="10"><path fill="#d1e7ef" d="M410.99 418.69h-74.84L379-57.76h74.83l-42.84 476.45z"></path><path fill="#b3d5dd" d="m336.15 418.69-23.76-18.66 41.17-457.79H379l-42.85 476.45z"></path><path fill="#e5f5f9" d="m447.51-.58-1 10.92h-35.57l1-10.92Zm1.29-1.17h-37.95l-1.2 13.27h38l1.2-13.27ZM445.35 23.41l-1 10.93h-35.57l1-10.93Zm1.29-1.17h-37.95l-1.19 13.27h37.95l1.19-13.27ZM443.2 47.32l-1 10.93h-35.57l1-10.93Zm1.29-1.17h-37.95l-1.19 13.27h37.94l1.2-13.27ZM441.05 71.31l-1 10.93h-35.58l1-10.93Zm1.28-1.17h-37.95l-1.19 13.27h37.95l1.19-13.27ZM438.9 95.19l-1 10.92h-35.57l1-10.92Zm1.28-1.19h-37.94L401 107.28h38L440.18 94ZM436.74 119.18l-1 10.92h-35.57l1-10.92ZM438 118h-37.92l-1.2 13.28h37.95L438 118ZM434.59 143.09l-1 10.92H398l1-10.92Zm1.29-1.17h-37.95l-1.2 13.27h37.95l1.2-13.27ZM432.43 167.08l-1 10.93h-35.57l1-10.93Zm1.29-1.17h-38l-1.19 13.27h37.94l1.2-13.27ZM430.28 191l-1 10.93h-35.57l1-10.93Zm1.29-1.17h-37.95l-1.19 13.27h37.94l1.2-13.27ZM428.13 215l-1 10.92h-35.58l1-10.92Zm1.28-1.18h-38l-1.19 13.27h38l1.19-13.27ZM426 238.88l-1 10.93h-35.6l1-10.93Zm1.28-1.17h-37.97L388.12 251h37.95l1.19-13.27ZM423.82 262.88l-1 10.92h-35.6l1-10.92Zm1.28-1.18h-38L386 275h38l1.19-13.27ZM421.67 286.79l-1 10.92h-35.6l1-10.92Zm1.28-1.18H385l-1.19 13.27h37.95l1.24-13.27ZM419.51 310.78l-1 10.92h-35.57l1-10.92Zm1.28-1.17h-37.94l-1.2 13.27h38l1.19-13.27ZM417.36 334.69l-1 10.93h-35.57l1-10.93Zm1.28-1.17H380.7l-1.2 13.27h37.95l1.19-13.27ZM415.2 358.68l-1 10.93h-35.57l1-10.93Zm1.29-1.17h-37.95l-1.19 13.27h37.94l1.2-13.27ZM413.05 382.59l-1 10.93h-35.57l1-10.93Zm1.29-1.17h-37.95l-1.2 13.27h37.95l1.2-13.27ZM410.9 406.59l-1 10.92h-35.58l1-10.92Zm1.28-1.18h-37.95L373 418.68h38l1.2-13.27Z"></path><path fill="#e5f5f9" d="m410.63-.58-1 10.92h-35.6L375-.58Zm1.28-1.17H374l-1.19 13.27h38L412-1.75ZM408.47 23.41l-1 10.93H371.9l1-10.93Zm1.28-1.17h-37.94l-1.2 13.27h37.95l1.19-13.27Z"></path><path fill="#e5f5f9" d="m428 11.39-1 10.93h-35.58l1-10.93Zm1.29-1.17h-37.96l-1.19 13.27h37.94l1.2-13.27ZM425.84 35.35l-1 10.92h-35.6l1-10.92Zm1.28-1.18h-37.95L388 47.44h37.95l1.19-13.27Z"></path><path fill="#e5f5f9" d="m406.32 47.32-1 10.93h-35.57l1-10.93Zm1.28-1.17h-37.94l-1.2 13.27h38l1.19-13.27ZM404.16 71.31l-1 10.93h-35.57l1-10.93Zm1.29-1.17H367.5l-1.2 13.27h37.95l1.2-13.27Z"></path><path fill="#e5f5f9" d="m423.69 59.3-1 10.92h-35.58l1-10.92Zm1.31-1.18h-38l-1.17 13.28h37.94L425 58.12ZM421.53 83.25l-1 10.92H385l1-10.92Zm1.28-1.17h-37.94l-1.2 13.27h37.95l1.19-13.27Z"></path><path fill="#e5f5f9" d="m402 95.19-1 10.92h-35.56l1-10.92Zm1.3-1.19h-37.95l-1.19 13.27h37.94L403.3 94ZM399.86 119.18l-1 10.92h-35.6l1-10.92Zm1.28-1.18h-37.95L362 131.28h38l1.14-13.28Z"></path><path fill="#e5f5f9" d="m419.38 107.16-1 10.93h-35.57l1-10.93Zm1.28-1.17h-37.94l-1.2 13.27h38l1.14-13.26ZM417.23 131.11l-1 10.93h-35.58l1-10.93Zm1.28-1.17h-37.95l-1.19 13.27h37.95l1.19-13.27Z"></path><path fill="#e5f5f9" d="m397.71 143.09-1 10.92h-35.58l1-10.92Zm1.28-1.17H361l-1.19 13.27h37.99l1.2-13.27ZM395.55 167.08l-1 10.93H359l1-10.93Zm1.28-1.17h-37.95l-1.19 13.27h37.95l1.19-13.27Z"></path><path fill="#e5f5f9" d="m415.07 155.07-1 10.92H378.5l1-10.92Zm1.29-1.18h-37.95l-1.2 13.27h38l1.2-13.27ZM412.92 179l-1 10.92h-35.6l1-10.92Zm1.28-1.18h-37.95l-1.19 13.27H413l1.19-13.27Z"></path><path fill="#e5f5f9" d="m393.4 191-1 10.93h-35.6l1-10.93Zm1.28-1.17h-37.95l-1.19 13.27h37.95l1.19-13.27ZM391.24 215l-1 10.92h-35.57l1-10.92Zm1.28-1.18h-37.94l-1.2 13.27h37.95l1.19-13.27Z"></path><path fill="#e5f5f9" d="m410.76 203-1 10.92h-35.57l1-10.92Zm1.29-1.17H374.1l-1.19 13.27h37.94l1.2-13.27ZM408.61 226.92l-1 10.93H372l1-10.93Zm1.28-1.17H372L370.75 239h37.95l1.19-13.27Z"></path><path fill="#e5f5f9" d="m389.09 238.88-1 10.93h-35.57l1-10.93Zm1.29-1.17h-37.95l-1.2 13.29h37.95l1.2-13.27ZM386.93 262.88l-1 10.92h-35.57l1-10.92Zm1.29-1.18h-38l-1.14 13.3H387l1.2-13.27Z"></path><path fill="#e5f5f9" d="m406.46 250.86-1 10.92h-35.6l1-10.92Zm1.28-1.17h-37.95L368.6 263h37.95l1.19-13.27ZM404.3 274.81l-1 10.93h-35.57l1-10.93Zm1.29-1.17h-37.95l-1.19 13.27h37.94l1.2-13.27Z"></path><path fill="#e5f5f9" d="m384.78 286.79-1 10.92h-35.57l1-10.92Zm1.29-1.18h-37.95l-1.19 13.27h37.94l1.2-13.27ZM382.63 310.78l-1 10.92h-35.58l1-10.92Zm1.28-1.17H346l-1.19 13.27h38l1.19-13.27Z"></path><path fill="#e5f5f9" d="m402.15 298.76-1 10.93h-35.57l1-10.93Zm1.28-1.17h-37.95l-1.19 13.27h37.95l1.19-13.27ZM400 322.71l-1 10.93h-35.58l1-10.93Zm1.28-1.17h-37.95l-1.19 13.27h37.95l1.19-13.27Z"></path><path fill="#e5f5f9" d="m380.48 334.69-1 10.93H343.9l1-10.93Zm1.28-1.17h-37.95l-1.19 13.27h37.95l1.19-13.27ZM378.32 358.68l-1 10.93h-35.6l1-10.93Zm1.28-1.17h-38l-1.19 13.27h38l1.19-13.27Z"></path><path fill="#e5f5f9" d="m397.84 346.67-1 10.92h-35.57l1-10.92Zm1.28-1.18h-37.94L360 358.76h37.95l1.19-13.27ZM395.69 370.62l-1 10.92h-35.58l1-10.92Zm1.28-1.17H359l-1.19 13.27h37.95l1.24-13.27Z"></path><path fill="#e5f5f9" d="m376.17 382.59-1 10.93h-35.6l1-10.93Zm1.28-1.17H339.5l-1.19 13.27h37.95l1.19-13.27ZM374 406.59l-1 10.92h-35.56l1-10.92Zm1.28-1.18h-37.93l-1.2 13.27h38l1.19-13.27Z"></path><path fill="#e5f5f9" d="m393.53 394.57-1 10.93H357l1-10.93Zm1.29-1.17h-37.95l-1.19 13.27h37.94l1.2-13.27Z"></path></g><g data-name="11"><g data-name="10"><path fill="#edddd9" d="M1175.09 530.11a1.24 1.24 0 0 0 .13-2.47l-684-76.31a1.24 1.24 0 0 0-.27 2.47l684 76.3ZM1175.09 500.06a1.24 1.24 0 0 0 .13-2.47l-684-76.31a1.24 1.24 0 0 0-.27 2.47l684 76.3ZM1175.09 469.49a1.24 1.24 0 0 0 .13-2.47l-684-76.31a1.24 1.24 0 1 0-.27 2.46l684 76.31ZM1175.09 438.65a1.24 1.24 0 0 0 .13-2.47l-684-76.31a1.24 1.24 0 1 0-.27 2.46l684 76.31ZM1175.09 559.09a1.24 1.24 0 0 0 .15-2.47l-794-95.79a1.26 1.26 0 0 0-1.37 1.09 1.24 1.24 0 0 0 1.08 1.38l794 95.78ZM1175.09 587.35a1.24 1.24 0 0 0 .15-2.47l-1019.75-123a1.24 1.24 0 0 0-.3 2.47l1019.75 123ZM940.83 587.35a1.24 1.24 0 0 0 .15-2.47L23.87 474.25a1.22 1.22 0 0 0-1.38 1.08 1.24 1.24 0 0 0 1.08 1.38l917.11 110.63ZM706.58 587.35a1.24 1.24 0 0 0 .15-2.47L23.87 502.5a1.24 1.24 0 0 0-.3 2.47l682.86 82.37ZM405.32 587.35a1.24 1.24 0 0 0 .15-2.47l-381.6-46a1.25 1.25 0 0 0-1.38 1.09 1.24 1.24 0 0 0 1.08 1.38l381.6 46Z"></path><path fill="#edddd9" d="M500 476.62a1.24 1.24 0 0 0 .15-2.47l-381.6-46a1.24 1.24 0 0 0-.3 2.46l381.6 46ZM458.23 442.57a1.24 1.24 0 0 0 .15-2.47l-381.6-46a1.26 1.26 0 0 0-1.38 1.09 1.24 1.24 0 0 0 1.08 1.38l381.6 46ZM102.39 587.35a1.24 1.24 0 0 0 .15-2.47l-78.67-9.49a1.24 1.24 0 0 0-.3 2.46l78.67 9.49Z"></path></g><g data-name="11"><g clip-path="url(#c)"><path fill="#e4f3f7" d="M438.44 366.99h-66.79l28.49-236.21h66.78l-28.48 236.21z"></path><path fill="#daedf2" d="M607.75 366.99h-96.92l24-198.94h96.91l-23.99 198.94z"></path><path fill="#e4f3f7" d="M531.73 365.39h-68.22l35.33-292.92h68.22l-35.33 292.92z"></path><path fill="#e4f3f7" d="M488.28 72.47h90.45l-18.6-13.69h-49l-22.85 13.69zM511.13 58.78l27.78-35.77 21.22 35.77h-49z"></path><path fill="#daedf2" d="M575.34 101.23h51.2l-7.87 66.82h-51.2l7.87-66.82z"></path></g><path fill="#eefcff" d="M1200 .01H831.63L787.8 371.98h386.47L1200 153.59V.01z"></path><path fill="#e1f4f9" d="m1133.77 137.73 25.85.34 13.04-110.71-26.02 1.13-12.87 109.24zM1088.43 137.13l24.64.33 12.73-108.07-24.8 1.08-12.57 106.66zM1047.19 136.59l23.56.31 12.45-105.65-23.72 1.02-12.29 104.32zM1007.73 136.07l22.54.3 12.18-103.35-22.7.98-12.02 102.07zM969.92 135.58l21.61.28 11.91-101.15-21.74.94-11.78 99.93zM933.68 135.1l20.71.27 11.67-99.04-20.85.91-11.53 97.86zM898.9 134.65l19.88.26 11.43-97.02-20.01.87-11.3 95.89zM865.5 134.21l19.1.25 11.2-95.07-19.23.83-11.07 93.99zM833.4 133.78l18.36.25 10.98-93.21-18.48.81-10.86 92.15zM1118.89 264.05l25.65 2.04 13.04-110.71-25.82-.57-12.87 109.24zM1073.9 260.47l24.44 1.95 12.74-108.07-24.61-.54-12.57 106.66zM1032.98 257.22l23.37 1.86 12.45-105.66-23.53-.52-12.29 104.32zM993.82 254.11l22.37 1.78 12.18-103.36-22.52-.5-12.03 102.08zM956.31 251.12l21.44 1.71 11.91-101.15-21.58-.48-11.77 99.92zM920.35 248.26l20.55 1.64 11.67-99.04-20.69-.46-11.53 97.86zM885.84 245.52l19.73 1.57L917 150.07l-19.87-.43-11.29 95.88zM852.7 242.89l18.95 1.5 11.2-95.07-19.08-.42-11.07 93.99zM820.84 240.35l18.22 1.45 10.98-93.2-18.34-.41-10.86 92.16zM1106.88 365.96l26.01-1 9.41-79.84-25.62-2.3-9.8 83.14zM1061.05 369.57l24.25 3.59 10.86-92.17-24.42-2.19-10.69 90.77zM1020.07 366.75l23.2 3.43 10.94-92.94-23.34-2.09-10.8 91.6zM980.34 368.54l22.19 3.28 11.57-98.17-22.35-2-11.41 96.89zM942.51 368.22l21.27 3.14 11.92-101.15-21.41-1.91-11.78 99.92zM906.84 362.94l20.39 3.02 11.67-99.04-20.53-1.84-11.53 97.86zM872.6 357.88l19.57 2.9 11.43-97.02-19.7-1.76-11.3 95.88zM839.72 353.02l18.8 2.78 11.2-95.07-18.93-1.69-11.07 93.98zM808.12 348.35l18.07 2.67 10.98-93.2-18.19-1.63-10.86 92.16z"></path><path fill="#dceff4" d="m1200 92.2-32.14 272.76h7.24l24.9-211.37V92.2z"></path><path fill="#daedf2" d="M1029.19 364.96h7.24L1079.42.01h-7.23l-43 364.95zM890.52 364.96h7.23l43-364.95h-7.23l-43 364.95zM751.85 364.96h7.24L802.08.01h-7.23l-43 364.95zM613.18 364.96h7.23l43-364.95h-7.23l-43 364.95zM474.51 364.96h7.23l43-364.95h-7.23l-43 364.95z"></path><path fill="#dceff4" d="M473.69 371.98h700.58l.83-7.02H474.51l-.82 7.02z"></path></g></g><g data-name="8"><path fill="#fcba61" d="M760.47 552.06c-6 3.13-11.63 6.93-15.75 12s-6.58 12.11-5.51 18.67l38.41-12.58-11.5-20.69c-1.12 1.24-4.35 1.93-5.65 2.6Z"></path><path fill="#e08c48" d="m725.85 564.82 10.62 18.84 2.74-.89c-1.07-6.56 1.29-13.44 5.51-18.67s9.79-8.91 15.75-12c1.3-.67 4.51-1.36 5.65-2.56L762 542Z"></path><path fill="#321717" d="m776.63 572-17.08-30.29a1.17 1.17 0 0 1 1-1.75l4-.16a2.13 2.13 0 0 1 1.93 1l15.08 26.73a1.7 1.7 0 0 1-.22 2l-2.56 2.72a1.4 1.4 0 0 1-2.15-.25Z"></path><path fill="#321717" d="M780.29 565.57 767.54 543l2.12-1c1.31-.59 3.16.33 4.14 2.06l9.29 16.28c1 1.74.73 3.64-.59 4.23Z"></path><path fill="#321717" d="m784.61 555.25-6-.93 3.39 5.92 4.05-1.49a.73.73 0 0 0 .39-1.07l-1.1-1.93a1.06 1.06 0 0 0-.73-.5Z"></path><path fill="#a7735d" d="m764.09 575.15-12.62-22-.08.06a23.35 23.35 0 0 0-6.5 7.27 17.32 17.32 0 0 0-2.09 8.83l6.2 10.77a1.09 1.09 0 0 0 1.25.49l13.33-4.13a.87.87 0 0 0 .51-1.29Z"></path><path fill="#8e5d4c" d="M744.89 560.46a23.35 23.35 0 0 1 6.5-7.27l.08-.06-2-3.4a1.08 1.08 0 0 0-1.48-.38l-11.53 7.26a.86.86 0 0 0-.29 1.19l6.59 11.49a17.32 17.32 0 0 1 2.13-8.83Z"></path><path fill="#f8e8e2" d="M773 586.28c-2.11-1.49-1.53-4.69-2.94-6.84a5.94 5.94 0 0 0-5.44-2.29 21.84 21.84 0 0 0-5.54 1.71 9.08 9.08 0 0 1-5.8.55c-2.45-.75-4.24-2.95-6.32-4.53s-5.35-2.43-6.72-.53c-.6.83-.75 2.08-1.71 2.47a3.86 3.86 0 0 1-1.6.1 6.4 6.4 0 0 0-5.88 2.92 6.17 6.17 0 0 0 .54 6.74c.74 1 1.76 1.73 2.45 2.74 1.14 1.68 1.24 3.84 2.47 5.46 1.82 2.4 5.3 2.64 8 1.94s5.22-2.06 8.09-1.94c3.38.15 6.4 1.78 9.81 1.37a35.85 35.85 0 0 0 6.48-1.13 13.1 13.1 0 0 0 5-3.3c.82-.78 2.45-2 2-3.41-.42-1.15-1.97-1.41-2.89-2.03Z"></path><path fill="#d5a48e" d="m744.64 589.15.32-.79c-1.6-.64-3.13-1.41-3.54-2.77a3.23 3.23 0 0 1 .72-2.81 9.15 9.15 0 0 1 1.73-1.84c.62-.49 1.9-1.14 2.74-.41a3.12 3.12 0 0 1 .71 2.18v.27c.1 1.11.64 2.49 1.84 2.72a2.56 2.56 0 0 0 .88 0h.13a6.24 6.24 0 0 1 3.25.48 15.25 15.25 0 0 1 2.09 1.19c.47.31 1 .62 1.45.89.92.5 2.7 1.25 4.2.58a4.67 4.67 0 0 0 2.19-2.78 25.06 25.06 0 0 0 1.6-6.57l-.85-.09a23.73 23.73 0 0 1-1.55 6.34 3.88 3.88 0 0 1-1.74 2.32c-1.16.52-2.66-.12-3.44-.55-.48-.26-.94-.56-1.4-.85a14.52 14.52 0 0 0-2.21-1.26 7.2 7.2 0 0 0-3.69-.55h-.14a2.54 2.54 0 0 1-.61 0c-.68-.13-1.07-1.08-1.15-2v-.26a3.76 3.76 0 0 0-1-2.75c-1.19-1-2.81-.43-3.83.38a9.84 9.84 0 0 0-1.9 2 4 4 0 0 0-.84 3.55c.51 1.77 2.33 2.7 4.04 3.38Z"></path><path fill="#897d77" d="M786.21 597.09h-63l-3.9-107.4h91.87Zm-60.21-2.9h57.9l23.59-101.59h-85.21Z"></path><path fill="#897d77" d="M758.64 469.9h1.45v91.36h-1.45z" transform="rotate(-57.3 765.718 517.536)"></path><path fill="#897d77" d="M767.29 473.42h1.45v75.5h-1.45z" transform="rotate(-57.96 768.041 511.17)"></path><path fill="#897d77" d="M775.86 477.1h1.45v59.83h-1.45z" transform="rotate(-58 775.159 505.288)"></path><path fill="#897d77" d="M783.69 480.18h1.45v45.63h-1.45z" transform="rotate(-57.96 784.438 502.992)"></path><path fill="#897d77" d="M792.43 483.93h1.45v29.64h-1.45z" transform="rotate(-58 791.713 497.03)"></path><path fill="#897d77" d="M800.3 487.59h1.45v15.15h-1.45z" transform="rotate(-57.96 801.056 495.16)"></path><path fill="#897d77" d="M755.48 512.03h1.45v80.26h-1.45z" transform="rotate(-57.88 756.248 552.173)"></path><path fill="#897d77" d="M756.27 501.65h1.45v82.96h-1.45z" transform="rotate(-58 754.306 541.17)"></path><path fill="#897d77" d="M757.01 491.91h1.45v85.49h-1.45z" transform="rotate(-57.88 757.752 534.656)"></path><path fill="#897d77" d="M757.81 481.31h1.45v88.24h-1.45z" transform="rotate(-57.88 758.573 525.44)"></path><path fill="#897d77" d="M743.34 558.7h1.45v48.24h-1.45z" transform="rotate(-57.88 744.118 582.824)"></path><path fill="#897d77" d="M736.48 571.71h1.45v31.25h-1.45z" transform="rotate(-57.88 737.261 587.345)"></path><path fill="#897d77" d="M730.51 583.67h1.45v15.63h-1.45z" transform="rotate(-57.88 731.239 591.489)"></path><path fill="#897d77" d="M750.76 544.64h1.45v66.59h-1.45z" transform="rotate(-57.88 751.503 577.945)"></path><path fill="#897d77" d="M753.84 533.61h1.45v74.66h-1.45z" transform="rotate(-57.88 754.573 570.941)"></path><path fill="#897d77" d="M754.65 523.01h1.45v77.41h-1.45z" transform="rotate(-57.88 755.408 561.721)"></path></g><g data-name="6"><g data-name="2"><path fill="#8c443c" d="M607.87 600h-2.14l18.88-219.5 2.13.19L607.87 600z"></path><path fill="#8c443c" d="M640.03 488.39h218.56v2.14H640.03z" transform="rotate(-85.02 749.282 489.466)"></path><path fill="#8c443c" d="M164.8 469.03h242.26v1.42H164.8z" transform="matrix(.09 -1 1 .09 -206.82 713.89)"></path><path fill="#8c443c" d="M308.07 459.33h223.51v2.14H308.07z" transform="rotate(-85.02 419.803 460.398)"></path><path fill="#a7735d" d="m615.39 416.84-389.05-51.88.77-11.47 197.32-17.63 405.11 26.9-.99 11.37-213.16 42.71z"></path><path fill="#d5a48e" d="m616.38 405.46-389.06-51.87 198.09-29.1 404.13 38.27-213.16 42.7z"></path><path fill="#897d77" d="M513.08 356.01V354l-126.26-4.04v2.15l87.65 13.65 38.61-9.75z"></path><path fill="#f8e8e2" d="m513.08 354-93.13-11.4-33.13 7.36 87.47 13.49 38.79-9.45z"></path><path fill="#a7735d" d="m501.76 335.72-20.78-2.54 3.32-38.24 20.78 2.54-3.32 38.24z"></path><path fill="#a7735d" d="M514.83 351.39h-.33a3.78 3.78 0 0 1-3.44-4.09c.25-2.87-.39-5.91-6.64-8.76-19.46-8.85-42.67-4.26-62.91.74a3.78 3.78 0 0 1-1.81-7.33c21.47-5.3 46.18-10.14 67.84-.28 7.95 3.61 11.67 9.09 11.05 16.28a3.78 3.78 0 0 1-3.76 3.44Z"></path><path fill="#8e5c4a" d="m651.73 156.52-6.19-5.09-230.28 16.82-28.55 132.13 225.36 25.6 7.95-4.14 31.71-165.32z"></path><path fill="#a7735d" d="m379.62 299.46 232.45 26.52 33.47-174.55-236.47 11.73-29.45 136.3z"></path><path fill="#d1e7ef" d="m384.27 294.44 224.09 24.51 31.01-162.66-226.61 9.5-28.49 128.65z"></path><path fill="#9cc1cd" d="m639.37 156.29-2.68 14.82-225.89 3.54 1.96-8.86 226.61-9.5zM623.94 176.7l-23.23 122.17-85.66-8.48 17.68-113.69h91.21z"></path><path fill="#d1e7ef" d="m436.83 172.35.39-5.91 5.91-.17-.4 6.11Zm1.21-5.06-.27 4.19h4.14l.28-4.33ZM427.51 172.44l.39-5.91 5.91-.17-.4 6.1Zm1.21-5.06-.27 4.19h4.14l.29-4.33ZM418.75 172.57l.39-5.91 5.91-.17-.4 6.1Zm1.21-5.06-.27 4.19h4.14l.29-4.33ZM531 267.39l1-5.08 22 2.26-1 5.08Zm1.67-4.13-.64 3.36 20.24 2.08.63-3.36Z"></path><path fill="#fcba61" d="m566.84 271.07 1-5.07 22 2.26-1 5.07Zm1.67-4.12-.64 3.35 20.23 2.08.64-3.35Z"></path><path fill="#d1e7ef" d="m537.77 199 2.23-17.24 73.06 1-3.64 21.24Zm3.06-16.26-2.12 15.45 69.78 4.6 3.13-18.79ZM607.54 211.09l-7.17 41.35-34.86-3.93 6.44-40.35 35.59 2.93z"></path><g clip-path="url(#d)"><path fill="#d1e7ef" d="M550.58 194.01h.87v26.68h-.87z" transform="rotate(-83.94 551.006 207.365)"></path><path fill="#d1e7ef" d="M549.88 196.99h.87v26.68h-.87z" transform="rotate(-83.97 550.323 210.326)"></path><path fill="#d1e7ef" d="M549.96 200.11h.87v26.68h-.87z" transform="rotate(-83.97 550.409 213.45)"></path><path fill="#d1e7ef" d="M549.95 203.26h.87v26.68h-.87z" transform="matrix(.11 -.99 .99 .11 277.17 741.2)"></path><path fill="#d1e7ef" d="M549.16 206.42h.87v26.68h-.87z" transform="matrix(.11 -.99 .99 .11 273.32 743.23)"></path></g><path fill="#9cc1cd" d="M455.36 184.59v-1.17c-10 .25-20.62.49-31.16.38v1.17c10.52.1 21.16-.13 31.16-.38ZM476.15 184.11v-1.17c-5.6.1-11.2.24-16.8.38v1.17c5.65-.15 11.2-.29 16.8-.38ZM485.74 184v-1.16h-5.61V184ZM498.72 184.11v-1.16a485.3 485.3 0 0 0-7.63-.11V184q3.83 0 7.63.11Z"></path><path fill="#9cc1cd" d="M504.4 182.82h10.74v1.17H504.4z" transform="rotate(-.65 508.466 182.709)"></path><path fill="#9cc1cd" d="M439.1 189.57v-1.16c-5.9.05-11.12 0-16-.06v1.17c4.9.09 10.09.11 16 .05ZM473.47 188.93v-1.16c-5 .07-10.08.18-15.12.29q-6 .13-12.05.25v1.16c4-.06 8-.15 12.05-.24 5.04-.11 10.08-.23 15.12-.3ZM497.74 189v-1.16c-5.66-.16-11.82-.21-18.81-.15v1.16c7.07-.04 13.16.01 18.81.15Z"></path><path fill="#9cc1cd" d="M507.43 187.77h6.75v1.16h-6.75z" transform="rotate(-.41 508.008 187.681)"></path><path fill="#9cc1cd" d="M449.49 193.81v-1.17c-10.69 0-19.41.07-27.43.27v1.17c8.04-.2 16.75-.29 27.43-.27ZM480.12 194v-1.17q-6.58 0-13.18-.07l-11.81-.06v1.16l11.8.07ZM497.41 193.94v-1.17h-12.56V194q6.29 0 12.56-.06Z"></path><path fill="#9cc1cd" d="M501.89 192.75h11.31v1.17h-11.31z" transform="rotate(-.1 498.308 189.511)"></path><path fill="#9cc1cd" d="M432.63 226.31v-1.16c-5.95-.11-11.49-.15-16.92-.13v1.17c5.45-.03 10.97.02 16.92.12ZM461.57 227.2l.05-1.17c-9.84-.4-18-.66-25.75-.82v1.16c7.7.16 15.87.43 25.7.83ZM470.41 227.57v-1.16c-1.88-.08-3.75-.17-5.63-.24l-.05 1.16ZM488.09 228.38l.05-1.16-3.89-.18-10.57-.49-.06 1.17c3.53.15 7.05.32 10.58.48Z"></path><path fill="#9cc1cd" d="M494.17 224.59h1.17v7.02h-1.17z" transform="rotate(-87.45 494.773 228.096)"></path><path fill="#9cc1cd" d="M503.66 225.32h1.17v6.27h-1.17z" transform="rotate(-88.2 504.245 228.45)"></path><path fill="#9cc1cd" d="M432.16 221.81v-1.17q-7.69-.15-15.4-.23v1.17q7.71.07 15.4.23ZM441.88 222v-1.16l-5.67-.13v1.16ZM461.31 222.57v-1.16q-8.1-.27-16.2-.47v1.16q8.11.21 16.2.47ZM488 223.52v-1.16q-11.35-.45-22.74-.83v1.17q11.37.38 22.74.82Z"></path><path fill="#9cc1cd" d="M499.11 214.6h1.17v17.31h-1.17z" transform="rotate(-88.42 499.68 223.267)"></path><path fill="#9cc1cd" d="M480.43 201.44h1.16v32.73h-1.16z" transform="rotate(-88.73 481.022 217.804)"></path><path fill="#9cc1cd" d="M504.17 213.77h1.16v9.14h-1.16z" transform="rotate(-88.73 504.723 218.35)"></path><path fill="#fcba61" d="M481.39 190.26h1.17v15.94h-1.17z" transform="rotate(-89.79 481.962 198.237)"></path><path fill="#fcba61" d="M497.91 192.91h1.17v10.75h-1.17z" transform="rotate(-90 497.055 198.895)"></path><path fill="#9cc1cd" d="M462.04 197.21h1.17v11.45h-1.17z" transform="rotate(-89.59 462.635 202.93)"></path><path fill="#9cc1cd" d="M480.05 194.95h1.16v16.25h-1.16z" transform="rotate(-89.57 480.62 203.078)"></path><path fill="#9cc1cd" d="M495.49 199.13h1.16v8.13h-1.16z" transform="rotate(-89.59 496.086 203.191)"></path><path fill="#fcba61" d="M478.26 201.94h1.17v11.95h-1.17z" transform="rotate(-89.25 478.861 207.901)"></path><path fill="#fcba61" d="M491.39 204.09h1.17v7.97h-1.17z" transform="rotate(-89.28 491.95 208.084)"></path><path fill="#9cc1cd" d="M454.45 207.53h1.16v9.63h-1.16z" transform="rotate(-89.04 455.038 212.344)"></path><path fill="#9cc1cd" d="M472.5 202.64h1.16v20.05h-1.16z" transform="rotate(-88.99 473.094 212.658)"></path><path fill="#9cc1cd" d="M490.36 207.99h1.16v9.98h-1.16z" transform="rotate(-89.04 490.911 212.986)"></path><path fill="#9cc1cd" d="m421 230.86.07-1.16q-3.18-.19-6.36-.43l-.09 1.16c2.16.16 4.28.3 6.38.43ZM442.57 231.74v-1.17c-7.06-.19-12.88-.41-18.32-.69l-.06 1.16c5.48.29 11.31.51 18.38.7Z"></path><path fill="#9cc1cd" d="M447.19 229.29h1.16v3.99h-1.16z" transform="rotate(-88.73 447.747 231.29)"></path><path fill="#9cc1cd" d="M474.47 232.52v-1.17c-6.3-.2-12.71-.34-18.91-.47l-2.63-.06v1.17h2.63c6.21.19 12.62.32 18.91.53ZM489.14 233.16l.06-1.16a570.8 570.8 0 0 0-11.58-.54v1.17c4.15.15 7.93.37 11.52.53Z"></path><path fill="#9cc1cd" d="M498.78 225.9h1.16v14.11h-1.16z" transform="rotate(-87.88 499.392 232.947)"></path><path fill="#9cc1cd" d="M459.73 236.94v-1.16l-5-.19c-13.45-.49-27.37-1-41-1.7l-.06 1.17c13.68.7 27.6 1.21 41.06 1.7ZM484.8 237.93l.05-1.16c-7.91-.35-15.83-.65-21.84-.88l-.05 1.17c6.04.22 13.94.52 21.84.87ZM497.57 238.55l.06-1.17-8.81-.43-.05 1.16c2.93.14 5.87.28 8.8.44Z"></path><path fill="#9cc1cd" d="M502.36 235.69h1.16v5h-1.16z" transform="rotate(-87.67 502.935 238.195)"></path><path fill="#9cc1cd" d="M444.2 241.48v-1.17c-9.43-.21-20.55-.59-31.55-1.78l-.12 1.16c11.06 1.19 22.21 1.57 31.67 1.79Z"></path><path fill="#9cc1cd" d="M449.57 238.24h1.17v5.54h-1.17z" transform="rotate(-88.94 450.166 241.01)"></path><path fill="#9cc1cd" d="m492.13 243.39.12-1.16c-11.78-1.17-23.34-1.46-36.16-1.69v1.16c12.77.24 24.31.52 36.04 1.69Z"></path><path fill="#9cc1cd" d="M499.12 238.37h1.17v9.57h-1.17z" transform="rotate(-87.33 499.727 243.152)"></path><path fill="#9cc1cd" d="m429.56 274.78.08-1.16c-9.76-.74-17.77-1.51-25.23-2.45l-.14 1.16c7.47.93 15.51 1.72 25.29 2.45ZM437.47 275.35l.08-1.16-4.74-.33-.09 1.16ZM469.14 277.49l.09-1.16c-6.89-.53-13.89-1-20.66-1.42l-7.85-.51-.08 1.16 7.85.52c6.77.43 13.77.92 20.65 1.41ZM483 278.71l.12-1.16c-3.62-.36-7.41-.7-11.56-1l-.09 1.17c4.13.28 7.91.63 11.53.99Z"></path><path fill="#9cc1cd" d="M491.14 273.81h1.17v10.06h-1.17z" transform="rotate(-85.31 491.755 278.83)"></path><path fill="#9cc1cd" d="m419.73 269 .09-1.16c-4.83-.4-9.21-.84-13.41-1.34l-.13 1.16c4.2.48 8.6.92 13.45 1.34ZM441.94 270.42l.07-1.16c-5.74-.32-12.42-.7-19-1.19l-.09 1.16c6.59.5 13.28.88 19.02 1.19ZM473.63 272.5l.1-1.16c-9.67-.87-19.27-1.4-28.55-1.91l-.06 1.17c9.27.5 18.88 1.03 28.51 1.9ZM483.09 273.49l.14-1.16c-2.11-.25-4.23-.48-6.34-.69l-.12 1.16q3.17.32 6.32.69Z"></path><path fill="#9cc1cd" d="M491.68 267.19h1.17v12.83h-1.17z" transform="rotate(-85.63 492.261 273.608)"></path><path fill="#9cc1cd" d="M470.2 249.77h1.16v34.4h-1.16z" transform="rotate(-85.96 470.807 266.96)"></path><path fill="#9cc1cd" d="M494.06 264.63h1.16v8.07h-1.16z" transform="rotate(-85.96 494.67 268.657)"></path><path fill="#9cc1cd" d="M478.09 236.93h1.17v19.85h-1.17z" transform="rotate(-87.02 478.706 246.844)"></path><path fill="#fcba61" d="M494.63 244.03h1.17v7.35h-1.17z" transform="rotate(-87.02 495.203 247.704)"></path><path fill="#9cc1cd" d="M452.05 244.69h1.17v11.83h-1.17z" transform="rotate(-86.81 452.618 250.61)"></path><path fill="#fcba61" d="M465.43 247.02h1.17v8.68h-1.17z" transform="rotate(-86.8 466.03 251.358)"></path><path fill="#9cc1cd" d="M481.36 243.86h1.17v16.79h-1.17z" transform="rotate(-86.8 481.957 252.256)"></path><path fill="#9cc1cd" d="M467.74 249.1h1.17v14.88h-1.17z" transform="rotate(-86.49 468.338 256.536)"></path><path fill="#9cc1cd" d="M480.88 254.62h1.17v5.45h-1.17z" transform="rotate(-86.49 481.476 257.342)"></path><path fill="#9cc1cd" d="M449.2 248.53h1.17V272h-1.17z" transform="rotate(-86.15 449.792 260.258)"></path><path fill="#9cc1cd" d="M466.97 258.61h1.17v5.66h-1.17z" transform="rotate(-86.16 467.521 261.448)"></path><path fill="#9cc1cd" d="M478.13 256.72h1.17v10.91h-1.17z" transform="rotate(-86.15 478.728 262.176)"></path><path fill="#d1e7ef" d="m545.11 257.27-.23-.13a22.69 22.69 0 0 1-7.91-8.41c-3.05-5.83-1-19.15-.92-19.71l.12-.8.73.11c2.64.38 7.67.55 11.06-2.86l.72-.72.55.89c2.62 4.29 7.92 5.66 10.91 6.1l.84.12-.05.88c0 .62-1 15.23-5.71 19.84a17.7 17.7 0 0 1-9.87 4.67Zm-7.65-27.14c-.39 2.94-1.55 13.27.84 17.8a21.13 21.13 0 0 0 7 7.51 16.45 16.45 0 0 0 8.68-4.25c3.63-3.56 4.82-14.61 5.09-17.77a21.84 21.84 0 0 1-5.13-1.59 13.82 13.82 0 0 1-5.56-4.4 12.26 12.26 0 0 1-6.13 2.65 18.28 18.28 0 0 1-4.79.05Z"></path><path fill="#d1e7ef" d="m545.08 245.12-3.08-4.58a.92.92 0 0 1 .14-1.22.77.77 0 0 1 1.12.21l2.16 3.13 6.48-5a.83.83 0 0 1 1.19.22.93.93 0 0 1-.15 1.26Z"></path><path fill="#895a49" d="m722.68 259.9 21.92 7.34 30.33 99.12-31.31-17.21-20.94-89.25zM774.89 369.88l-84.66 10.17-37.74-15.45.03-3.51 91.06-8.42 31.35 13.69-.04 3.52z"></path><path fill="#a7735d" d="m774.93 366.36-84.67 10.17-37.74-15.44 91.1-11.94 31.31 17.21z"></path><path fill="#a7735d" d="M753.81 375.57h-6.47l-104.35-53.46 23.47-165.7 125.01-37.13 5.66 3.47-43.32 252.82z"></path><path fill="#d5a48e" d="m747.34 375.57-110.12-54.23 29.24-164.93 125.01-37.13-44.13 256.29z"></path><path fill="#d1e7ef" d="m743.87 365.52-100.86-46.24 27.06-158.87 113.6-32.71-39.8 237.82z"></path><path fill="#9cc1cd" d="m670.07 160.41 113.6-32.71-5.26 31.45-111.35 19.11 3.01-17.85z"></path><path fill="#d1e7ef" d="M756.59 145.39a2.07 2.07 0 0 1-.35 0 2.22 2.22 0 0 1-1.43-1 4.53 4.53 0 0 1-.58-3.33c.38-2.14 1.85-3.63 3.38-3.37a2.26 2.26 0 0 1 1.44 1 4.53 4.53 0 0 1 .57 3.33c-.35 1.98-1.62 3.37-3.03 3.37Zm.68-6.77c-.91 0-1.85 1.14-2.11 2.61a3.6 3.6 0 0 0 .42 2.62 1.32 1.32 0 0 0 .82.58c1 .17 2-1 2.29-2.6a3.55 3.55 0 0 0-.42-2.62 1.27 1.27 0 0 0-.82-.58ZM765.11 143.29h-.34a2.2 2.2 0 0 1-1.44-1 4.52 4.52 0 0 1-.58-3.33c.39-2.14 1.88-3.61 3.38-3.36a2.22 2.22 0 0 1 1.44 1 4.53 4.53 0 0 1 .57 3.33c-.35 1.95-1.65 3.36-3.03 3.36Zm.68-6.76c-.9 0-1.84 1.14-2.11 2.61a3.6 3.6 0 0 0 .42 2.62 1.27 1.27 0 0 0 .82.57c1 .16 2-1 2.29-2.59a3.53 3.53 0 0 0-.41-2.61 1.32 1.32 0 0 0-.83-.58ZM773 141.33a1.87 1.87 0 0 1-.34 0 2.15 2.15 0 0 1-1.44-1 4.52 4.52 0 0 1-.58-3.33c.39-2.14 1.86-3.61 3.38-3.36a2.24 2.24 0 0 1 1.44 1 4.53 4.53 0 0 1 .57 3.33c-.32 1.95-1.62 3.36-3.03 3.36Zm.68-6.76c-.91 0-1.84 1.14-2.11 2.61a3.6 3.6 0 0 0 .42 2.62 1.27 1.27 0 0 0 .82.57c1 .17 2-1 2.29-2.59a3.55 3.55 0 0 0-.41-2.62 1.32 1.32 0 0 0-.83-.58Z"></path><path fill="#9cc1cd" d="m695.75 242.63-33.09-7 8.73-52.63 34-4ZM665 234l29 6.19 8.87-58.76-29.72 3.5Z"></path><path fill="#9cc1cd" d="M731.56 188.17h2.07v53.58h-2.07z" transform="rotate(-86.8 732.616 214.955)"></path><path fill="#9cc1cd" d="M729.92 197.34h2.07v53.19h-2.07z" transform="rotate(-84.45 730.974 223.918)"></path><path fill="#9cc1cd" d="M728.61 205.57h2.07v52.46h-2.07z" transform="rotate(-82.23 729.627 231.812)"></path><path fill="#9cc1cd" d="M727.2 214.39h2.07v52.11h-2.07z" transform="rotate(-78.5 730.829 239.31)"></path><path fill="#9cc1cd" d="m748.89 271.48-39.7-11.29 1.36-10.53 40.27 9.05-1.93 12.77zM684 331.54l-34.76-14.94 13-78.26 33.25 8.27Zm-34.14-15.39 33.48 14 11.5-82.94-32.19-8.07Z"></path><path fill="#9cc1cd" d="m670.53 253.8-5.16-.87.79-5.17 5.16.86-.79 5.18zM666.39 280.74l-5.16-.87.79-5.18 5.16.87-.79 5.18zM663.31 300.73l-5.16-.87.8-5.17 5.16.86-.8 5.18zM662.31 307.26l-5.16-.87.79-5.17 5.16.87-.79 5.17zM661.31 313.73l-5.16-.87.8-5.17 5.16.87-.8 5.17zM670.52 288.26l-5.16-.87.8-5.17 5.16.86-.8 5.18zM674.6 296.14l-5.16-.87.8-5.17 5.16.87-.8 5.17zM674.71 261.02l-5.16-.86.79-5.18 5.16.87-.79 5.17zM673.61 268.15l-5.16-.87.8-5.17 5.16.87-.8 5.17zM672.54 275.12l-5.16-.87.8-5.17 5.16.86-.8 5.18zM728.63 270.36l-1.76-.52.31-1c9.48 2.82 19.12 5.55 28.65 8.14l-.29 1c-8.95-2.43-17.99-4.98-26.91-7.62ZM725.22 269.35l-3.31-.99.3-1.03 3.31.99-.3 1.03zM719.84 267.74c-5.84-1.74-11.84-3.63-17.67-5.49l.31-1c5.83 1.86 11.77 3.7 17.67 5.49Z"></path><path fill="#fcba61" d="M697.99 258.33h1.07v4.56h-1.07z" transform="rotate(-73.58 698.535 260.614)"></path><path fill="#9cc1cd" d="m751.88 303.51-10.65-3.19.31-1 10.65 3.2ZM739.19 299.7l-5.33-1.58.3-1.04 5.33 1.59-.3 1.03zM701.36 288.62l.3-1c10.08 2.91 20.34 5.9 30.48 8.91l-.31 1a3785.68 3785.68 0 0 0-30.47-8.91Z"></path><path fill="#fcba61" d="M695.92 283.02H697v7.19h-1.08z" transform="rotate(-73.58 696.47 286.614)"></path><path fill="#9cc1cd" d="M744.67 349.57q-6-2.26-12-4.48l.37-1q6 2.22 12 4.49ZM731 344.5c-1.34-.5-2.69-1-4-1.47l.37-1 4 1.47ZM706 335.54l.36-1c6.3 2.21 12.69 4.48 19 6.76l-.37 1c-6.29-2.3-12.67-4.56-18.99-6.76ZM694.34 331.5l.36-1 9.66 3.33-.36 1Z"></path><path fill="#fcba61" d="M689.42 326.12h1.08v6.49h-1.08z" transform="rotate(-70.1 691.58 329.355)"></path><path fill="#9cc1cd" d="m742.79 356.65-6.75-3 .43-1 6.75 3ZM734.05 352.76c-6.33-2.8-12.76-5.61-19.11-8.35l.43-1c6.36 2.74 12.78 5.55 19.12 8.35ZM705.76 340.46l.43-1 7.59 3.26-.43 1c-2.53-1.1-5.06-2.18-7.59-3.26ZM696.62 336.56l.43-1 7.55 3.22-.42 1Z"></path><path fill="#fcba61" d="M690.21 328.48h1.08v9.88h-1.08z" transform="rotate(-66.49 690.732 333.42)"></path><path fill="#9cc1cd" d="m746.78 280.5.3-1q4.21 1.16 8.46 2.28l-.3 1c-2.82-.78-5.65-1.51-8.46-2.28ZM734.5 277.05l.3-1c3.58 1 7.15 2 10.74 3l-.3 1q-5.38-1.46-10.74-3ZM729.08 275.47c-5.7-1.68-11.43-3.43-17.09-5.21l.31-1c6.94 2.18 14 4.32 21 6.34l-.3 1ZM710.48 269.78q-3.75-1.18-7.5-2.41l.32-1c2.49.81 5 1.62 7.49 2.41Z"></path><path fill="#9cc1cd" d="M698.44 262.94h1.08v5.38h-1.08z" transform="rotate(-73.58 699.012 265.621)"></path><path fill="#9cc1cd" d="M754 287.66c-15.33-5-31.69-9.81-47.33-14l.29-1c15.65 4.15 32 9 47.36 14Z"></path><path fill="#9cc1cd" d="M699.06 266.1h1.08v9.91h-1.08z" transform="rotate(-73.58 699.578 271.07)"></path><path fill="#9cc1cd" d="M722.56 277.89h1.08v11.75h-1.08z" transform="rotate(-73.58 723.086 283.77)"></path><path fill="#9cc1cd" d="M710.99 276.41h1.08v7.89h-1.08z" transform="rotate(-73.58 711.501 280.372)"></path><path fill="#9cc1cd" d="M738.31 286.9h1.08v14.03h-1.08z" transform="rotate(-73.58 738.83 293.929)"></path><path fill="#9cc1cd" d="M717.31 275.71h1.08v24.04h-1.08z" transform="rotate(-73.58 717.813 287.74)"></path><path fill="#9cc1cd" d="M739.06 301.92h1.08v6.49h-1.08z" transform="rotate(-73.55 739.621 305.157)"></path><path fill="#9cc1cd" d="M725.99 294.17h1.08v14.28h-1.08z" transform="rotate(-73.58 726.495 301.321)"></path><path fill="#9cc1cd" d="M713.71 295.17h1.08v5.05h-1.08z" transform="rotate(-73.55 714.303 297.683)"></path><path fill="#9cc1cd" d="M705.75 292.39h1.08v5.91h-1.08z" transform="rotate(-73.57 706.322 295.333)"></path><path fill="#9cc1cd" d="m734 309.05.31-1 8.79 2.53-.29 1ZM720.52 305.11l-7.88-2.33.31-1q9.09 2.72 18.19 5.36l-.3 1ZM709.59 301.87l-11-3.32.31-1q5.52 1.68 11 3.32Z"></path><path fill="#9cc1cd" d="M693.61 294.11h1.08v5.14h-1.08z" transform="rotate(-73.58 694.165 296.681)"></path><path fill="#9cc1cd" d="M746.09 344.86c-4.85-1.87-9.75-3.71-14.56-5.48l.37-1c4.81 1.77 9.72 3.62 14.57 5.48ZM698.85 327.94l.35-1c10 3.33 20.09 6.83 29.9 10.42l-.37 1c-9.8-3.59-19.85-7.09-29.88-10.42Z"></path><path fill="#9cc1cd" d="M691.67 320.12h1.08v9.73h-1.08z" transform="rotate(-70.29 692.268 324.985)"></path><path fill="#9cc1cd" d="m735.92 315.84.3-1c4.37 1.27 8.91 2.55 13.48 3.8l-.29 1c-4.58-1.25-9.12-2.53-13.49-3.8ZM732.56 314.86a921.93 921.93 0 0 1-16.73-5.12l.32-1c5.77 1.82 11.48 3.57 17.05 5.21l-.31 1Z"></path><path fill="#9cc1cd" d="M709.99 304.46h1.08v6.3h-1.08z" transform="rotate(-73.58 710.54 307.614)"></path><path fill="#9cc1cd" d="m745.41 324.67.3-1.04 3.61 1-.3 1.04-3.61-1zM725.83 319.1l.3-1c5.79 1.69 11.68 3.37 17.51 5l-.3 1c-5.83-1.63-11.72-3.31-17.51-5ZM722.74 318.19l-7.19-2.14.31-1 7.7 2.29-.3 1ZM713 315.28c-5.41-1.63-10.93-3.34-16.42-5.07l.31-1c5.49 1.73 11 3.43 16.42 5.07Z"></path><path fill="#9cc1cd" d="M691.64 305.67h1.08v5.35h-1.08z" transform="rotate(-73.57 692.23 308.338)"></path><path fill="#9cc1cd" d="m737.21 329.8.33-1q5.13 1.61 10.27 3.16l-.32 1q-5.16-1.56-10.28-3.16ZM725.94 326.21l.34-1q4.59 1.5 9.21 2.95l-.33 1q-4.62-1.45-9.22-2.95ZM721.94 324.89c-4.57-1.5-9.22-3.07-13.84-4.67l.35-1c5.1 1.76 10.24 3.5 15.27 5.14l-.33 1ZM705.62 319.36q-4.68-1.62-9.34-3.3l.35-1c3.11 1.12 6.22 2.21 9.34 3.3Z"></path><path fill="#9cc1cd" d="M691.13 311.06h1.08v5.82h-1.08z" transform="rotate(-71.74 691.614 313.982)"></path><path fill="#9cc1cd" d="M746.46 338.8c-9.19-3.53-18.35-6.84-27.23-9.84l.35-1c8.89 3 18.06 6.31 27.26 9.84ZM703.1 323.73l.33-1c4.77 1.48 9.51 3 14.1 4.54l-.35 1c-4.58-1.53-9.32-3.06-14.08-4.54Z"></path><path fill="#9cc1cd" d="M694.03 313.21h1.08v13.97h-1.08z" transform="rotate(-70.85 694.537 320.209)"></path><path fill="#9cc1cd" d="M686.83 227.93a3.36 3.36 0 0 1-.63-.06l-12.73-2.23c-2-.34-3.18-2.64-2.76-5.24l1.67-10.35c.4-2.49 2.22-4.44 4.15-4.44l13 .09a3.58 3.58 0 0 1 2.72 1.29 5.14 5.14 0 0 1 1 4.15l-1.9 12.19c-.35 2.67-2.35 4.6-4.52 4.6Zm-10.3-20.32c-.82 0-1.92 1.13-2.18 2.76l-1.67 10.35c-.25 1.58.4 2.82 1.14 2.95l12.73 2.23c1.28.22 2.57-1.12 2.84-2.88l1.9-12.19a3.2 3.2 0 0 0-.55-2.54 1.6 1.6 0 0 0-1.21-.59Z"></path><path fill="#9cc1cd" d="m690 207.66-14-.1 1-6.22c.73-4.57 4.14-8.45 7.77-8.82h.1a5.16 5.16 0 0 1 4.58 1.83 8.49 8.49 0 0 1 1.55 6.85Zm-11.63-2.09 9.92.08.75-4.76a6.49 6.49 0 0 0-1.09-5.25 3.18 3.18 0 0 0-2.85-1.14h-.1c-2.73.28-5.42 3.48-6 7.14ZM679.37 214.41c.26-1.64 1.46-2.92 2.71-2.86s2.1 1.5 1.83 3.2a3.72 3.72 0 0 1-1.47 2.5l-.38 2.42c-.15.92-.83 1.6-1.51 1.51-.68-.09-1.1-.9-1-1.81L680 217a3.2 3.2 0 0 1-.63-2.59Z"></path></g><path fill="#fcba61" d="M581.94 343.91c-.33 8.92.3 17.94 3.46 26 3.24 8.31 9.6 15.54 17.84 18.63l10.83-52.44-31.36-.42c.63 2.15-.71 6.32-.77 8.23Z"></path><path fill="#e08c48" d="m573.8 392.13 28.67.19.77-3.74c-8.24-3.09-14.6-10.32-17.84-18.63-3.16-8.1-3.79-17.12-3.46-26 .07-1.93 1.4-6.08.77-8.19l-11.32-.15Z"></path><path fill="#321717" d="m615.48 338.44-46.09-.3a1.55 1.55 0 0 1-1.32-2.34l2.45-4.72a2.81 2.81 0 0 1 2.47-1.52l40.67.26a2.24 2.24 0 0 1 2.17 1.58l1.45 4.73a1.86 1.86 0 0 1-1.8 2.31Z"></path><path fill="#321717" d="m610.52 330-34.4-.22.31-3.07c.18-1.88 2.46-3.4 5.09-3.4h24.84c2.66 0 4.67 1.56 4.48 3.46Z"></path><path fill="#321717" d="m601.5 318.25-5 6.27h9l1-5.63a1 1 0 0 0-1-1.17h-2.94a1.38 1.38 0 0 0-1.06.53Z"></path><path fill="#a7735d" d="M610.87 355h-33.64v.13a31 31 0 0 0 4.09 12.26 22.87 22.87 0 0 0 8.77 8.22h16.48a1.46 1.46 0 0 0 1.39-1.12l4-18a1.16 1.16 0 0 0-1.09-1.49Z"></path><path fill="#8e5d4c" d="M581.34 367.36a31 31 0 0 1-4.09-12.26s0-.09 0-.13H572a1.44 1.44 0 0 0-1.41 1.47l.76 18a1.14 1.14 0 0 0 1.17 1.12h17.56a22.87 22.87 0 0 1-8.74-8.2Z"></path></g><g data-name="4"><path fill="#f8e8e2" d="M1166 272.56c7.06-2.92 13-10.31 15.81-18.6 1.41-4.19 2.18-8.05 1.22-11.65-.36-1.37-3.51-9.05-5.07-8.45 6.46-2.51 12.65-10.47 14.08-18.19s-2.07-14.39-8-15.12c1.25.16 3.18-8.78 3.24-9.7a14 14 0 0 0-1.95-8.52c-3-4.73-8.49-5.39-14.57-.94-4.58 3.35-8.33 9-10.29 14.69-5.69-1.16-12.84 4.85-16.44 12-3.81 7.62-3.56 16.57.58 20.7-3.82 0-8.14 2.82-11.39 6.75a35.84 35.84 0 0 0-6.74 13.66c-1.5 5.7-1.68 11.61.4 15.67a13.42 13.42 0 0 0 5.76 5.54c6.2 3.42 13.83 4 21.51 4 3.85-.01 7.85-.16 11.85-1.84Z"></path><path fill="#897d77" d="M1044.12 273.69h203.1v.95h-203.1z" transform="rotate(-70.45 1145.59 274.2)"></path><path fill="#897d77" d="m1166.93 214.35-6.84-18.1.89-.34 6.39 16.91 16.44-12.64.58.75-17.46 13.42zM1153.3 252.78l-9.07-23.81.88-.34 8.63 22.64 23.98-17.79.56.77-24.98 18.53z"></path><path fill="#f8e8e2" d="M1147.12 168.15c5.65-5.13 8.47-13.28 7.85-20.8-.31-3.81-1.1-7.1-3.45-9.49-.9-.92-7-5.56-8.26-4.46 5.24-4.57 8-13.23 6.34-19.78s-7.72-10.26-13.72-8.42c1.27-.39-.42-8.07-.73-8.81a11.26 11.26 0 0 0-5.27-5.78c-4.81-2.41-10.34-.71-14.43 5.2a24.89 24.89 0 0 0-4.07 15.53c-6 1.42-10.47 9-11.08 16-.65 7.44 3.16 14.24 8.79 15.74-3.66 1.59-6.73 5.5-8.3 9.85a26.7 26.7 0 0 0-1.07 13.29c.83 5 3 9.64 6.63 11.93a14.74 14.74 0 0 0 7.76 1.94c7.35.11 14.92-2.56 22.33-5.69 3.68-1.59 7.44-3.32 10.68-6.25Z"></path><path fill="#897d77" d="m1108.58 360.36-.94-.13 21.42-159.18L1122.29 90l.95-.05 6.77 111.14v.04l-21.43 159.23z"></path><path fill="#897d77" d="m1124.84 122.86-13.76-11.15.59-.74 12.95 10.5 10.87-16.53.79.52-11.44 17.4zM1126.98 158.07l-18.18-14.65.59-.73 17.38 14 16.1-23.56.78.54-16.67 24.4z"></path><path fill="#f8e8e2" d="M1057.8 154.2a16.14 16.14 0 0 0-1-16.21c-1.57-2.34-3.34-4.18-6-4.88-1-.27-7.49-1.08-8.11.08 2.57-4.81 1.79-11.4-1.83-15a10.45 10.45 0 0 0-13.82-.52c.87-.7-3.14-5-3.64-5.42a9.89 9.89 0 0 0-6.2-1.83c-4.66.16-8.47 3.24-9.67 8.51a15.2 15.2 0 0 0 2.16 11.47c-4.24 3-5.21 9.52-3.26 14.25 2.06 5 7.45 8.05 12.45 7a12 12 0 0 0-3.18 9.32 16.3 16.3 0 0 0 3.77 8.94c2.39 2.93 5.73 5.14 9.41 5.32a15.61 15.61 0 0 0 6.84-1.53c5.87-2.55 11-7 15.77-11.66a30.59 30.59 0 0 0 6.31-7.84Z"></path><path fill="#897d77" d="m1097.39 409.45-3.94-167.98-82.55-128.67.8-.51 82.69 128.89v.13l3.95 168.12-.95.02z"></path><path fill="#897d77" d="m1024.41 133.12-14.82-2.27.15-.93 13.92 2.13 2.89-14.48.93.18-3.07 15.37zM1038.34 155.05l-19.55-2.94.14-.94 18.67 2.81 4.61-20.89.92.21-4.79 21.75z"></path><path fill="#9cc1cd" d="m1129.7 393.06 7.37-32.76h-52l-7.38 32.76c-8.07 6.09-14.12 14.52-16.22 23.83s.16 17.74 5.5 23.83l.29.32a13.89 13.89 0 0 0 10.26 4.07h29a21 21 0 0 0 12.09-4.07l.44-.32c8.08-6.09 14.13-14.52 16.22-23.83s-.27-17.74-5.57-23.83Z"></path><path fill="#d1e7ef" d="M1131.73 384.01h-52.05l-2.04 9.05h52.06l2.03-9.05zM1133.75 375.07h-52.06l-1.09 4.87h52.05l1.1-4.87zM1134.92 369.87h-52.06l-.55 2.46h52.05l.56-2.46z"></path></g><g clip-path="url(#e)" data-name="4"><path fill="#f8e8e2" d="M501.19 369.61a31.49 31.49 0 0 1 7.67-2.21c7.61-1 15.12 1.93 22.2 4.83.65.26 1.38.61 1.59 1.26a2.24 2.24 0 0 1-.89 2.09 25.56 25.56 0 0 1-7.28 4.51c-8.25 3.82-18.28 7.3-27.4 4.33-11.08-3.61-2.82-11.98 4.11-14.81Z"></path><path fill="#f37f6a" d="M387.51 564.15c-4.41 12.44-8.82 25.1-13.23 37.54a37.47 37.47 0 0 1 11.34 6.84c6.45-12 13.05-24.17 19.51-36.18-4.91-3.29-11.58-6.07-17.62-8.2Z"></path><path fill="#321717" d="M369.42 596.25c-2.9 2.33-5.46 5.16-4.42 8.1a9.14 9.14 0 0 0 2.26 3c3.24 3.41 5.2 7.75 7.62 11.75s5.61 7.9 10.11 9.45c7.17 2.48 15.16 1.83 22.62 1.79h9.07c2.09 0 5.41.72 6.67-1.43 1.55-2.65-2-4.58-4.17-5.28L403 618.32c-2.61-.85-10.25-2.11-11.68-4.87a4.19 4.19 0 0 1-.25-2.28c.42-5.61 1.07-9.53-4.16-13l-8.79-5.9a2.92 2.92 0 0 0-1.85-.7 2.87 2.87 0 0 0-1.5.78c-1.25.96-3.38 2.32-5.35 3.9Z"></path><path fill="#6588d3" d="m416.06 483.3 2.21-1.17c-12.54 31.1-25.49 61.88-37.87 93.08a95.6 95.6 0 0 0-46.11-22.64q3.07-10.85 5.46-21.87 10.46-7.43 21.18-14.5 26.79-17.63 55.13-32.9Z"></path><path fill="#f8e8e2" d="M345.87 493.79c.61-5.42-.63-15.15 1.68-20 2.75-5.76 19.86-9.25 26.7-11.57a74.37 74.37 0 0 1 34.94-3.15c5.75.88 11.73 2.64 15.56 6.91-2.13 5.39-4.31 10.75-6.48 16.12-.73.39-46.39 80.68-46.39 80.68s-30.62-15.19-37.59-10.24c1.24-5.68 7.83-33.26 8.8-39q1.65-9.81 2.78-19.75Z"></path><path fill="#e56857" d="M335.52 289.62a258.72 258.72 0 0 1 18.25 40.53c1.41 4 2.52 8.13.78 12.26-1.27 3-6.39 6.3-9.74 6.52a11.17 11.17 0 0 1-3.58-.48c-8.62-2.28-15.88-8.65-22-14.72a215 215 0 0 1-17.14-19.94c-6.38-8.08-11.88-16.67-17.46-25.28q-5.46-8.42-10.93-16.84c-4.51-6.93-12-23.69-13.93-31.38-2.92-11.77 10.74-23.9 27.38-16.17 6.46 3 11.35 11.3 15.45 16.52 5.74 7.29 11.18 14.77 16.4 22.37 6 8.68 11.49 17.52 16.52 26.61Z"></path><path fill="#e56857" d="M340 348.82a27 27 0 0 1-6.12-3.78c-5.21-4.32-3.52-9.92-.53-15.2 4.38-7.71 13.68-6.61 21.07-5.08 11.56 2.4 21.84 6.93 32 12.53 3.8 2.09 8.75 5 10.62 9 2.48 5.35-3.43 8-8 8.29a148.05 148.05 0 0 1-29.08-1.17c-6.74-.93-13.82-1.81-19.96-4.59Z"></path><path fill="#e56857" d="M415.52 342.33a9.64 9.64 0 0 1 1.75.73 77 77 0 0 1 14.84 11 2 2 0 0 1 .58 2.68c-.12.19-.35.36-.56.27a1.82 1.82 0 0 1-.13.73c-.19.46-1.52 1.29-2 1.11a.61.61 0 0 1-.33-.34c-.05.88-1.13 1.05-1.84 1.14a2.69 2.69 0 0 1-1.13 0c-.17-.06-.71-.3-.71-.53a.61.61 0 0 1-.64.53 1.86 1.86 0 0 1-.87-.28c-3.94-2.05-8-4.39-12.5-4.48a24.34 24.34 0 0 0-5.12 0c1.83 1.28 4.44 1.68 6.46 2.75a3.47 3.47 0 0 1 1.59 1.75 1.31 1.31 0 0 1-1.14 1.67c-3 .45-6.08-.75-8.92-1.94-1.85-.78-14.19-4.68-18-4.38.95-3.77 4.88-14.18 4.88-14.18a20.39 20.39 0 0 0 8.53 2.76c4.59.16 10.64-2.41 15.26-.99Z"></path><path fill="#e56857" d="M432.12 357.1a.31.31 0 0 1-.31-.31 1.49 1.49 0 0 0-.36-1c-2.71-2.37-5.72-4.61-8.63-6.77l-1.68-1.25a.29.29 0 0 1-.05-.42.31.31 0 0 1 .43-.06l1.68 1.25c2.92 2.16 5.94 4.41 8.67 6.79a2.08 2.08 0 0 1 .56 1.42.31.31 0 0 1-.31.35ZM429.64 358.63a.3.3 0 0 1-.19-.07.29.29 0 0 1-.05-.42 1 1 0 0 0 0-1 3.39 3.39 0 0 0-.8-1 39.77 39.77 0 0 0-8.2-5.95.29.29 0 0 1-.12-.41.32.32 0 0 1 .42-.12 40.47 40.47 0 0 1 8.33 6 3.73 3.73 0 0 1 .94 1.16 1.56 1.56 0 0 1-.12 1.61.3.3 0 0 1-.21.2ZM426 359.37h-.13a.3.3 0 0 1-.16-.4 2.18 2.18 0 0 0-.08-1.83 3.33 3.33 0 0 0-1-1.19 36.77 36.77 0 0 0-5.8-3.86 2.83 2.83 0 0 0-1-.41.3.3 0 1 1 .1-.6 3.2 3.2 0 0 1 1.16.49 37 37 0 0 1 5.91 3.93 3.84 3.84 0 0 1 1.13 1.37 2.75 2.75 0 0 1 .09 2.34.31.31 0 0 1-.22.16Z"></path><path fill="#321717" d="M378.17 569.18c1.65 2.25 3.35 5.18 1.95 7.59a5.47 5.47 0 0 1-2.46 2.06 16.05 16.05 0 0 1-7.59 1.27c-9.68-.36-18.44-4.87-26.21-10.19-4-2.77-8-6.11-9.66-10.62a7.81 7.81 0 0 1-.43-4.83c2.29-8.12 18-1.65 22.81.25 9.4 3.73 19 8.81 23.73 17.58Z"></path><path fill="#f8e8e2" d="M392.57 405.16c9.64-.61 19.33-1.18 28.95-.33 30.19 2.65 65.62 13.6 65.46 48.52-.07 15.59-6.7 30.39-13.76 44.39a611.4 611.4 0 0 1-62 98.43q-22.6-10.93-46.09-20 21.25-41.86 42.49-83.74c1.3-2.57 2.64-5.36 2.18-8.19-1.56-9.48-24-2.21-29.68-1.23-27.32 4.72-54.61 10.42-82.38 11.87-22.75 1.2-55.17 1.46-71.55-17.79-18.46-21.68-7.17-72.31-7.17-72.31v-11.24a160.23 160.23 0 0 0 6.27-16.07c18.14 6.68 31.15-.28 50.4 2.1 8.34 1 16.92 1.7 24.55 5.15 4.15 1.87 13.39 13.11 13.39 13.11l.94 11.08s62.36-2.76 78-3.75Z"></path><path fill="#f37f6a" d="m310.93 234.51-21.7-10.22a4.81 4.81 0 0 1-2.22-1.6 3.52 3.52 0 0 1 .07-2.89q6-18.57 12-37.15a110.28 110.28 0 0 0 29 7.69c1.28 6.09-21.56 42.09-17.15 44.17Z"></path><path fill="#f37f6a" d="M358.3 189.44c-.13 7.5-1.2 16.91-10.72 18.83a16.45 16.45 0 0 1-8.4-.66c-16.25-5.46-32.6-12.8-44.39-25.12-10.77-11.25-17.22-27.28-13.67-42.27 4.8-20.29 28-33.75 48.54-27.41 9.94 3.08 18.47 9.33 23.18 18.51 2.94 5.72 3.85 12.36 5.87 18.4q3.74 11.22 7.46 22.45a1.35 1.35 0 0 1-1.17 2.08c-2 .51-4.11.69-6.09 1.11.12 1.26.16 2.52.18 3.77a1.17 1.17 0 0 1-1.24 1.19 24.23 24.23 0 0 1-11.14-3.53 14.63 14.63 0 0 0 11.6 11c0 .51 0 1.08-.01 1.65Z"></path><path fill="#321717" d="M358.44 193.35c-2.56-2.28-6.6.16-9.45-2.15a4.78 4.78 0 0 1-.74-.75c-2.38-2.95-.34-6.93.29-10.14a1.61 1.61 0 0 1 .68-1.21 1.82 1.82 0 0 1 1.47.13 21.22 21.22 0 0 0 5.23 1.18c1.11.11 3.24.43 3.82-.87a2.29 2.29 0 0 0 .14-.68 6.4 6.4 0 0 0-.21-3 .38.38 0 0 0-.14-.19.43.43 0 0 0-.23 0c-1.7 0-3.34-.27-5-.38l-4.53-.32a5.63 5.63 0 0 0-3.55.55c-3.94 2.73-2.64 12.76-11.35 4.71-2.71-2.5-4-6.08-5-9.59a69.32 69.32 0 0 1-2.53-25.77c.22-2.34.12-4.64 1.64-6.64 3.9-5.13 15.29-4.6 21-6.93a9.44 9.44 0 0 0 4.1-2.68c1.13-1.47 1.33-3.41 1.5-5.24.19-2 .37-4.09.56-6.14a10 10 0 0 0-.15-3.81c-.79-2.6-3.63-4.19-6.4-4.51s-5.54.36-8.28.87c-15 2.78-31.51-2.52-46.19 3.06-12.39 4.71-17.7 20.68-17.86 32.66a64 64 0 0 0 8.19 31.25c.83 1.5 11.92 11.41 12 11.2 2.44-9.17 18.89-17.58 13.78-27.9-2-4-5.67-9.83.16-12.92a6.75 6.75 0 0 1 4.83-.3c7 1.81 7.87 7 8.32 12.92a31 31 0 0 1-1.29 12.4c-1.62 4.77-4.73 8.93-6.54 13.64-5.91 15.41 13.56 20.41 25.77 22.6 3.94.7 8.34.95 11.62-1.28 4.65-3.29 5.64-8.64 4.34-13.77Z"></path><path fill="#321717" d="M348.32 153.33c-.19 2.29.61 4.22 1.78 4.31s2.28-1.69 2.47-4-.61-4.23-1.78-4.32-2.29 1.68-2.47 4.01ZM348.18 147.18c-.54.35-1 .81-1.54 1.17a2.93 2.93 0 0 1-1.2.52.91.91 0 0 1-.49-.06.94.94 0 0 1-.41-1 5 5 0 0 1 1.55-3 9.54 9.54 0 0 1 3.3-2.12 6 6 0 0 1 4.23-.5c.82.28 2 1.3 2 2.23a1 1 0 0 1-.5.82 5.21 5.21 0 0 1-1.63.27c-.61.1-1.21.23-1.82.35a9.78 9.78 0 0 0-3.49 1.32Z"></path><path fill="#d46752" d="M319 161.15a.86.86 0 0 1-.27-.05 4.54 4.54 0 0 1-2.7-4v-.81a6.28 6.28 0 0 0 0-.75 3 3 0 0 0-2.87-2.69.65.65 0 1 1 0-1.29 4.28 4.28 0 0 1 4.18 3.93 6.77 6.77 0 0 1 0 .9v.69a3.28 3.28 0 0 0 1.92 2.84.63.63 0 0 1 .33.84.66.66 0 0 1-.59.39ZM321.93 168.75a4.48 4.48 0 0 1-1.33-.25 14.49 14.49 0 0 1-7.23-5.22.62.62 0 0 1 .16-.89.67.67 0 0 1 .92.15 13.1 13.1 0 0 0 6.57 4.74 2.24 2.24 0 0 0 1.11.17c.23 0 .44-.2.46-.35a.64.64 0 0 1 .73-.56.65.65 0 0 1 .58.71 1.77 1.77 0 0 1-1.54 1.46 2.15 2.15 0 0 1-.43.04Z"></path><path fill="#f37f6a" d="M351.83 552.91c-4.41 12.44-8.82 25.1-13.23 37.54a37.47 37.47 0 0 1 11.34 6.84c6.45-12 13.06-24.17 19.51-36.18-4.91-3.29-11.58-6.11-17.62-8.2Z"></path><path fill="#321717" d="M333.74 585c-2.9 2.33-5.46 5.16-4.42 8.1a9.14 9.14 0 0 0 2.26 3c3.24 3.41 5.2 7.75 7.62 11.75s5.61 7.9 10.11 9.45c7.17 2.47 15.16 1.83 22.62 1.79H381c2.1 0 5.41.72 6.67-1.43 1.55-2.65-2-4.58-4.17-5.28l-16.17-5.28c-2.61-.85-10.25-2.11-11.68-4.87a4.19 4.19 0 0 1-.25-2.28c.42-5.61 1.07-9.53-4.16-13l-8.79-5.9a2.9 2.9 0 0 0-1.85-.7 2.87 2.87 0 0 0-1.5.78c-1.26.94-3.39 2.3-5.36 3.87Z"></path><path fill="#fcba61" d="M344.15 267.33a92.54 92.54 0 0 0-2-12.1c-3.19-13.39-10.73-24.34-21.75-32.83a179.08 179.08 0 0 0-17.24-11.27c-2.75-1.65-6.08-4.72-9-5.79-3.64-1.34-8.5.48-11.9 1.89-39.56 16.44-49.86 67.59-56.12 104.19a495.63 495.63 0 0 0-7.14 82.12c26.41 1.58 52.71 1.79 79.12 3.36l15.49.93s7.93-25.72 10.13-32.21c5.7-16.82 10.77-33.85 14.94-51.1 3.81-15.79 7.13-30.91 5.47-47.19Z"></path><path fill="#8e5b49" d="m314.54 407.54-95.55-2.28.03-1.03 95.54 2.27-.02 1.04z"></path><path fill="#8c443c" d="M334 332.61c4.25-13.88 8.56-35.67 8.56-35.67s-1.42-5.43-3.39-7.4c-11.47-11.46-18.67-21.08-33.85-27.22-9.18-3.72-25.13-6.26-25.13-6.26s9.2 41.09 53.81 76.55Z"></path><path fill="#f37f6a" d="M386.22 298c12.31 17.29 24.35 36.34 22.68 54.82-.43 4.72-3.2 9.87-8.95 9.52-19.14-1.15-52.19-43-69.24-65.82L318.42 280c-5.06-6.78-13.72-23.13-16.06-30.61-3.59-11.45 11.32-23 29.28-15.28 7 3 12.51 11.1 17.07 16.2 6.39 7.15 12.47 14.47 18.32 21.9 6.66 8.5 12.97 17.11 19.19 25.79Z"></path><path fill="#f37f6a" d="M400.62 363.12c-3.06-.79-6.74-2.32-7.1-5.71a8.91 8.91 0 0 1 .85-4.11q1.35-3.54 2.71-7.08c1-2.66-3.85-13.16 4-12.53 9.86.8 26.75 6.52 37.35 11.24 14.33 6.36 31 12.14 45.55 17.71 3.82 1.47 12.49 6.81 11.95 12.57s-8.37 5.8-12.16 5.35c-18-2.12-36.1-6.39-53.84-10.37q-14.71-3.3-29.31-7.07Z"></path><path fill="#f8e8e2" d="m359.48 253.93-43.65 44.86a84.52 84.52 0 0 0 10.86 9.28c9.16-9.37 23.9-25.08 33.06-34.45 3.19-3.27 6.41-6.54 9.87-9.53-3.21-3.37-6.62-6.82-10.14-10.16Z"></path><path fill="#fcba61" d="M345.29 241.87c-9-6.6-18.3-13.06-28.28-18.23-3.37-1.75-6.65-3.51-10.24-4.2a16.21 16.21 0 0 0-3.84-.29c-5.65.24-10.56 1.42-14.93 5.17a26.41 26.41 0 0 0-8.49 15.38 25.23 25.23 0 0 0 .43 12c3.72 11.94 22.36 34 35.89 47.12l43.65-44.86a147 147 0 0 0-14.19-12.09Z"></path><path fill="#f37f6a" d="M507.42 357.66c3.84-.25 7.51 1.24 11.13 2.28l12.39 3.54c.92.26 9.39 3.69 6.87 5.37a3.83 3.83 0 0 1 1.52 1.41 1.36 1.36 0 0 1-.5 1.85c-.77.34-2-.15-2.32.61-.12.29 0 .61 0 .92-.1 1.15-1.78 1.21-2.94 1-.58-.11-7.78-.38-7.75-.25a1.67 1.67 0 0 1-.87 1.72 4.45 4.45 0 0 1-2 .49c-2.9.19-5.46-.84-8.29-.81-4.84.06-9.83-.31-14.65.34-1.26.16-5.34 2.71-6.56 3.09-3 .93-3.5-2.37-5.18-5a44.14 44.14 0 0 0-7.27-8.02s15.73-4.72 17.75-5.69c2.75-1.33 5.54-2.65 8.67-2.85Z"></path><path fill="#d66556" d="M523.72 372.12a.42.42 0 0 1-.15 0 30.52 30.52 0 0 0-13.13-2.31.37.37 0 0 1-.41-.36.39.39 0 0 1 .37-.4 31.38 31.38 0 0 1 13.48 2.37.39.39 0 0 1 .21.5.4.4 0 0 1-.37.2ZM534.73 372.43h-.12a176.81 176.81 0 0 0-19.35-5.17.37.37 0 0 1-.3-.45.38.38 0 0 1 .46-.29 176.19 176.19 0 0 1 19.44 5.19.37.37 0 0 1 .24.48.39.39 0 0 1-.37.24ZM536.57 368.76h-.07c-2.78-.51-5.56-1.24-8.24-1.95a78.45 78.45 0 0 0-11.7-2.46.38.38 0 1 1 .08-.76 80.26 80.26 0 0 1 11.82 2.48c2.67.71 5.43 1.44 8.19 1.94a.39.39 0 0 1 .31.45.4.4 0 0 1-.39.3Z"></path><path fill="#8e5b49" d="M405.35 480.27c-.55 0-1.11 0-1.67-.07l-2.61-.23 2.49-.78c7.17-2.24 12.63-8.05 15-16l1 .29c-2.16 7.28-6.87 12.86-13.1 15.68 4.62-.27 9.12-2.13 13.16-3.81 6.31-2.62 12.83-5.33 18.4-9.38l.64.83c-5.66 4.2-12.26 6.9-18.66 9.54-4.42 1.86-9.42 3.93-14.65 3.93ZM283.8 434h-.3v-1a24.3 24.3 0 0 0 16.37-6.1 23.08 23.08 0 0 0 7.61-15.36l1.06.07a24.12 24.12 0 0 1-7.95 16.06A25.42 25.42 0 0 1 283.8 434Z"></path><path fill="#8e5b49" d="m381.09 582.68-.9-.56c14-21.25 26.3-41.79 39.28-63.53 6.24-10.44 12.68-21.24 19.29-32 4.32-7.05 5.44-18 2.67-26.07-1.69-4.92-8.88-11.34-13.71-13.38-5.16-2.18-10.92-2.72-15.87-3-22.52-1.09-45.17 3.35-67.07 7.65s-44.7 8.76-67.36 7.66c-7.42-.36-16.68-1.57-22.5-7.72-6.52-6.88-6.23-17.6-5.44-25.06a154 154 0 0 1 3.45-20l1 .24a152 152 0 0 0-3.43 19.87c-.77 7.26-1.06 17.67 5.16 24.25 5.57 5.88 14.56 7 21.77 7.38 22.53 1.08 45.19-3.35 67.1-7.64s44.68-8.76 67.33-7.66c5.05.24 10.93.79 16.24 3 5.13 2.17 12.5 8.76 14.3 14 2.86 8.32 1.7 19.65-2.76 26.93-6.61 10.79-13.05 21.59-19.29 32-12.94 21.83-25.21 42.37-39.26 63.64Z"></path><path fill="#8c443c" d="M312.14 516.3h2.2v87.8h-2.2z"></path><path fill="#a7735d" d="M144.35 289.25c11.9 4.46 20 15 26.13 26 17.42 31 23.72 68.11 37.33 101.35s31.3 84.75 160.59 65.29c13.76-2.07 27.13-8 36.87-17.8 8.36-8.41 21.85-28.44 1.63-31.61-4.86-.76-9.8.2-14.64 1.12q-37.92 7.19-76.45 10.81c-19.3 1.81-40.73 2.36-55.78-9.55-19.23-15.21-20.45-43.07-27.35-64.4-8.61-26.63-16.17-56.87-35.38-77-15.15-15.9-57.52-35.46-78.3-10.68a41.26 41.26 0 0 0-6.92 12.09c9.37-6.98 20.46-10.04 32.27-5.62Z"></path><path fill="#8e5b49" d="M109.08 315.18c.53 11.07 4 21.36 7.5 31.5 13.7 40 28.81 79.32 43.81 118.73 7.57 19.9 15.87 40.76 33.11 52.49 14 9.57 32.32 11.82 50.17 12.68a428.55 428.55 0 0 0 104.61-8.08c23-4.6 50.93-10.29 64.15-34 9.18-16.45 8.6-33.63 4.69-49.17-6.32 25.18-25.94 39.09-48.72 42.51-129.29 19.46-147-32.05-160.59-65.29S187.9 346.2 170.48 315.2c-6.18-11-14.23-21.51-26.13-26s-22.9-1.36-32.26 5.62a51.86 51.86 0 0 0-3.01 20.36Z"></path><path fill="#a7735d" d="M259.31 457.69h-.41a9.05 9.05 0 0 1-8.79-9.34c.49-11 6.34-21.76 17.39-31.87 20.36-18.64 48-27.39 73.86-23.4 27.93 4.3 51.89 24 59.61 49.12a8.91 8.91 0 0 1-6.17 11.15 9.25 9.25 0 0 1-11.46-6c-5.65-18.35-24.09-33.35-44.86-36.59-20-3.09-42.36 4.1-58.37 18.76-5.1 4.67-11.26 11.87-11.61 19.6a9.1 9.1 0 0 1-9.19 8.57Z"></path></g><g data-name="2"><g data-name="4"><path fill="#d1e7ef" d="M1144.12 536.19a15 15 0 0 0-.42-4.42c-.08-.28-2.25-5-2.65-4.26-3.65 6.7-8.4 10.78-14.91 14.8-2.4 1.49-5.61 3-7.85 1.23a4.55 4.55 0 0 1-1.23-4.92 9.47 9.47 0 0 1 3.21-4.26 22.34 22.34 0 0 1 5.16-3.25c2.36-1.07 4.89-1.73 7.28-2.73a12.92 12.92 0 0 0 6.09-4.63c1.92-3 .64-6.7-.85-9.63-.79-1.57-4.25-7-2.55-8.63a17.26 17.26 0 0 1-5.53 3.58c-1.22.49-2.73.79-3.75 0-1.45-1.16-.78-3.48.09-5.13a19.37 19.37 0 0 1 4.25-5.82c.91-.78 2-1.5 2.34-2.63a4.62 4.62 0 0 0 .1-1.78c-.42-5.59-2.29-10.7-3.6-16.09a4.36 4.36 0 0 0-1.19-2.46c-1.18-1-2.95-.46-4.38.1-5.91 2.34-11.82 4.65-17.72 7s-7 7.14-6.66 13.46c.21 4.3 1.14 8.55 1.16 12.86a5 5 0 0 1-.5 2.57 1.9 1.9 0 0 1-2.23.94 2.76 2.76 0 0 1-1.28-1.65 49.06 49.06 0 0 1-3.65-20.8c.09-1.86-13.7 4.49-14.82 5.05-8.09 4.07-13.48 9.09-12.33 19.3.6 5.36 3 10.38 5.91 14.92 2 3.05 4.27 6.35 3.74 9.92a2.14 2.14 0 0 1-.38 1 2.11 2.11 0 0 1-1.26.65 11 11 0 0 1-8.38-2 28.6 28.6 0 0 1-6.18-6.29c-2.53-3.25-5-6.89-5.07-11 .08 2.18-3.11 5.93-4 8a59.86 59.86 0 0 0-3.06 10.17c-1.45 6.72-1.71 13.88 1.16 20.29 4.36 9.72 14.66 15.26 24.62 19a155.14 155.14 0 0 0 22.22 6.57c5.94 1.27 15.84 4.47 21.45 2.1 6.72-2.83 16.55-11.69 17.44-19.41a70.48 70.48 0 0 1-17.89.37c-1.41-.15-3-.49-3.69-1.75 2.93-1.38 6.32-1.22 9.53-1.65a26.09 26.09 0 0 0 16.24-9c4.44-5.24 4.42-10.48 5.66-16.91a20.53 20.53 0 0 0 .36-2.78Z"></path><path fill="#897d77" d="M1070.68 600h-1.47l57.69-125.64 1.22.56L1070.68 600z"></path><path fill="#897d77" d="m1097.97 539.33-10.76-29.42 1.25-.46 10.25 28 23.76-12.3.61 1.18-25.11 13zM1086.09 565.21l-12.54-19.94 1.13-.71 12.02 19.12 21.71-5.43.33 1.29-22.65 5.67z"></path></g><path fill="#d1e7ef" d="M86.94 465.87c5.39-.26 11.14-1.61 15.13-5.3s5.55-9 5.45-14-1.67-9.75-3.11-14.47A305.76 305.76 0 0 1 94 385.13c-9.88 11-19.87 22.15-26.77 34.89-5.26 9.73-11.4 25.14-7.64 35.59 3.24 8.96 18.46 10.7 27.35 10.26Z"></path><path fill="#897d77" d="M-5.31 478.62h168.73v.83H-5.31z" transform="rotate(-80.94 79.056 479.033)"></path><path fill="#897d77" d="M88.73 418.73a.44.44 0 0 1-.3-.12.42.42 0 0 1-.12-.3.42.42 0 0 1 .12-.29l9.57-9.66a.42.42 0 0 1 .59 0 .42.42 0 0 1 .12.29.42.42 0 0 1-.12.3L89 418.6a.39.39 0 0 1-.27.13Z"></path><path fill="#897d77" d="M88.73 418.73a.39.39 0 0 1-.3-.13l-12.21-12.53a.41.41 0 1 1 .59-.58L89 418a.42.42 0 0 1 0 .59.42.42 0 0 1-.27.14ZM81.94 461.32a.4.4 0 0 1-.29-.12l-22.16-22.4a.42.42 0 0 1 .59-.59L82 460.36l24.83-18.69a.41.41 0 1 1 .5.66l-25.14 18.91a.38.38 0 0 1-.25.08Z"></path><path fill="#d1e7ef" d="M60.18 358.38a25.85 25.85 0 0 0 19.45-6.81c5.76-5.51 8.43-13.68 8.74-21.39s-1.45-15.12-3.2-22.41L77 274a120.4 120.4 0 0 0-30.8 42.35c-3.89 9-7 19.46-5.84 29 1.18 8.91 11.64 12.45 19.82 13.03Z"></path><path fill="#897d77" d="M56.56 567.27a.41.41 0 0 1-.41-.39L44.3 424.9a.49.49 0 0 1 0-.12l32.33-150.92a.43.43 0 0 1 .5-.32.42.42 0 0 1 .31.5L45.13 424.9 57 566.82a.41.41 0 0 1-.38.44Z"></path><path fill="#897d77" d="M67.32 319.72h-.07a.4.4 0 0 1-.3-.23l-10.3-22.62a.42.42 0 0 1 .76-.35l10 22.08 16.24-16a.41.41 0 0 1 .59 0 .42.42 0 0 1 0 .59L67.62 319.6a.42.42 0 0 1-.3.12Z"></path><path fill="#897d77" d="M64.24 334.11h-.07a.44.44 0 0 1-.29-.22L50 308a.41.41 0 0 1 .73-.39L64.36 333l22-19.42a.41.41 0 0 1 .59 0 .42.42 0 0 1 0 .59L64.52 334a.42.42 0 0 1-.28.11Z"></path><path fill="#d1e7ef" d="M10 371.48a11.73 11.73 0 0 0 9.26 5.22 18.1 18.1 0 0 0 11-3.27 14.86 14.86 0 0 0 5.62-6.35c1.68-4 .57-8.59-1.8-11.83s-5.83-5.41-9.28-7.42c-5.54-3.25-10.65-6.36-16.68-8.82-.98 10.36-3.73 23.55 1.88 32.47Z"></path><path fill="#897d77" d="M48.85 406a.44.44 0 0 1-.36-.19L11.1 344.7a.41.41 0 0 1 .14-.57.42.42 0 0 1 .57.13l37.39 61.08a.42.42 0 0 1-.13.57.37.37 0 0 1-.22.09Z"></path><path fill="#897d77" d="M21.48 361.27h-.05l-14.86-1.86a.42.42 0 0 1-.36-.47.42.42 0 0 1 .46-.36l14.46 1.81L23.07 347a.42.42 0 0 1 .83.12l-2 13.78a.42.42 0 0 1-.42.37Z"></path><path fill="#a7735d" d="M27.29 550.18a34.2 34.2 0 0 0-2.2 9.06c-2 19.71 14.37 35.69 36.47 35.69s41.62-16 43.58-35.69a31.33 31.33 0 0 0-.4-9.06Z"></path><g clip-path="url(#f)"><path fill="#321717" d="M82.52 592.78a13.14 13.14 0 0 1-6.91-1.78 13.38 13.38 0 0 1-3.1-3.31c-1.17-1.55-2.27-3-4-3.61-2-.68-4.18 0-6.5.72-.94.29-1.92.59-2.88.79-6.53 1.36-13.32-2.74-14.83-8.94-.18-.74-.31-1.53-.43-2.29-.36-2.25-.71-4.39-2.32-5.55-1.28-.92-3.07-1-4.81-1h-1.5A14.78 14.78 0 0 1 23 560a16.57 16.57 0 0 1 .18-15l.68.35a15.82 15.82 0 0 0-.18 14.29A14 14 0 0 0 35.29 567h1.47c1.85 0 3.76.07 5.24 1.13 1.87 1.36 2.26 3.75 2.63 6.06.12.75.25 1.52.42 2.23 1.42 5.81 7.79 9.64 13.92 8.36.93-.19 1.89-.49 2.82-.77 2.33-.72 4.74-1.47 7-.71 2 .66 3.18 2.3 4.36 3.88A12.81 12.81 0 0 0 76 590.3a12.64 12.64 0 0 0 9.08 1.41 5 5 0 0 0 3.3-2.3l.69.35a5.63 5.63 0 0 1-3.79 2.69 11.43 11.43 0 0 1-2.76.33Z"></path><path fill="#321717" d="M83.33 583.28c-4.17 0-7.75-1.49-9.81-4.14-.3-.39-.57-.8-.84-1.2a6.44 6.44 0 0 0-2.32-2.49 5.92 5.92 0 0 0-2.43-.44 34.58 34.58 0 0 0-4.64.39c-1.31.16-2.66.34-4 .38-2.08.06-5.87-.23-7.9-2.91-1.23-1.64-1.51-3.76-1.79-5.81s-.55-4.08-1.74-5.55c-1.68-2.07-4.51-2.39-7.51-2.72a19 19 0 0 1-6.13-1.38 8.13 8.13 0 0 1-4.16-5.08 9.7 9.7 0 0 1 .87-7.68l.67.39a8.92 8.92 0 0 0-.8 7.06 7.4 7.4 0 0 0 3.76 4.62 18.3 18.3 0 0 0 5.88 1.3c3 .34 6.15.69 8 3 1.33 1.64 1.62 3.82 1.91 5.93s.53 4 1.64 5.44c1.81 2.41 5.33 2.67 7.26 2.61 1.29 0 2.62-.22 3.91-.38a35.66 35.66 0 0 1 4.75-.39 6.57 6.57 0 0 1 2.76.52 7.09 7.09 0 0 1 2.63 2.75c.26.39.52.79.8 1.15 2.22 2.86 6.38 4.26 11.12 3.74 4.32-.47 8.49-2.3 12.53-4.08l.31.71c-4.09 1.8-8.32 3.66-12.76 4.14a17.11 17.11 0 0 1-1.97.12Z"></path><path fill="#321717" d="M87.29 572a32.31 32.31 0 0 1-4.56-.32 5.49 5.49 0 0 1-2.93-1.08 5.36 5.36 0 0 1-1.24-2 8.23 8.23 0 0 0-.51-1c-1.59-2.62-5.35-2.88-8.22-2.64l-1.79.18c-2.73.3-5.55.6-8-.44-3.4-1.44-5.48-5.16-6.19-11l-.06-.52c-.21-1.81-.42-3.68-1.44-5a3.62 3.62 0 0 0-2.6-1.38 2.75 2.75 0 0 0-2.17.76L47 547a3.5 3.5 0 0 1 2.77-1 4.4 4.4 0 0 1 3.23 1.69c1.14 1.52 1.37 3.5 1.59 5.41l.06.52c.67 5.59 2.6 9.09 5.72 10.42 2.27 1 5 .67 7.62.38l1.81-.18c3.09-.26 7.15 0 8.94 3a11.7 11.7 0 0 1 .56 1.12 4.93 4.93 0 0 0 1 1.69 4.8 4.8 0 0 0 2.53.88c8.73 1.25 19.83-1.11 25-9.2l.65.41C104 569.16 95.28 572 87.29 572Z"></path><path fill="#321717" d="M91 563.68a13.13 13.13 0 0 1-7.38-2.08c-.46-.3-.9-.64-1.32-1a11.53 11.53 0 0 0-2.46-1.6c-1.68-.7-3.74-.58-5.74-.47-2.55.14-5.19.29-7.12-1.28C65.4 556 64.85 554 64.32 552c-.19-.69-.39-1.41-.62-2.07a5.82 5.82 0 0 0-3.11-3.42 2.74 2.74 0 0 0-2.42.17l-.38-.67a3.56 3.56 0 0 1 3.07-.23 6.53 6.53 0 0 1 3.56 3.89c.25.69.45 1.42.64 2.13.53 1.92 1 3.73 2.41 4.86 1.69 1.38 4.07 1.25 6.59 1.11a13.86 13.86 0 0 1 6.08.53 12 12 0 0 1 2.64 1.7c.41.32.84.65 1.27.94 7 4.65 17-.19 21-2.49 4.19-2.43 6.48-4.93 7-7.65l.76.14c-.56 3-3 5.63-7.36 8.18-2.85 1.66-8.68 4.56-14.45 4.56Z"></path><path fill="#321717" d="M93.41 557.52a8 8 0 0 1-6-2.2 13.93 13.93 0 0 1-1.9-2.74c-1-1.74-2-3.38-3.82-3.57a6.86 6.86 0 0 0-1.93.17 9.52 9.52 0 0 1-1.7.21v-.77a8.77 8.77 0 0 0 1.56-.2 7.4 7.4 0 0 1 2.15-.18c2.23.23 3.33 2.12 4.4 4a13.73 13.73 0 0 0 1.79 2.6c2.06 2.12 5.94 2.54 10.39 1.12a14.8 14.8 0 0 0 6.11-3.43 7.25 7.25 0 0 0 2.28-6.1l.76-.15a7.88 7.88 0 0 1-2.5 6.79 15.32 15.32 0 0 1-6.42 3.62 17.57 17.57 0 0 1-5.17.83ZM72.19 598.8a25.14 25.14 0 0 0-18.33-7.5c-.86 0-1.74.05-2.6.1-2.95.14-6 .29-8.55-1s-4-3.54-5.45-6l-.06-.1c-1.34-2.22-2.72-4.51-4.9-5.81s-5.38-1.32-7.26.73l-.57-.53c2.14-2.33 5.87-2.27 8.22-.87s3.78 3.78 5.17 6.08l.07.1c1.42 2.36 2.88 4.57 5.13 5.71s5.31 1.07 8.16.92c.87 0 1.76-.08 2.63-.09H54a26 26 0 0 1 18.71 7.73Z"></path></g><g data-name="3"><path fill="#d1e7ef" d="M912.67 461.88a20.25 20.25 0 0 1 .56-5.92c.1-.37 3-6.68 3.55-5.71 4.9 9 11.28 14.45 20 19.85 3.22 2 7.53 4 10.53 1.64 1.91-1.48 2.38-4.3 1.65-6.6a12.91 12.91 0 0 0-4.3-5.71 30.6 30.6 0 0 0-6.93-4.35c-3.16-1.44-6.55-2.32-9.75-3.67s-6.32-3.27-8.18-6.2c-2.57-4-.85-9 1.14-12.92 1.07-2.11 5.7-9.38 3.43-11.58a23 23 0 0 0 7.41 4.8c1.63.66 3.66 1.07 5 0 2-1.56 1.05-4.67-.12-6.88a25.9 25.9 0 0 0-5.71-7.81c-1.21-1-2.66-2-3.13-3.53a6.33 6.33 0 0 1-.14-2.38c.58-7.5 3.07-14.36 4.84-21.58a5.84 5.84 0 0 1 1.59-3.3c1.59-1.31 4-.62 5.88.14 7.92 3.13 15.85 6.23 23.76 9.39s9.36 9.59 8.93 18.06c-.29 5.76-1.53 11.47-1.55 17.24a6.63 6.63 0 0 0 .66 3.45 2.56 2.56 0 0 0 3 1.26 3.67 3.67 0 0 0 1.71-2.21 65.48 65.48 0 0 0 4.89-27.9c-.11-2.49 18.38 6 19.89 6.78 10.84 5.46 18.07 12.19 16.53 25.87-.81 7.2-4 13.93-7.93 20-2.63 4.09-5.73 8.51-5 13.31a2.81 2.81 0 0 0 .5 1.38 2.94 2.94 0 0 0 1.7.87c3.86.87 8-.41 11.23-2.63a38.11 38.11 0 0 0 8.29-8.43c3.39-4.35 6.74-9.24 6.81-14.76-.12 2.93 4.16 8 5.3 10.73a80.76 80.76 0 0 1 4.11 13.63c1.94 9 2.29 18.63-1.56 27.21-5.84 13-19.66 20.47-33 25.54a207.48 207.48 0 0 1-29.8 8.81c-8 1.71-21.25 6-28.77 2.82-9-3.8-22.19-15.68-23.38-26a94.91 94.91 0 0 0 24 .5c1.89-.21 4.07-.66 5-2.35-3.93-1.86-8.48-1.64-12.79-2.21a35 35 0 0 1-21.77-12.12c-6-7-5.93-14.05-7.59-22.68a27.36 27.36 0 0 1-.49-3.85Z"></path><path fill="#897d77" d="m1035.37 600-101.1-220.17 1.35-.61L1037 600h-1.63z"></path><path fill="#897d77" d="m974.48 465.89-33.52-17.36.68-1.32 32.02 16.58 13.79-37.71 1.4.51-14.37 39.3zM990.43 500.63l-30.27-7.57.36-1.44 29.22 7.31 16.18-25.74 1.26.79-16.75 26.65z"></path></g></g></g></svg>