<svg xmlns="http://www.w3.org/2000/svg" enable-background="new 0 0 66 66" viewBox="0 0 66 66" id="robot"><circle cx="32.998" cy="33.249" r="31" fill="#3590CE"></circle><path fill="#A0CADF" d="M50.39983,58.90594c-4.96002,3.37-10.95001,5.33997-17.40002,5.33997
				c-6.44,0-12.41998-1.95996-17.37-5.31995c4.35999-4.63,10.53998-7.52002,17.40003-7.52002
				C39.87981,51.40594,46.04979,54.28595,50.39983,58.90594z"></path><rect width="5.334" height="5.334" x="30.331" y="12.039" fill="#7DB0C8"></rect><polygon fill="#7DB0C8" points="33.448 4.882 34.528 12.039 31.467 12.039 32.547 4.882"></polygon><path fill="#172540" d="M35.66473,18.12317h-5.33398c-0.41406,0-0.75-0.33594-0.75-0.75v-5.33398
				c0-0.41406,0.33594-0.75,0.75-0.75h5.33398c0.41406,0,0.75,0.33594,0.75,0.75v5.33398
				C36.41473,17.78723,36.0788,18.12317,35.66473,18.12317z M31.08075,16.62317h3.83398v-3.83398h-3.83398V16.62317z"></path><path fill="#172540" d="M34.54803,12.78918c-0.00684-0.00098-0.0127-0.00049-0.02002,0h-3.06104
				c-0.21826,0-0.42627-0.09521-0.56836-0.26074c-0.14258-0.16553-0.20605-0.38525-0.17334-0.60107l1.08008-7.15771
				c0.05566-0.3667,0.37061-0.63818,0.7417-0.63818h0.90137c0.37109,0,0.68604,0.27148,0.7417,0.63818l1.0542,6.99072
				c0.03467,0.08594,0.05371,0.18018,0.05371,0.27881C35.29803,12.45325,34.9621,12.78918,34.54803,12.78918z M32.33856,11.28918
				h1.31787l-0.65869-4.36768L32.33856,11.28918z"></path><path fill="#F05239" d="M35.15723,3.9083c0,1.18775-0.97178,2.1596-2.1596,2.1596c-1.19856,0-2.1596-0.97185-2.1596-2.1596
				c0-1.19856,0.96104-2.1596,2.1596-2.1596C34.18544,1.7487,35.15723,2.70974,35.15723,3.9083z"></path><path fill="#FFF" d="M34.21998,2.1158c0.06479,0.68028-0.22678,1.47932-0.82066,2.13805
				c-0.60469,0.66947-1.39292,1.02582-2.0732,1.02582C31.02375,4.9017,30.8402,4.42658,30.8402,3.9083
				c0-1.19856,0.96104-2.1596,2.1596-2.1596c0.44275,0,0.86383,0.12957,1.20937,0.36709H34.21998z"></path><path fill="#7DB0C8" d="M32.99763,15.06074c-5.99551,0-10.8558,4.86028-10.8558,10.85573v28.07295h21.7116V25.91647
				C43.85342,19.92103,38.99314,15.06074,32.99763,15.06074z"></path><rect width="21.712" height="3.439" x="22.142" y="39.654" fill="#010101" opacity=".1"></rect><path fill="#FFF" d="M40.64878,21.11689c-0.02622,4.9886-5.50035,8.99833-12.22739,8.96297
				c-2.31075-0.01214-4.46783-0.4986-6.2991-1.33971l0.01504-2.86139c0.0315-5.99279,4.92688-10.82623,10.91967-10.79473
				c2.41871,0.01271,4.63892,0.81263,6.43517,2.16103C40.24178,18.42602,40.65604,19.73473,40.64878,21.11689z" opacity=".2"></path><path fill="#4E798D" d="M42.35064,27.89712H23.64461c-3.5052,0-6.34666,2.84153-6.34666,6.34666v0.00007
				c0,3.50513,2.84146,6.34666,6.34666,6.34666h18.70603c3.5052,0,6.34666-2.84153,6.34666-6.34666v-0.00007
				C48.6973,30.73865,45.85584,27.89712,42.35064,27.89712z"></path><path fill="#FFF" d="M32.83563 34.24596c0 2.83988-2.31072 5.13986-5.1506 5.13986s-5.13986-2.29998-5.13986-5.13986 2.29998-5.13986 5.13986-5.13986S32.83563 31.40608 32.83563 34.24596zM43.8534 34.24596c0 2.83988-2.31072 5.13986-5.1506 5.13986-2.83988 0-5.13986-2.29998-5.13986-5.13986s2.29998-5.13986 5.13986-5.13986C41.54268 29.1061 43.8534 31.40608 43.8534 34.24596z"></path><path fill="#010101" d="M48.60914,33.23199c-0.48553-3.02297-3.09855-5.33487-6.25849-5.33487H23.64462
				c-3.16,0-5.77296,2.3119-6.25849,5.33487H48.60914z" opacity=".1"></path><path fill="#7DB0C8" d="M46.84285,29.75395c-1.14459-1.14458-2.74267-1.85722-4.49194-1.85722H23.64876
				c-3.50935,0-6.34923,2.83988-6.34923,6.34923c0,0.86383,0.17274,1.68448,0.48592,2.44036
				c0.32393,0.76662,0.78823,1.46851,1.3713,2.05158c1.14458,1.14459,2.74273,1.85729,4.492,1.85729h18.70214
				c3.50935,0,6.34923-2.85069,6.34923-6.34923C48.70013,32.49669,47.98743,30.89853,46.84285,29.75395z M42.35091,37.89568
				H23.64876c-1.01501,0-1.93288-0.41033-2.59155-1.0798c-0.64785-0.65866-1.05818-1.56572-1.05818-2.56993
				c0-2.00842,1.63051-3.64973,3.64973-3.64973h18.70214c2.00841,0,3.64973,1.64132,3.64973,3.64973
				C46.00063,36.25437,44.35932,37.89568,42.35091,37.89568z"></path><path fill="#FFF" d="M32.22293,27.91389c-0.01574,0.93935-0.22567,1.84532-0.59731,2.6964l-8.00118-0.04205
				c-2.01919-0.01061-3.6583,1.62211-3.66886,3.6305c-0.00528,1.00419,0.40028,1.9134,1.04466,2.57545
				c-0.33484,0.01979-0.66963,0.02884-1.00436,0.02708c-0.77741-0.00409-1.53299-0.06203-2.26667-0.17384
				c-0.30921-0.75751-0.47763-1.57906-0.47309-2.44288c0.01845-3.5093,2.87321-6.33422,6.38251-6.31577L32.22293,27.91389z" opacity=".2"></path><path fill="#172540" d="M34.69,1.53998C34.20996,1.19995,33.63,1,33,1s-1.21002,0.19995-1.69,0.53998
				C14.58002,2.42999,1.25,16.31,1.25,33.25C1.25,50.88995,15.64001,65,33,65c17.52997,0,31.75-14.26001,31.75-31.75
				C64.75,16.31,51.40997,2.42999,34.69,1.53998z M34.40997,3.90997c0,0.77997-0.63,1.40997-1.40997,1.40997
				c-0.78003,0-1.41003-0.63-1.41003-1.40997C31.58997,3.1309,32.21871,2.5,33,2.5C33.78695,2.5,34.40997,3.14771,34.40997,3.90997z
				 M33,63.5c-5.62,0-11.23999-1.57001-16.17999-4.71002c1.66998-1.64001,3.53998-3,5.56-4.04999h21.29999
				c2.01001,1.03998,3.87,2.38995,5.52997,4.02997C44.32001,61.88995,38.71997,63.5,33,63.5z M23.64996,28.64996h18.70001
				c1.47003,0,2.91003,0.58002,3.96002,1.63c1.06,1.06,1.64001,2.47003,1.64001,3.97003c0,2.97998-2.41003,5.59998-5.60004,5.59998
				H23.64996c-3.07996,0-5.59998-2.51001-5.59998-5.59998C18.04999,31.08997,20.63,28.64996,23.64996,28.64996z M22.89001,27.18994
				v-1.26996C22.89001,20.33997,27.42999,15.81,33,15.81s10.09998,4.52997,10.09998,10.10999v1.26996
				c-0.25-0.02997-0.5-0.03998-0.75-0.03998H23.64996C23.39001,27.14996,23.14001,27.15997,22.89001,27.18994z M43.09998,41.31
				v11.92999H22.89001V41.31c0.25,0.02997,0.50995,0.03998,0.75995,0.03998h18.70001
				C42.59998,41.34998,42.84998,41.33997,43.09998,41.31z M50.46997,57.91998c-1.76001-1.78003-3.72998-3.25-5.87-4.39001V40.97998
				c2.82001-0.94,4.85004-3.60999,4.85004-6.72998c0-1.90002-0.74005-3.69-2.08002-5.03003
				c-0.78998-0.78998-1.73999-1.37-2.77002-1.71002v-1.58997C44.59998,19.51996,39.39996,14.31,33,14.31
				c-6.40002,0-11.60999,5.20996-11.60999,11.60999v1.60999c-2.81,0.92999-4.84003,3.59003-4.84003,6.72003
				c0,3.12,2.03003,5.79999,4.84003,6.72998V53.56c-2.13,1.14996-4.09003,2.60999-5.84003,4.37994
				C7.81,52.44995,2.75,43.42999,2.75,33.25c0-15.74005,12.08002-28.70001,27.45001-30.11005
				c-0.07001,0.25-0.11005,0.5-0.11005,0.77002c0,1.59998,1.30005,2.90997,2.91003,2.90997c1.59998,0,2.90997-1.31,2.90997-2.90997
				c0-0.27002-0.03998-0.52002-0.10999-0.77002C51.16998,4.54999,63.25,17.50995,63.25,33.25
				C63.25,43.41998,58.20001,52.42999,50.46997,57.91998z"></path><path fill="#172540" d="M42.62,29.85999c-0.14037-0.01561,1.06799-0.01001-18.97003-0.01001
				c-2.38995,0-4.39996,1.92999-4.39996,4.40002c0,2.45996,2.01996,4.39996,4.39996,4.39996
				c8.11267,0.00261,18.8628,0.00191,18.97003-0.01001C44.88,38.5,46.75,36.60999,46.75,34.25
				C46.75,31.90997,44.90997,30,42.62,29.85999z M33.58002,31.34998c-0.15002,0.26001-0.27002,0.53998-0.38,0.82001
				c-0.11005-0.28003-0.23004-0.56-0.39001-0.82001H33.58002z M20.75,34.25c0-1.17004,0.70001-2.16003,1.66998-2.62006
				c-0.40002,0.79004-0.62,1.68005-0.62,2.62006c0,0.93994,0.21997,1.82996,0.62,2.62C21.45001,36.40997,20.75,35.41998,20.75,34.25
				z M24.39996,37.14996c-0.69-0.77002-1.09998-1.78998-1.09998-2.89996c0-1.11005,0.40997-2.13,1.09998-2.90002h6.59003
				c0.69,0.77002,1.09998,1.78998,1.09998,2.90002c0,1.10999-0.40997,2.12994-1.09998,2.89996H24.39996z M32.79999,37.14996
				c0.15997-0.26001,0.28998-0.53998,0.40002-0.83002c0.10999,0.29004,0.23999,0.57001,0.38995,0.83002H32.79999z
				 M35.40997,37.14996C34.71997,36.37994,34.31,35.35999,34.31,34.25c0-1.11005,0.40997-2.13,1.09998-2.90002H42
				c0.69,0.77002,1.09998,1.78998,1.09998,2.90002c0,1.10999-0.40997,2.12994-1.09998,2.89996H35.40997z M44.14996,36.52997
				C44.44,35.82996,44.59998,35.06,44.59998,34.25c0-0.81006-0.15997-1.58002-0.45996-2.28003
				C44.82001,32.5,45.25,33.32996,45.25,34.25C45.25,35.17999,44.82001,35.98999,44.14996,36.52997z"></path><path fill="#FFF" d="M37.91762,43.64862h-9.7238c-2.142,0-3.87842,1.73642-3.87842,3.87842
				c0,2.14194,1.73642,3.87836,3.87842,3.87836h9.7238c2.14201,0,3.87842-1.73642,3.87842-3.87836
				C41.79604,45.38504,40.05963,43.64862,37.91762,43.64862z"></path><circle cx="38.708" cy="34.246" r="1.051" fill="#172540"></circle><circle cx="27.69" cy="34.246" r="1.051" fill="#172540"></circle><path fill="#172540" d="M37.91766,42.89856h-9.72363c-2.55225,0-4.62842,2.07617-4.62842,4.62842
				s2.07617,4.62842,4.62842,4.62842h9.72363c2.55225,0,4.62842-2.07617,4.62842-4.62842S40.46991,42.89856,37.91766,42.89856z
				 M40.94501,46.77698h-2.84277v-2.35974C39.48395,44.49963,40.6214,45.47369,40.94501,46.77698z M36.60223,50.6554h-2.79639
				v-2.37842h2.79639V50.6554z M29.50897,48.27698h2.79688v2.37842h-2.79688V48.27698z M29.50897,44.39856h2.79688v2.37842h-2.79688
				V44.39856z M33.80585,46.77698v-2.37842h2.79639v2.37842H33.80585z M28.00897,44.4173v2.35968h-2.84229
				C25.49023,45.47382,26.62738,44.49994,28.00897,44.4173z M25.16669,48.27698h2.84229v2.35968
				C26.62738,50.55402,25.49023,49.58014,25.16669,48.27698z M38.10223,50.63672v-2.35974h2.84277
				C40.6214,49.58026,39.48395,50.55432,38.10223,50.63672z"></path><ellipse cx="27.536" cy="23.605" fill="#FFF" opacity=".2" rx="2.154" ry="2.952" transform="rotate(42.218 27.535 23.605)"></ellipse><ellipse cx="31.38" cy="19.662" fill="#FFF" opacity=".2" rx="1.088" ry="1.491" transform="rotate(42.218 31.38 19.661)"></ellipse><path fill="#172540" d="M25.00165 24.90686c-.08838 0-.17822-.01563-.26563-.04883-.38721-.14648-.58252-.57959-.43555-.9668.67383-1.78076 1.79248-3.38623 3.23438-4.64258.31201-.27295.78564-.24072 1.05811.07275.27197.31201.23975.78613-.07275 1.05811-1.25586 1.09473-2.22998 2.49268-2.81738 4.04297C25.58954 24.72229 25.30438 24.90686 25.00165 24.90686zM29.78827 19.3136c-.26025 0-.51367-.13574-.65234-.37891-.20508-.35986-.07959-.81738.28027-1.02295.52881-.30078 1.08447-.56201 1.65283-.77588.38574-.14844.82031.04932.96582.4375.146.38721-.0498.81982-.4375.96582-.49414.18652-.97803.41357-1.43799.67627C30.04218 19.28186 29.91425 19.3136 29.78827 19.3136z"></path></svg>