<svg xmlns="http://www.w3.org/2000/svg" width="2000" height="2000" fill="none" id="web-development"><path fill="#fff" d="M1749.66 310.805H149.525V1658.38H1749.66V310.805Z"></path><path fill="#02133B" d="M1750.05 1660.09H149.525c-.514 0-1.008-.21-1.371-.57a1.954 1.954 0 0 1-.568-1.37V310.805a1.938 1.938 0 0 1 1.939-1.939H1750.05c.51 0 1.01.204 1.37.568.37.364.57.857.57 1.371V1658.15c0 .51-.2 1-.57 1.37-.36.36-.86.57-1.37.57Zm-1598.587-3.88H1748.11V312.743H151.463V1656.21Z"></path><path fill="#02133B" d="M1750.05 394.166H149.525a1.937 1.937 0 0 1-1.939-1.939 2.325 2.325 0 0 1 1.939-1.938H1750.05c.49.076.94.305 1.29.653.34.348.57.798.65 1.285 0 .514-.2 1.007-.57 1.371-.36.364-.86.568-1.37.568ZM588.816 1619.37H213.499c-.514 0-1.007-.2-1.371-.56a1.957 1.957 0 0 1-.567-1.37V451.161c0-.514.204-1.007.567-1.371a1.942 1.942 0 0 1 1.371-.567h375.317a1.938 1.938 0 0 1 1.939 1.938V1617.44c0 .51-.204 1-.568 1.37-.363.36-.856.56-1.371.56Zm-373.378-3.87h371.44V453.1h-371.44v1162.4Z"></path><path fill="#F14146" d="M1423.2 348.026c23.55 0 42.65-19.095 42.65-42.65s-19.1-42.649-42.65-42.649c-23.56 0-42.65 19.094-42.65 42.649s19.09 42.65 42.65 42.65Z"></path><path fill="#02133B" d="M1400.71 359.658a44.19 44.19 0 0 1-24.45-7.423 44.221 44.221 0 0 1-16.26-19.717 44.333 44.333 0 0 1-3.61-16.911c-.07-5.82 1-11.597 3.16-17.001a44.176 44.176 0 0 1 9.44-14.488 44.245 44.245 0 0 1 14.27-9.759 44.605 44.605 0 0 1 34.09-.478 44.615 44.615 0 0 1 24.46 23.742 44.23 44.23 0 0 1 3.55 16.974 44.202 44.202 0 0 1-3.26 17.034 44.039 44.039 0 0 1-9.55 14.47c-4.11 4.145-9 7.435-14.39 9.68a39.561 39.561 0 0 1-17.45 3.877Zm0-85.299a38.015 38.015 0 0 0-15.9 3.49 39.123 39.123 0 0 0-13.13 8.811 39.282 39.282 0 0 0-8.58 13.289 40.67 40.67 0 0 0-1.91 23.498 40.689 40.689 0 0 0 11.43 20.619 40.723 40.723 0 0 0 20.94 10.825c7.9 1.464 16.05.559 23.44-2.599a40.29 40.29 0 0 0 12.95-8.967 40.204 40.204 0 0 0 8.53-13.249 40.318 40.318 0 0 0 2.81-15.506 40.428 40.428 0 0 0-3.36-15.397 40.33 40.33 0 0 0-14.85-18.042 40.348 40.348 0 0 0-22.37-6.772ZM1780.29 229.771l-1.94-.776-14.73-23.263a1.962 1.962 0 0 1-.17-1.518c.14-.509.48-.939.95-1.196.46-.257 1.01-.32 1.51-.175.51.146.94.487 1.2.95l14.73 22.876c.39 1.163.39 2.326-.77 2.714l-.78.388Z"></path><path fill="#F7AE38" d="m538.412 227.832 17.06-78.708 56.22 55.445-73.28 23.263Z"></path><path fill="#02133B" d="M506.619 229.77h-1.551a1.55 1.55 0 0 1-.388-1.938l16.672-79.096c.388-.775.776-1.551 1.551-1.551a1.55 1.55 0 0 1 1.939.388l56.22 55.832a1.553 1.553 0 0 1 .775 1.551 3.1 3.1 0 0 1-1.551 1.551l-73.279 23.263h-.388Zm17.835-76.769-15.509 72.117 67.076-21.325-51.567-50.792Z"></path><path fill="#F14146" d="M58.797 814.072c10.065 0 18.223-8.159 18.223-18.223 0-10.064-8.158-18.223-18.223-18.223-10.064 0-18.223 8.159-18.223 18.223 0 10.064 8.159 18.223 18.223 18.223Z"></path><path fill="#02133B" d="M46.778 816.011a19.781 19.781 0 0 1-18.382-12.476 19.773 19.773 0 0 1-1.392-7.686 20.164 20.164 0 0 1 24.24-19.741 20.166 20.166 0 0 1 15.742 16.051 20.161 20.161 0 0 1-20.208 23.852Zm0-36.447a16.284 16.284 0 1 0 0 32.569 16.284 16.284 0 0 0 0-32.569Z"></path><path fill="#3A81E1" d="m872.541 1085.64-45.538-26.17-26.191 45.57 45.539 26.17 26.19-45.57Z"></path><path fill="#02133B" d="M859.836 1128.13h-.776l-45.363-25.98c-1.164-.78-1.551-1.94-.776-2.71l25.978-45.37c.337-.36.769-.63 1.248-.77.479-.13.986-.14 1.466 0l45.363 26.36 1.164 1.17c.017.21-.008.42-.074.62-.067.2-.174.38-.314.54l-25.978 45.75-1.938.39Zm-42.65-28.69 41.874 24.04 24.427-41.88-41.874-24.43-24.427 42.27ZM1680.26 582.211a1.916 1.916 0 0 1-1.55-.775 1.944 1.944 0 0 1-.37-1.437c.07-.509.35-.969.76-1.277l107.78-67.464a1.95 1.95 0 0 1 2.72.388c.18.474.21.997.07 1.488-.14.49-.44.921-.85 1.226l-107.4 67.464-1.16.387ZM193.338 1256.85h-.776l-82.197-49.63a1.959 1.959 0 0 1-.95-1.19 1.998 1.998 0 0 1 2.888-2.3l82.198 49.63a1.95 1.95 0 0 1 .388 2.72l-1.551.77Z"></path><path fill="#3A81E1" d="M213.499 1777.18h-.775a2.364 2.364 0 0 1-1.068-1.15 2.333 2.333 0 0 1-.095-1.57l10.468-31.79c.175-.45.509-.81.939-1.03.43-.21.925-.26 1.388-.13a1.544 1.544 0 0 1 1.212.85c.116.23.172.48.163.74-.008.26-.081.51-.212.73l-10.081 31.8c-.091.44-.334.84-.689 1.12-.354.29-.796.44-1.25.43ZM267.393 519.401h174.088a75.993 75.993 0 0 1 75.994 75.994v241.552H267.393V519.401Z"></path><path fill="#02133B" d="M434.114 563.601h-83.36a1.938 1.938 0 1 1 0-3.877h83.36a1.938 1.938 0 1 1 0 3.877Z"></path><path fill="#F14146" d="M341.448 584.926h-35.283v35.36h35.283v-35.36Z"></path><path fill="#02133B" d="M341.448 696.203h-35.283a1.934 1.934 0 0 1-1.37-.568 1.935 1.935 0 0 1-.568-1.371v-35.282c0-.515.204-1.008.568-1.371a1.934 1.934 0 0 1 1.37-.568h35.283a1.937 1.937 0 0 1 1.939 1.939v35.282a1.937 1.937 0 0 1-1.939 1.939Zm-33.344-3.877h31.406V660.92h-31.406v31.406Z"></path><path fill="#F7AE38" d="M341.448 735.362h-35.283v35.361h35.283v-35.361Z"></path><path fill="#02133B" d="M472.887 604.312H360.834a1.934 1.934 0 0 1-1.37-.568 1.934 1.934 0 0 1 0-2.741 1.934 1.934 0 0 1 1.37-.568h112.053a2.325 2.325 0 0 1 1.938 1.939 1.938 1.938 0 0 1-1.938 1.938ZM474.438 680.306H362.385a1.938 1.938 0 1 1 0-3.877h112.053a1.938 1.938 0 1 1 0 3.877ZM474.438 754.748H362.385a1.938 1.938 0 1 1 0-3.877h112.053a2.328 2.328 0 0 1 1.938 1.939c0 .514-.204 1.007-.567 1.371a1.942 1.942 0 0 1-1.371.567ZM513.986 580.273h-54.282a1.938 1.938 0 0 1-1.938-1.939v-56.607a1.94 1.94 0 0 1 1.938-1.939 1.938 1.938 0 0 1 1.939 1.939v54.669h52.343c.514 0 1.007.204 1.37.568a1.934 1.934 0 0 1 0 2.741 1.934 1.934 0 0 1-1.37.568ZM332.143 1449.55c-.514 0-1.007-.2-1.371-.57a1.923 1.923 0 0 1-.568-1.37v-146.94c0-.52.205-1.01.568-1.38.364-.36.857-.56 1.371-.56s1.007.2 1.371.56c.363.37.568.86.568 1.38v146.94c0 .52-.205 1.01-.568 1.37-.364.37-.857.57-1.371.57ZM450.011 1449.55c-.514 0-1.007-.2-1.371-.57a1.923 1.923 0 0 1-.568-1.37v-146.94c0-.52.205-1.01.568-1.38.364-.36.857-.56 1.371-.56s1.007.2 1.371.56c.363.37.568.86.568 1.38v146.94c0 .52-.205 1.01-.568 1.37-.364.37-.857.57-1.371.57Z"></path><path fill="#02133B" d="M461.255 1313.85h-173.7c-.515 0-1.008-.21-1.371-.57a1.936 1.936 0 0 1 0-2.74c.363-.37.856-.57 1.371-.57h173.7c.514 0 1.007.2 1.371.57a1.936 1.936 0 0 1 0 2.74c-.364.36-.857.57-1.371.57ZM461.255 1343.7l-173.7-1.55c-.515 0-1.008-.2-1.371-.57a1.936 1.936 0 0 1 0-2.74c.363-.36.856-.57 1.371-.57l173.7 1.55c.514 0 1.007.21 1.371.57.364.37.568.86.568 1.37 0 .52-.204 1.01-.568 1.37-.364.37-.857.57-1.371.57ZM474.826 1427.45H287.555c-.515 0-1.008-.2-1.371-.57a1.936 1.936 0 0 1 0-2.74c.363-.36.856-.57 1.371-.57h187.271c.514 0 1.007.21 1.37.57a1.936 1.936 0 0 1 0 2.74c-.363.37-.856.57-1.37.57Z"></path><path fill="#02133B" d="M333.306 1427.45h-.775a2.318 2.318 0 0 1-1.068-1.15 2.314 2.314 0 0 1-.096-1.56l43.038-113.61a1.557 1.557 0 0 1 .847-1.21c.231-.12.488-.17.746-.16.258.01.51.08.733.21.268.08.515.22.724.41a1.953 1.953 0 0 1 .641 1.5c-.008.28-.077.55-.202.8l-42.649 113.61a1.95 1.95 0 0 1-1.939 1.16ZM404.26 1383.25h-27.917l-1.938-.77a1.93 1.93 0 0 1 0-1.94l14.733-36.45a2.346 2.346 0 0 1 1.939-1.04 2.346 2.346 0 0 1 1.939 1.04l12.795 36.45c.22.27.34.61.34.97 0 .35-.12.69-.34.97l-1.551.77Zm-25.202-3.88h22.488l-10.469-29.08-12.019 29.08ZM362.385 1427.45h-1.163c-.377-.24-.661-.6-.802-1.02-.141-.43-.132-.89.027-1.31l11.244-22.48c0-.78.775-1.17 1.551-1.17h36.833c.338.04.659.17.932.38.272.2.486.47.619.79l11.632 22.48c.159.42.168.88.027 1.31-.141.42-.425.78-.802 1.02a1.56 1.56 0 0 1-1.607.49 1.648 1.648 0 0 1-.739-.47c-.196-.22-.324-.5-.368-.79l-11.245-21.33h-34.119l-10.469 21.33a2 2 0 0 1-.684.57c-.269.13-.566.2-.867.2Z"></path><path fill="#02133B" d="M503.517 1449.55H281.351c-.514 0-1.007-.2-1.371-.57a1.923 1.923 0 0 1-.568-1.37v-146.94c0-.52.205-1.01.568-1.38.364-.36.857-.56 1.371-.56h222.166c.514 0 1.007.2 1.371.56.363.37.568.86.568 1.38v146.94c0 .52-.205 1.01-.568 1.37-.364.37-.857.57-1.371.57Zm-220.227-3.88h218.288V1302.6H283.29v143.07ZM807.493 853.618a1.942 1.942 0 0 1-1.939-1.938V466.282a2.32 2.32 0 0 1 .654-1.285 2.32 2.32 0 0 1 1.285-.654 1.943 1.943 0 0 1 1.939 1.939V851.68a1.942 1.942 0 0 1-1.939 1.938Z"></path><path fill="#02133B" d="M807.493 559.336a1.942 1.942 0 0 1-1.939-1.938 2.326 2.326 0 0 1 1.939-1.939l481.167-1.551c.51 0 1.01.204 1.37.568.36.364.57.857.57 1.371s-.21 1.007-.57 1.371a1.94 1.94 0 0 1-1.37.567l-481.167 1.551Z"></path><path fill="#02133B" d="M1091.31 628.739c-.52 0-1.01-.204-1.37-.568a1.912 1.912 0 0 1-.57-1.371V484.118c0-.514.2-1.007.57-1.371.36-.364.85-.568 1.37-.568.51 0 1 .204 1.37.568.36.364.57.857.57 1.371V626.8a2.34 2.34 0 0 1-1.94 1.939Z"></path><path fill="#fff" d="M1183.97 436.815H998.641v47.225h185.329v-47.225Z"></path><path fill="#02133B" d="M1183.59 486.057H998.641a1.943 1.943 0 0 1-1.939-1.939v-47.302a1.94 1.94 0 0 1 1.939-1.939h184.949c.51 0 1 .204 1.37.568.36.363.56.856.56 1.371v47.302c0 .514-.2 1.007-.56 1.371-.37.363-.86.568-1.37.568Zm-183.01-3.878h181.07v-43.425h-181.07v43.425ZM1167.69 629.514h-152.76c-9 0-16.289 7.291-16.289 16.285v14.656c0 8.993 7.289 16.284 16.289 16.284h152.76c8.99 0 16.28-7.291 16.28-16.284v-14.656c0-8.994-7.29-16.285-16.28-16.285Z"></path><path fill="#F7AE38" d="M900.547 629.514H715.215v47.225h185.332v-47.225Z"></path><path fill="#fff" d="M878.834 436.815H736.927c-11.991 0-21.712 9.721-21.712 21.713v3.8c0 11.991 9.721 21.712 21.712 21.712h141.907c11.992 0 21.713-9.721 21.713-21.712v-3.8c0-11.992-9.721-21.713-21.713-21.713Z"></path><path fill="#02133B" d="M878.446 486.057H736.927a23.652 23.652 0 0 1-23.651-24.039v-3.49a23.653 23.653 0 0 1 23.651-23.651h141.519a23.652 23.652 0 0 1 23.652 23.651v3.49a23.673 23.673 0 0 1-1.688 9.17 23.658 23.658 0 0 1-21.964 14.869Zm-141.519-47.303a19.775 19.775 0 0 0-19.774 19.774v3.49a19.777 19.777 0 0 0 19.774 20.161h141.519a19.76 19.76 0 0 0 14.122-5.928 19.779 19.779 0 0 0 5.652-14.233v-3.49a19.767 19.767 0 0 0-5.791-13.982 19.781 19.781 0 0 0-13.983-5.792H736.927Z"></path><path fill="#3A81E1" d="M1435.99 534.134h-142.68c-11.78 0-21.32 9.547-21.32 21.325v4.575c0 11.777 9.54 21.325 21.32 21.325h142.68c11.78 0 21.33-9.548 21.33-21.325v-4.575c0-11.778-9.55-21.325-21.33-21.325Z"></path><path fill="#F14146" d="m710.562 865.251 96.931-43.037 97.319 43.037-97.319 44.589-96.931-44.589Z"></path><path fill="#02133B" d="M868.753 462.405H757.476a1.939 1.939 0 0 1 0-3.878h111.277a1.94 1.94 0 0 1 1.939 1.939 2.325 2.325 0 0 1-1.939 1.939ZM862.938 655.104h-96.544a1.938 1.938 0 1 1 0-3.877h96.544a1.937 1.937 0 1 1 0 3.877ZM350.754 251.483h-1.551l-32.569-32.957a1.938 1.938 0 0 1 2.714-2.714l32.569 32.957a1.938 1.938 0 0 1 0 2.714h-1.163Z"></path><path fill="#3A81E1" d="M1584.88 574.457c-.78 0-1.55-.775-1.94-1.938l-3.1-50.792c0-.514.2-1.007.57-1.371.36-.363.85-.568 1.37-.568.23-.06.48-.065.71-.015.24.05.46.155.65.306.18.15.33.342.44.561.1.219.14.458.14.699l3.1 50.792c.06.255.06.519.01.775-.05.257-.15.501-.29.719-.15.217-.33.403-.55.546-.22.143-.47.24-.72.286h-.39Z"></path><path fill="#F14146" d="m1134.98 1779.93-50.14-31.7-31.62 50.01 50.14 31.7 31.62-50.01Z"></path><path fill="#02133B" d="M1063 1831.46h-.77l-50.02-31.79c-1.16-.39-1.16-1.55-.77-2.72l31.79-50.01c.11-.2.27-.36.46-.49.18-.12.39-.21.61-.24.22-.04.45-.03.67.03.21.06.41.16.59.31l50.4 31.4c.41.31.68.77.76 1.28.07.51-.06 1.03-.37 1.44l-31.41 50.01a1.9 1.9 0 0 1-.68.58c-.27.13-.57.2-.87.2h-.39Zm-47.3-34.12 46.92 29.47 29.46-46.53-46.91-29.47-29.47 46.53ZM1440.65 1777.18c-.78 0-1.17-.39-1.55-1.17l-13.19-25.59a1.999 1.999 0 0 1 .78-2.71c.46-.26 1.01-.32 1.52-.17.51.14.94.48 1.19.95l13.19 25.97c.13.23.2.48.21.74.01.25-.05.51-.16.74-.12.23-.29.43-.5.58-.22.15-.46.24-.72.27 0 .39-.39.39-.77.39ZM773.373 1800.83h-.775a1.858 1.858 0 0 1-.724-.41 1.953 1.953 0 0 1-.641-1.5c.008-.28.077-.55.202-.8l15.508-36.45c.03-.26.122-.5.27-.71.148-.22.347-.39.578-.5.231-.12.487-.17.746-.17.258.01.51.09.733.22.268.08.515.22.724.41.209.19.374.42.484.67a1.948 1.948 0 0 1-.045 1.63l-15.509 36.45c-.388.77-.775 1.16-1.551 1.16Z"></path><path fill="#3A81E1" d="M1576.35 1676.76c12.63 0 22.88-10.24 22.88-22.88 0-12.63-10.25-22.87-22.88-22.87-12.63 0-22.88 10.24-22.88 22.87 0 12.64 10.25 22.88 22.88 22.88Z"></path><path fill="#02133B" d="M1557.74 1695.37c-6.48 0-12.69-2.57-17.27-7.16a24.426 24.426 0 0 1-7.16-17.27c0-6.51 2.56-12.77 7.13-17.41a24.83 24.83 0 0 1 17.3-7.4 24.803 24.803 0 0 1 24.81 24.81 24.811 24.811 0 0 1-24.81 24.43Zm0-45.36c-4.14 0-8.19 1.22-11.63 3.52-3.45 2.3-6.13 5.57-7.71 9.4-1.59 3.83-2 8.04-1.2 12.1.81 4.06 2.81 7.79 5.73 10.72 2.93 2.93 6.66 4.92 10.73 5.73a20.931 20.931 0 0 0 21.49-8.91 20.912 20.912 0 0 0-2.61-26.43 20.903 20.903 0 0 0-14.8-6.13ZM1048.27 935.428h-1.55l-24.43-21.324a1.96 1.96 0 0 1-.55-1.357c0-.508.2-.995.55-1.357a1.555 1.555 0 0 1 2.72-.388l24.42 21.712c.78.388.78 1.939 0 2.714h-1.16Z"></path><path fill="#3A81E1" d="M938.156 235.198h-.775a2.328 2.328 0 0 1-1.164-2.714l12.02-23.651a1.937 1.937 0 0 1 2.326-.776 1.942 1.942 0 0 1 1.365 1.907c-.008.28-.077.556-.202.808l-12.019 23.263c0 .775-.775 1.163-1.551 1.163Z"></path><path fill="#F14146" d="m1535.25 1106.03 41.1-46.14 22.88 46.14h-63.98Z"></path><path fill="#02133B" d="M1599.23 1125.41h-63.98c-.4.04-.81-.06-1.15-.27a1.9 1.9 0 0 1-.79-.89 1.564 1.564 0 0 1 .39-1.94l41.1-46.52h1.94c.77 0 1.16.38 1.55 1.16l22.49 46.14c.19.21.29.49.29.77 0 .29-.1.57-.29.78-.39.39-.78.77-1.55.77Zm-59.71-3.87h56.6l-20.16-40.71-36.44 40.71ZM1484.85 889.678h-.78l-27.53-13.571a1.557 1.557 0 0 1-1.21-.847 1.574 1.574 0 0 1 .05-1.479 2.322 2.322 0 0 1 2.71-1.163l27.53 13.57a1.904 1.904 0 0 1 1.21 1.088 1.918 1.918 0 0 1-.04 1.626 1.99 1.99 0 0 1-.86.671c-.34.138-.72.174-1.08.105ZM383.71 993.199h-26.753a1.938 1.938 0 0 1-1.938-1.939 2.325 2.325 0 0 1 1.938-1.938h26.753a1.938 1.938 0 1 1 0 3.877ZM446.134 993.199h-26.753a1.938 1.938 0 0 1-1.939-1.939 2.326 2.326 0 0 1 1.939-1.938h26.753a1.938 1.938 0 1 1 0 3.877ZM508.557 993.199h-26.365a1.938 1.938 0 1 1 0-3.877h26.365c.515 0 1.008.204 1.371.568a1.934 1.934 0 0 1 0 2.741 1.935 1.935 0 0 1-1.371.568ZM570.981 993.199h-26.365a1.938 1.938 0 1 1 0-3.877h26.365a1.938 1.938 0 1 1 0 3.877Z"></path><path fill="#02133B" d="M354.631 1019.95c-.514 0-1.007-.2-1.371-.57a1.923 1.923 0 0 1-.568-1.37v-26.75a2.326 2.326 0 0 1 1.939-1.938 1.938 1.938 0 0 1 1.939 1.938v26.75c0 .52-.205 1.01-.568 1.37-.364.37-.857.57-1.371.57ZM354.631 1082.38c-.514 0-1.007-.21-1.371-.57a1.958 1.958 0 0 1-.568-1.37v-26.76c.076-.48.305-.93.654-1.28a2.27 2.27 0 0 1 1.285-.65c.514 0 1.007.2 1.371.56.363.37.568.86.568 1.37v26.76c0 .51-.205 1-.568 1.37-.364.36-.857.57-1.371.57ZM354.631 1128.13a1.94 1.94 0 0 1-1.939-1.94v-10.08c.076-.49.305-.94.654-1.29.348-.35.798-.57 1.285-.65.514 0 1.007.2 1.371.57.363.36.568.85.568 1.37v10.08a1.94 1.94 0 0 1-1.939 1.94Z"></path><path fill="#02133B" d="M385.649 1128.13h-31.018a1.94 1.94 0 0 1-1.371-3.31c.364-.36.857-.57 1.371-.57h31.018a1.94 1.94 0 0 1 0 3.88ZM448.072 1128.13h-29.467c-.514 0-1.007-.21-1.37-.57a1.936 1.936 0 0 1 0-2.74c.363-.36.856-.57 1.37-.57h29.467c.515 0 1.008.21 1.371.57a1.936 1.936 0 0 1 0 2.74c-.363.36-.856.57-1.371.57ZM510.496 1128.13H482.58a1.94 1.94 0 0 1-1.371-3.31c.364-.36.857-.57 1.371-.57h27.916a1.94 1.94 0 0 1 1.371 3.31c-.364.36-.857.57-1.371.57ZM572.92 1128.13h-26.366c-.514 0-1.007-.21-1.37-.57a1.936 1.936 0 0 1 0-2.74c.363-.36.856-.57 1.37-.57h26.366c.514 0 1.007.21 1.37.57a1.936 1.936 0 0 1 0 2.74c-.363.36-.856.57-1.37.57ZM572.92 1019.95c-.515 0-1.008-.2-1.371-.57a1.919 1.919 0 0 1-.568-1.37v-26.75a2.33 2.33 0 0 1 1.939-1.938c.514 0 1.007.204 1.37.568.364.363.568.856.568 1.37v26.75c0 .52-.204 1.01-.568 1.37-.363.37-.856.57-1.37.57ZM572.92 1082.38c-.515 0-1.008-.21-1.371-.57a1.954 1.954 0 0 1-.568-1.37v-26.76c.076-.48.305-.93.653-1.28.349-.35.799-.58 1.286-.65.514 0 1.007.2 1.37.56.364.37.568.86.568 1.37v26.76c0 .51-.204 1-.568 1.37-.363.36-.856.57-1.37.57Z"></path><path fill="#02133B" d="M572.92 1128.13c-.515 0-1.008-.21-1.371-.57a1.936 1.936 0 0 1-.568-1.37v-10.08c.076-.49.305-.94.653-1.29a2.34 2.34 0 0 1 1.286-.65c.514 0 1.007.2 1.37.57.364.36.568.85.568 1.37v10.08c0 .51-.204 1.01-.568 1.37-.363.36-.856.57-1.37.57ZM401.158 969.935a1.942 1.942 0 0 1-1.939-1.938v-38.773h-75.218a1.94 1.94 0 0 1-1.939-1.938 2.325 2.325 0 0 1 1.939-1.939h77.157a1.938 1.938 0 0 1 1.938 1.939v40.711c0 .514-.204 1.007-.567 1.371a1.942 1.942 0 0 1-1.371.567ZM342.999 372.066h-1.163l-37.997-36.834a1.94 1.94 0 0 1 1.413-3.097c.466-.033.928.103 1.301.383l37.997 36.833a1.941 1.941 0 0 1 0 2.715h-1.551Z"></path><path fill="#02133B" d="M305.002 372.066h-1.163a1.942 1.942 0 0 1 0-2.715l37.997-36.833a1.939 1.939 0 0 1 2.714 2.714l-37.997 36.834h-1.551Z"></path><path fill="#3A81E1" d="M271.658 330.191h-39.936v39.936h39.936v-39.936Z"></path><path fill="#02133B" d="M1615.12 350.741h-60.87c-.51 0-1.01-.204-1.37-.568a1.954 1.954 0 0 1-.57-1.371c0-.514.21-1.007.57-1.37.36-.364.86-.568 1.37-.568h60.87c.52 0 1.01.204 1.37.568.37.363.57.856.57 1.37 0 .515-.2 1.008-.57 1.371-.36.364-.85.568-1.37.568Z"></path><path fill="#02133B" d="m1543.01 350.741 28.3-14.734v24.039l-28.3-9.305ZM1644.98 350.741c-.52 0-1.01-.204-1.37-.568a1.912 1.912 0 0 1-.57-1.371c0-.514.2-1.007.57-1.37.36-.364.85-.568 1.37-.568h60.87c.51 0 1.01.204 1.37.568.36.363.57.856.57 1.37 0 .515-.21 1.008-.57 1.371-.36.364-.86.568-1.37.568h-60.87Z"></path><path fill="#02133B" d="m1717.09 350.741-28.3-14.734v24.039l28.3-9.305ZM388.751 952.488l12.407 26.753 12.407-26.753h-24.814Z"></path><path fill="#fff" d="M280.963 895.494H58.797v127.246h222.166V895.494Z"></path><path fill="#02133B" d="M280.576 1024.61H58.797c-.514 0-1.007-.21-1.37-.57a1.956 1.956 0 0 1-.568-1.37V895.493a1.936 1.936 0 0 1 1.938-1.938h221.779c.514 0 1.007.204 1.37.568.364.363.568.856.568 1.37v127.177c0 .51-.204 1-.568 1.37-.363.36-.856.57-1.37.57Zm-219.84-3.88h217.901V897.432H60.736v123.298Z"></path><path fill="#F7AE38" d="m65 1012.2 84.137-71.344 43.813 43.037 36.446-20.161 36.834 48.468"></path><path fill="#fff" d="M319.348 963.345H97.182V1090.6h222.166V963.345Z"></path><path fill="#02133B" d="M318.96 1092.46H97.182c-.514 0-1.007-.21-1.37-.57a1.938 1.938 0 0 1-.569-1.37V963.345a1.936 1.936 0 0 1 1.939-1.938H318.96a1.937 1.937 0 0 1 1.939 1.938v127.175c0 .51-.204 1.01-.568 1.37-.363.36-.857.57-1.371.57Zm-219.84-3.88h217.902V965.284H99.121v123.296Z"></path><path fill="#F14146" d="m103.773 1080.05 83.749-71.34 43.812 43.04 36.447-20.17 36.833 48.47"></path><path fill="#F7AE38" d="M196.439 959.08c6.424 0 11.632-5.208 11.632-11.632 0-6.424-5.208-11.632-11.632-11.632-6.424 0-11.631 5.208-11.631 11.632 0 6.424 5.207 11.632 11.631 11.632Z"></path><path fill="#F14146" d="M234.824 1026.93c6.424 0 11.632-5.21 11.632-11.63 0-6.42-5.208-11.63-11.632-11.63-6.424 0-11.632 5.21-11.632 11.63 0 6.42 5.208 11.63 11.632 11.63ZM185.195 370.127c10.921 0 19.774-8.854 19.774-19.774 0-10.921-8.853-19.774-19.774-19.774-10.92 0-19.774 8.853-19.774 19.774 0 10.92 8.854 19.774 19.774 19.774Z"></path><path fill="#fff" d="M1927.24 725.283h-242.71c-24.2 0-43.82 19.616-43.82 43.813v122.443c0 24.198 19.62 43.813 43.82 43.813h242.71c24.2 0 43.81-19.615 43.81-43.813V769.096c0-24.197-19.61-43.813-43.81-43.813Z"></path><path fill="#02133B" d="M1927.63 937.368h-243.1a45.751 45.751 0 0 1-45.76-45.751V769.096a45.751 45.751 0 0 1 45.76-45.752h243.1a45.37 45.37 0 0 1 17.45 3.49 45.25 45.25 0 0 1 14.76 9.934c4.22 4.253 7.55 9.3 9.81 14.849a45.322 45.322 0 0 1 3.34 17.479v122.521a45.33 45.33 0 0 1-3.34 17.479 45.393 45.393 0 0 1-24.57 24.782 45.37 45.37 0 0 1-17.45 3.49Zm-243.1-210.147a42.265 42.265 0 0 0-41.88 41.875v122.521a41.85 41.85 0 0 0 12.27 29.609 41.863 41.863 0 0 0 29.61 12.265h243.1a41.503 41.503 0 0 0 38.44-25.879 41.55 41.55 0 0 0 3.05-15.995V769.096a41.877 41.877 0 0 0-41.49-41.875h-243.1Z"></path><path fill="#02133B" d="M1762.46 878.821h-1.17l-61.64-56.608a3.485 3.485 0 0 1-.37-1.551c0-.538.13-1.069.37-1.551l54.67-56.995c.16-.222.37-.406.62-.539a1.91 1.91 0 0 1 1.6-.114c.26.097.5.249.7.445.19.197.35.433.44.693.1.26.14.538.12.815a1.935 1.935 0 0 1-.77 1.414l-53.12 55.444 60.1 55.445c.35.362.55.85.55 1.357 0 .508-.2.995-.55 1.357l-1.55.388ZM1868.69 880.76h-1.55a2.326 2.326 0 0 1-.24-1.42c.06-.488.29-.941.63-1.294l59.71-55.445-53.12-55.444a2.333 2.333 0 0 1-.25-1.42c.07-.488.3-.941.64-1.294a1.938 1.938 0 0 1 2.71 0l54.29 56.608.77 1.55c0 .388-.39 1.164-.77 1.164l-61.26 56.995h-1.56ZM1799.68 878.821h-.78c-.77-.388-1.55-1.551-1.16-2.326l39.55-113.604a1.544 1.544 0 0 1 .85-1.213c.23-.115.48-.171.74-.162.26.008.51.081.74.212a1.557 1.557 0 0 1 1.21.848 1.567 1.567 0 0 1-.05 1.478l-39.16 113.604a1.97 1.97 0 0 1-.78.893 1.96 1.96 0 0 1-1.16.27Z"></path><path fill="#fff" d="m1167.3 907.901-19 129.499 120.97 8.53V933.491l-101.97-25.59Z"></path><path fill="#02133B" d="m1269.27 1047.87-121.36-8.53c-.38 0-1.16-.39-1.16-.77 0-.39-.77-1.17-.39-1.56l19-129.496.78-1.163h1.55l101.97 25.59c.39.176.74.444 1.01.781.27.338.46.734.54 1.158v112.44c0 .39-.39.78-.77 1.16-.39.39-.78.39-1.17.39Zm-119.03-12.41 117.09 8.15V935.043l-98.48-24.815-18.61 125.232Z"></path><path fill="#fff" d="M1658.94 1178.53s123.29-286.526 139.58-278.771c16.28 7.754-10.08 89.952-10.08 89.952s20.93-35.283 40.71-8.53c0 0 24.42-6.979 27.91 12.795 0 0 17.84-6.979 22.1 8.534 4.27 15.5-97.7 371.82-97.7 371.82s-167.5-78.32-122.52-195.8Z"></path><path fill="#02133B" d="M1781.46 1376.27h-.78c-1.94-.77-168.66-80.26-123.68-198.13 12.02-27.91 117.48-271.79 139.19-279.545.46-.317 1-.487 1.55-.487.56 0 1.1.17 1.55.487 7.76 3.877 8.53 20.162 1.94 50.017-2.33 12.019-5.82 23.651-8.14 31.793 4.65-5.04 11.63-10.468 19-10.856a22.07 22.07 0 0 1 10.15 2.849 22.069 22.069 0 0 1 7.68 7.232c3.49-.776 13.96-2.715 21.33 1.938a16.21 16.21 0 0 1 4.68 4.307 16.105 16.105 0 0 1 2.68 5.774 22.867 22.867 0 0 1 15.12.776 15.781 15.781 0 0 1 4.65 4.113 15.797 15.797 0 0 1 2.72 5.582c4.27 15.51-87.24 336.54-97.7 372.99-.39.39-.78 1.16-1.17 1.16h-.77Zm-120.59-196.96c-41.48 107.4 100.42 182.62 119.42 192.31 40.71-143.46 100.04-357.87 97.32-368.73a12.438 12.438 0 0 0-5.81-7.364 18.615 18.615 0 0 0-13.96.388h-1.55l-1.17-1.163a13.262 13.262 0 0 0-1.81-5.502 13.202 13.202 0 0 0-4-4.191c-7.76-4.653-19.39-1.551-19.78-1.551-.36.135-.76.131-1.12-.013a1.53 1.53 0 0 1-.81-.763c-4.66-6.203-9.7-9.305-15.13-9.305-12.02.388-22.48 17.448-22.48 17.448s-1.55 1.163-2.72.775a1.604 1.604 0 0 1-.59-.375 1.583 1.583 0 0 1-.37-.598 1.647 1.647 0 0 1-.06-.698c.03-.234.12-.459.25-.655 10.08-31.018 21.71-81.81 11.24-87.238-10.47-5.428-79.09 142.685-136.87 277.225Z"></path><path fill="#F7AE38" d="M1155.28 989.71s69.79 72.12 113.99 25.2c0 0 48.47-29.465 86.08 0 37.61 29.47 257.83 270.63 257.83 270.63l62.04-169.82s60.87 97.32 138.42 219.45c0 0-89.95 350.51-163.23 311.35-73.28-39.16-256.29-272.19-256.29-272.19l36.83 282.27s-746.366 13.95-736.673-39.16c11.244-63.59 203.943-704.499 461.003-627.73Z"></path><path fill="#fff" d="m1050.21 1508.87 54.67 4.27s217.9 8.92 240.77 20.55c29.47 15.12 138.81 136.48 96.94 143.07-16.29 2.33-96.94-81.81-96.94-81.81s58.94 68.63 46.14 79.48c-19.38 17.06-34.5 10.86-34.5 10.86s-5.43 8.53-35.67 15.9c-30.25 7.36-43.04 5.81-50.02-3.49-6.98-9.31-38.39-39.94-38.39-39.94l-136.86-.78"></path><path fill="#02133B" d="M1290.6 1707.78c-10.08 0-15.9-2.72-20.55-8.92-4.65-6.2-33.35-34.9-37.61-39.16l-136.09-.78a1.928 1.928 0 0 1-1.94-1.93 1.928 1.928 0 0 1 1.94-1.94l136.86.77 1.17.78c1.55 1.16 31.79 31.02 38.77 39.93 6.98 8.92 14.73 10.47 48.08 2.72 33.34-7.76 34.51-15.12 34.51-15.12.23-.38.6-.67 1.02-.81.42-.14.88-.13 1.3.03.78 0 14.35 5.43 32.57-10.47 7.75-6.59-22.49-48.85-46.53-76.77a1.95 1.95 0 0 1-.55-1.35c0-.51.2-1 .55-1.36.78-.78 1.94-.39 2.72 0 31.02 32.57 84.13 82.97 95.38 81.42 1.83-.12 3.57-.82 4.97-2.01a8.542 8.542 0 0 0 2.78-4.58c4.27-27.53-80.26-120.2-105.46-132.99-25.2-12.8-237.29-19.77-239.61-20.16l-54.67-4.27a1.928 1.928 0 0 1-1.94-1.94c.09-.54.38-1.04.8-1.4.43-.35.97-.54 1.53-.53l54.67 4.26c8.53.39 218.28 8.92 241.16 20.94 22.88 12.02 112.44 105.46 107.4 136.48a12.03 12.03 0 0 1-3.84 7.02 11.994 11.994 0 0 1-7.4 3.06c-10.86 1.55-47.31-31.8-72.9-56.61 15.9 20.94 31.8 46.53 23.27 53.89-16.68 14.74-30.63 12.41-34.9 11.25-4.26-1.17-11.63 9.69-35.67 15.51a136.346 136.346 0 0 1-31.79 5.04Z"></path><path fill="#02133B" d="m1357.29 1687.23-1.55-.78-57.78-74.05c-.3-.42-.44-.93-.36-1.44.07-.51.34-.97.75-1.28.17-.23.39-.41.65-.51.26-.11.55-.15.83-.11.27.04.54.15.76.33.21.18.38.41.48.68l57.77 73.67c.77 1.16.77 2.32-.39 2.71l-1.16.78ZM1315.41 1703.51c-.77 0-1.16-.39-1.55-1.16l-51.57-73.28c-.3-.41-.44-.93-.36-1.44.07-.51.34-.97.75-1.28.23-.13.48-.22.74-.25.27-.04.53-.02.79.06.25.07.49.19.69.36.21.17.37.38.5.61l51.56 73.28c.31.41.44.93.37 1.44-.07.51-.34.97-.75 1.27l-1.17.39ZM1233.21 1659.7h-1.55l-58.54-57.77a1.98 1.98 0 0 1-.39-1.3c.04-.47.24-.91.57-1.24a1.939 1.939 0 0 1 2.53-.18l58.55 57.77a1.956 1.956 0 0 1 0 2.72h-1.17ZM1728.73 1103.7h-1.55c-.31-.41-.45-.93-.37-1.44.07-.5.34-.96.75-1.27 22.1-19 79.87-72.51 77.94-92.67a7.204 7.204 0 0 0-1.25-3.21 7.067 7.067 0 0 0-2.63-2.22c-12.8-7.363-32.96 8.15-47.3 22.49a296.307 296.307 0 0 0-29.08 33.73 1.53 1.53 0 0 1-1.24 1.01c-.28.04-.57.01-.83-.1s-.48-.29-.65-.52c-.41-.31-.68-.77-.75-1.28-.08-.5.06-1.02.36-1.43 1.94-2.72 53.12-73.283 81.43-57.386 1.62.796 3.01 2.006 4.03 3.496 1.02 1.5 1.63 3.23 1.78 5.03 2.33 25.98-75.99 93.06-79.48 95.77h-1.16Z"></path><path fill="#02133B" d="M1798.9 1068.03c-2.86.11-5.73-.15-8.53-.77-.25-.05-.5-.15-.72-.29-.21-.14-.4-.33-.55-.55a2.01 2.01 0 0 1-.29-.71c-.05-.26-.04-.53.01-.78.17-.48.49-.88.91-1.16.42-.28.92-.42 1.42-.39 10.47 2.33 18.61.39 24.81-5.43 20.17-19.39 11.25-75.605 11.25-76.381 0-.775.39-1.938 1.55-2.326a2.334 2.334 0 0 1 2.33 1.939c.38 2.326 9.3 58.938-12.41 79.488a27.94 27.94 0 0 1-19.78 7.36Z"></path><path fill="#02133B" d="M1831.09 1069.97a28.82 28.82 0 0 1-9.31-1.94c-.26-.03-.5-.12-.71-.27-.22-.15-.39-.35-.5-.58-.12-.23-.17-.48-.17-.74.01-.26.09-.51.22-.74.03-.25.12-.5.27-.71.14-.21.34-.38.57-.5.24-.11.49-.17.75-.16.26.01.51.08.73.21 2.81 1.23 5.88 1.73 8.93 1.46a18.25 18.25 0 0 0 8.52-3.01c18.61-13.96 14.73-68.239 14.73-69.015 0-.514.21-1.007.57-1.371.37-.363.86-.567 1.37-.567.78 0 1.94.775 1.94 1.55 0 .776 3.88 57.383-16.28 72.503a17.43 17.43 0 0 1-11.63 3.88ZM1855.12 1077.34l-3.1-.78c-1.58-.79-2.97-1.94-4.04-3.35a11.51 11.51 0 0 1-2.16-4.79c0-1.16.77-2.33 1.55-2.33s2.33.39 2.33 1.55c0 1.17.77 4.27 3.87 5.43 3.11 1.16 5.82 0 10.08-3.1.42-.31.93-.44 1.44-.37.51.07.97.35 1.28.76.23.43.32.93.25 1.42-.07.49-.3.94-.64 1.29a21.728 21.728 0 0 1-10.86 4.27ZM1201.42 967.999l67.85 46.911v-41.87s-20.16 23.263-67.85-5.041Z"></path><path fill="#fff" d="M1163.04 863.313s-13.19 103.135 62.03 117.48c75.22 14.346 100.03-86.074 81.42-135.315s-126.39 3.877-143.45 17.835Z"></path><path fill="#02133B" d="m1239.03 983.895-14.35-1.163c-76.38-14.734-63.97-118.644-63.58-119.419.39-.776.39-1.163.77-1.163 12.02-10.469 84.14-48.078 123.69-37.222a32.178 32.178 0 0 1 22.87 19.774c11.63 31.018 7.37 83.748-19.38 115.542a64.361 64.361 0 0 1-50.02 23.651Zm-74.44-119.419c-.78 9.305-8.53 101.196 60.87 114.379 24.04 4.265 44.98-2.714 60.48-20.937 25.21-29.855 29.86-81.81 19-111.665a27.943 27.943 0 0 0-7.86-11.287 27.916 27.916 0 0 0-12.3-6.161c-36.44-9.693-105.07 24.039-120.19 35.671Z"></path><path fill="#02133B" d="M1150.24 863.313c1.94 22.876 21.71 37.997 39.55 29.079 6.59-3.102 12.41-9.693 15.9-21.325 12.4-41.098 46.91-5.04 59.32-12.019 12.4-6.979 45.75 17.835 55.83-34.895 10.08-52.731-14.35-54.282-24.43-34.895-10.08 19.386-28.3-8.53-47.69 5.815-19.38 14.346-75.6-24.038-90.72 13.183-12.41 30.63-10.47 26.753-7.76 55.057Z"></path><path fill="#02133B" d="M1248.72 929.226c-13.95 0-25.59-13.571-25.59-30.243 0-16.672 11.64-30.63 25.59-30.63 13.96 0 25.21 13.57 25.21 30.63s-11.25 30.243-25.21 30.243Zm0-56.996c-12.02 0-21.71 12.02-21.71 26.753 0 14.734 9.69 26.365 21.71 26.365 12.02 0 21.33-11.631 21.33-26.365 0-14.733-9.7-26.753-21.33-26.753ZM1314.64 929.226c-13.96 0-25.21-13.571-25.21-30.243 0-16.672 11.25-30.63 25.21-30.63 13.95 0 25.59 13.57 25.59 30.63s-11.25 30.243-25.59 30.243Zm0-56.996c-11.64 0-21.33 12.02-21.33 26.753 0 14.734 9.69 26.365 21.33 26.365 11.63 0 21.71-11.631 21.71-26.365 0-14.733-9.69-26.753-21.71-26.753Z"></path><path fill="#fff" d="M1274.7 914.104s15.12-22.875 25.59-12.407c10.47 10.469-19 32.957-19 32.957"></path><path fill="#02133B" d="m1281.29 936.594-1.55-.776a1.944 1.944 0 0 1-.37-1.437c.08-.509.35-.969.76-1.277 5.43-4.265 19.77-17.448 20.55-25.977a6.224 6.224 0 0 0-1.94-4.265 5.461 5.461 0 0 0-2.26-1.641 5.436 5.436 0 0 0-2.78-.298c-6.98.775-15.12 10.469-17.45 14.346a1.93 1.93 0 0 1-2.71.387 2.703 2.703 0 0 1-.77-1.248 2.704 2.704 0 0 1-.01-1.466c.78-.775 10.47-15.121 20.55-15.896a9.68 9.68 0 0 1 8.14 3.101 9.28 9.28 0 0 1 2.39 3.334c.53 1.274.78 2.652.72 4.033-.78 12.02-21.33 27.916-22.1 28.692l-1.17.388ZM1276.25 965.285c-23.26 0-31.4-14.733-31.79-15.121a2.301 2.301 0 0 1-.07-1.488c.14-.491.43-.921.84-1.226.2-.227.45-.393.74-.479a1.541 1.541 0 0 1 1.61.461c.2.224.32.499.37.793.39.388 9.3 15.897 36.06 12.407.51 0 1 .205 1.37.568.36.364.56.857.56 1.371.39.775-.38 1.939-1.55 1.939l-8.14.775Z"></path><path fill="#fff" d="M1189.01 921.86a24.819 24.819 0 0 1-17.81-1.422 24.807 24.807 0 0 1-12.23-13.016 24.795 24.795 0 0 1-.33-17.864 24.854 24.854 0 0 1 11.76-13.45 24.432 24.432 0 0 1 18.95.016c3 1.264 5.71 3.114 7.98 5.442a24.282 24.282 0 0 1 5.25 8.113"></path><path fill="#02133B" d="M1179.71 925.737c-3.62-.027-7.18-.82-10.47-2.326a26.81 26.81 0 0 1-8.65-5.933 26.937 26.937 0 0 1-5.7-8.8 26.751 26.751 0 0 1 1.1-19.756 26.743 26.743 0 0 1 14.37-13.601 26.737 26.737 0 0 1 19.78-.008 26.73 26.73 0 0 1 14.38 13.591c.13.251.2.527.2.807.01.281-.04.56-.15.818a1.93 1.93 0 0 1-.49.677 1.92 1.92 0 0 1-.72.412c-.78.387-1.94-.388-2.33-1.164a22.975 22.975 0 0 0-12.27-12.58 22.97 22.97 0 0 0-30.16 12.063 22.975 22.975 0 0 0-.22 17.577 22.908 22.908 0 0 0 12.36 12.381 22.884 22.884 0 0 0 17.5.026c.77-.387 1.94.388 2.32 1.164a2.302 2.302 0 0 1-.77 2.714 31.035 31.035 0 0 1-10.08 1.938Z"></path><path fill="#02133B" d="M1190.56 901.697h-.77l-21.33-12.019c-1.16-.388-1.16-1.939-.77-2.714.3-.409.73-.707 1.22-.847.5-.14 1.02-.115 1.49.071l21.33 12.02c.41.308.68.768.75 1.277a1.94 1.94 0 0 1-.36 1.437c0 .388-.78.775-1.56.775Z"></path><path fill="#02133B" d="M1180.1 911.778c-.52 0-1.01-.204-1.37-.568a1.915 1.915 0 0 1-.57-1.371v-14.733c0-.515.2-1.008.57-1.371.36-.364.85-.568 1.37-.568.51 0 1 .204 1.37.568.36.363.56.856.56 1.371v14.733c0 .514-.2 1.007-.56 1.371-.37.364-.86.568-1.37.568ZM1776.8 1021.89c-1.93.09-3.83-.46-5.42-1.55a12.423 12.423 0 0 1-4.08-4.14 12.424 12.424 0 0 1-1.74-5.55c0-.52.2-1.01.57-1.37.36-.37.85-.57 1.37-.57.51 0 1.01.2 1.37.57.36.36.57.85.57 1.37.11 1.32.52 2.59 1.19 3.73a8.938 8.938 0 0 0 2.68 2.86c2.33 1.16 9.31 1.94 24.43-8.14.41-.31.93-.44 1.44-.37.51.07.97.34 1.28.76.3.41.44.92.36 1.43-.07.51-.34.97-.75 1.28-9.7 6.2-17.45 9.69-23.27 9.69ZM1801.62 1058.73h-.78c-.25-.03-.5-.13-.71-.27-.21-.15-.38-.35-.5-.58-.12-.23-.17-.49-.16-.75.01-.26.08-.51.21-.73 4.26-12.41 9.69-19.39 16.67-20.94 2.16-.61 4.44-.65 6.62-.11 2.18.55 4.17 1.65 5.79 3.21.41.31.68.77.75 1.28a1.9 1.9 0 0 1-.36 1.44c-.37.35-.85.55-1.36.55-.51 0-.99-.2-1.36-.55a12.803 12.803 0 0 0-9.3-2.33c-5.43 1.55-10.08 7.76-13.96 18.61 0 .78-.78 1.17-1.55 1.17ZM1831.09 1061.83h-.78c-1.16-.39-1.55-1.55-.78-2.33 3.88-8.14 8.53-13.18 13.96-14.73 3.36-.85 6.9-.57 10.08.77.41.31.69.77.76 1.28.07.51-.06 1.03-.37 1.44-.3.41-.73.7-1.22.84-.5.14-1.02.12-1.49-.07-.98-.61-2.07-.99-3.21-1.13-1.14-.13-2.3-.01-3.38.36-2.69 1.26-5.1 3.04-7.1 5.23-2 2.2-3.54 4.77-4.54 7.56-.21.3-.51.54-.85.67-.35.14-.72.18-1.08.11ZM1050.21 1510.81h-.78l-112.049-45.75a2.318 2.318 0 0 1-1.068-1.15 2.314 2.314 0 0 1-.096-1.56l78.713-196.58c.38-.78 1.55-1.55 2.32-1.16.27.08.52.22.73.41.2.19.37.42.48.68.11.25.16.53.16.81-.01.28-.08.56-.2.81l-77.938 194.64 110.498 45.36a1.541 1.541 0 0 1 1.22.85 1.579 1.579 0 0 1-.05 1.48c-.16.37-.44.68-.79.89-.34.21-.75.31-1.15.27ZM1253.76 1523.61c-.77 0-1.55-.78-1.93-1.94l-28.7-487.37c0-.51.21-1.01.57-1.37.36-.36.86-.57 1.37-.57.52 0 1.01.21 1.37.57.37.36.57.86.57 1.37l28.69 487.37c.39.77-.77 1.94-1.55 1.94h-.39ZM1210.73 1147.13a11.64 11.64 0 0 1-7.98-3.54 11.67 11.67 0 0 1-3.27-8.1c.5-2.67 1.91-5.08 4-6.82 2.09-1.74 4.72-2.69 7.44-2.69 2.72 0 5.35.95 7.44 2.69 2.09 1.74 3.5 4.15 4 6.82a11.641 11.641 0 0 1-11.63 11.64Zm0-19c-1.93.09-3.75.9-5.11 2.26a7.733 7.733 0 0 0-2.26 5.1 7.739 7.739 0 0 0 4.6 7.47c1.43.64 3.03.82 4.56.54a7.858 7.858 0 0 0 4.07-2.14 7.786 7.786 0 0 0 2.14-4.07c.28-1.54.1-3.13-.54-4.56a7.687 7.687 0 0 0-3.02-3.46 7.715 7.715 0 0 0-4.44-1.14ZM1213.05 1266.55a11.635 11.635 0 0 1-11.24-11.63c0-2.99 1.18-5.85 3.29-7.96 2.11-2.1 4.97-3.29 7.95-3.29 2.98 0 5.84 1.19 7.95 3.29 2.11 2.11 3.3 4.97 3.3 7.96 0 3.01-1.17 5.92-3.27 8.09a11.64 11.64 0 0 1-7.98 3.54Zm0-19a7.357 7.357 0 0 0-7.36 7.37 7.357 7.357 0 0 0 7.36 7.36c1.96 0 3.83-.77 5.21-2.16a7.358 7.358 0 0 0 1.6-8.02c-.37-.9-.91-1.71-1.6-2.39a7.174 7.174 0 0 0-2.39-1.6 7.35 7.35 0 0 0-2.82-.56ZM1220.42 1385.58c-1.68.31-3.4.25-5.06-.19-1.65-.43-3.18-1.22-4.5-2.31a11.738 11.738 0 0 1-3.09-4c-.72-1.55-1.1-3.23-1.1-4.94 0-1.71.38-3.39 1.1-4.94.73-1.54 1.78-2.91 3.09-4 1.32-1.09 2.85-1.88 4.5-2.31 1.66-.44 3.38-.5 5.06-.19 2.67.5 5.09 1.91 6.83 4 1.73 2.09 2.69 4.72 2.69 7.44 0 2.72-.96 5.35-2.69 7.44-1.74 2.09-4.16 3.5-6.83 4Zm0-19a7.727 7.727 0 0 0-3.45 0c-1.14.26-2.2.77-3.11 1.5-.91.72-1.65 1.65-2.15 2.7a7.69 7.69 0 0 0-.77 3.36c0 1.16.26 2.31.77 3.36.5 1.05 1.24 1.98 2.15 2.7.91.73 1.97 1.24 3.11 1.5 1.13.26 2.31.26 3.45 0 1.92-.09 3.74-.9 5.1-2.26a7.748 7.748 0 0 0 2.27-5.11c0-1.99-.76-3.9-2.14-5.35a7.753 7.753 0 0 0-5.23-2.4ZM1440.65 1666.68h-1.17c-10.46-9.31-15.12-17.45-13.57-24.04 1.55-6.59 12.02-10.47 12.41-10.47.39 0 1.94.39 2.33 1.55.03.5-.11 1-.39 1.42-.28.42-.69.74-1.16.91 0 0-7.76 1.94-9.31 7.75-1.55 5.82 3.1 11.63 12.02 19.78.27.09.5.26.68.48.18.21.29.48.33.76.04.28 0 .56-.11.82-.11.26-.28.48-.51.65-.22.17-.47.29-.74.36-.26.07-.54.08-.81.03ZM1251.05 904.411a4.65 4.65 0 0 0 4.65-4.653 4.65 4.65 0 1 0-9.3 0 4.65 4.65 0 0 0 4.65 4.653ZM1319.29 903.637a4.65 4.65 0 0 0 4.65-4.653 4.65 4.65 0 1 0-9.3 0 4.65 4.65 0 0 0 4.65 4.653ZM1856.29 1066.09h-.78c-.77-.38-1.55-1.55-1.16-2.32 5.43-13.96 15.12-10.86 15.12-10.86.26.03.5.12.71.27.22.15.39.35.5.58.12.23.17.49.17.74-.01.26-.09.51-.22.74-.03.25-.12.5-.27.71a1.517 1.517 0 0 1-1.32.66c-.26-.01-.51-.08-.73-.21-.39 0-6.21-1.55-10.08 8.53-.22.32-.51.59-.85.79-.33.2-.71.33-1.09.37Z"></path><path fill="#fff" d="M652.791 1534.85H335.632v317.31h317.159v-317.31Z"></path><path fill="#02133B" d="M652.791 1853.95H335.632c-.514 0-1.007-.21-1.37-.57a1.936 1.936 0 0 1-.568-1.37v-317.16c0-.51.204-1.01.568-1.37.363-.36.856-.57 1.37-.57h317.159a1.94 1.94 0 0 1 1.939 1.94v317.16a1.94 1.94 0 0 1-1.939 1.94Zm-315.22-3.88h313.281v-313.28H337.571v313.28Z"></path><path fill="#F14146" d="M434.114 1677.15h-56.22v132.71h56.22v-132.71Z"></path><path fill="#3A81E1" d="M522.515 1641.47h-56.22v168.16h56.22v-168.16Z"></path><path fill="#02133B" d="M611.692 1811.69h-56.22c-.514 0-1.007-.21-1.371-.57a1.958 1.958 0 0 1-.568-1.37v-201.62a1.94 1.94 0 0 1 1.939-1.94h56.22a1.94 1.94 0 0 1 1.939 1.94v201.62c0 .51-.205 1-.568 1.37-.364.36-.857.57-1.371.57Zm-54.281-3.88h52.342v-197.74h-52.342v197.74Z"></path><path fill="#fff" d="M611.692 1415.04v163.62l59.71-48.46h208.983v-115.16H611.692Z"></path><path fill="#02133B" d="M611.692 1580.6h-.775c-.776-.39-1.164-.77-1.164-1.55v-164.01c0-.51.205-1 .568-1.37.364-.36.857-.56 1.371-.56h268.693c.514 0 1.007.2 1.371.56.363.37.568.86.568 1.37v115.16a1.94 1.94 0 0 1-1.939 1.94H671.789l-58.934 47.69-1.163.77Zm1.939-163.62v157.42l56.22-45.75h208.595v-111.67H613.631Z"></path><path fill="#02133B" d="M859.836 1454.59H669.463c-.514 0-1.007-.2-1.371-.57a1.923 1.923 0 0 1-.568-1.37c0-.51.205-1 .568-1.37.364-.36.857-.57 1.371-.57h190.373c.514 0 1.007.21 1.371.57.363.37.567.86.567 1.37 0 .52-.204 1.01-.567 1.37-.364.37-.857.57-1.371.57ZM859.836 1487.94H669.463c-.514 0-1.007-.21-1.371-.57a1.958 1.958 0 0 1-.568-1.37c0-.52.205-1.01.568-1.37.364-.37.857-.57 1.371-.57h190.373c.514 0 1.007.2 1.371.57.363.36.567.85.567 1.37 0 .51-.204 1-.567 1.37-.364.36-.857.57-1.371.57Z"></path></svg>