<svg xmlns="http://www.w3.org/2000/svg" enable-background="new 0 0 28 28" viewBox="0 0 28 28" id="wordpress-logo"><path d="M14,0C6.268,0,0,6.268,0,14s6.268,14,14,14s14-6.268,14-14S21.732,0,14,0z M14,27.383C6.621,27.383,0.617,21.379,0.617,14S6.621,0.617,14,0.617S27.383,6.621,27.383,14S21.379,27.383,14,27.383z"></path><path d="M6.383 7.354c1.205-.077 1.695-.162 1.851.019C8.43 7.601 8.456 8.135 8.118 8.221 7.781 8.308 6.566 8.366 6.566 8.366l4.406 13.084 2.655-7.874-1.903-5.194c0 0-1.221-.122-1.356-.128s-.386-.238-.347-.585.251-.405.45-.405c.199 0 2.95.139 3.632.135 1.054-.006 2.661-.148 2.957-.148.296 0 .437.321.424.437-.013.116 0 .489-.424.54-.424.051-1.388.141-1.388.141l4.326 12.946c0 0 2.005-5.727 2.083-7.019s-.019-2.545-.636-3.664c-.617-1.119-1.986-2.777-1.331-4.262.499-1.129 1.482-1.309 2.186-1.218C20.125 3.112 17.21 1.851 14 1.851c-4.266 0-8.018 2.215-10.186 5.549C4.41 7.408 5.473 7.412 6.383 7.354zM24.585 8.057c.144 1.115.16 2.866-.544 4.979-.954 2.86-3.067 8.881-3.982 11.479 3.634-2.102 6.091-6.023 6.091-10.515C26.149 11.841 25.576 9.816 24.585 8.057z"></path><path d="M14.193 15.118l-3.645 10.524c1.095.325 2.252.507 3.452.507 1.395 0 2.73-.248 3.979-.683L14.193 15.118zM2.909 9.065C2.234 10.575 1.851 12.242 1.851 14c0 4.791 2.795 8.931 6.833 10.907L2.909 9.065z"></path></svg>